<?xml version="1.0" encoding="UTF-8"?>
<svg xmlns="http://www.w3.org/2000/svg" xmlns:xlink="http://www.w3.org/1999/xlink" width="810pt" height="809.999993pt" viewBox="0 0 810 809.999993" version="1.2">
<defs>
<clipPath id="clip1">
  <path d="M 0.464844 18 L 809.488281 18 L 809.488281 725.910156 L 0.464844 725.910156 Z M 0.464844 18 "/>
</clipPath>
<clipPath id="clip2">
  <path d="M 5.15625 13.992188 L 785.453125 13.992188 L 785.453125 796.242188 L 5.15625 796.242188 Z M 5.15625 13.992188 "/>
</clipPath>
</defs>
<g id="surface1">
<g clip-path="url(#clip1)" clip-rule="nonzero">
<path style=" stroke:none;fill-rule:nonzero;fill:rgb(86.268616%,68.238831%,8.628845%);fill-opacity:1;" d="M 753.816406 531.21875 C 751.003906 541.855469 735.054688 547.019531 723.324219 543.105469 C 714.878906 540.289062 704.871094 531.683594 706.125 520.730469 C 707.21875 511.503906 715.816406 504.933594 723.949219 503.519531 C 732.238281 502.113281 738.644531 506.496094 741.148438 508.0625 C 747.402344 512.285156 756.316406 521.832031 753.816406 531.21875 Z M 692.363281 361.136719 C 689.546875 371.777344 673.597656 376.941406 661.871094 373.03125 C 653.421875 370.214844 643.417969 361.605469 644.667969 350.65625 C 645.761719 341.425781 654.363281 334.855469 662.492188 333.445312 C 670.78125 332.039062 677.195312 336.421875 679.695312 337.984375 C 685.796875 342.207031 694.859375 351.75 692.363281 361.136719 Z M 653.421875 678.296875 C 650.613281 688.933594 634.65625 694.097656 622.929688 690.183594 C 614.488281 687.367188 604.484375 678.761719 605.730469 667.808594 C 606.828125 658.582031 615.429688 652.011719 623.558594 650.597656 C 631.847656 649.191406 638.253906 653.574219 640.761719 655.140625 C 646.855469 659.363281 655.925781 668.910156 653.421875 678.296875 Z M 556.628906 264.128906 C 553.816406 274.769531 537.867188 279.933594 526.136719 276.023438 C 517.695312 273.203125 507.683594 264.597656 508.9375 253.644531 C 510.03125 244.417969 518.632812 237.847656 526.761719 236.433594 C 535.050781 235.027344 541.464844 239.410156 543.960938 240.976562 C 550.21875 245.199219 559.136719 254.738281 556.628906 264.128906 Z M 459.367188 174.007812 C 456.550781 184.648438 440.605469 189.808594 428.875 185.894531 C 420.429688 183.082031 410.421875 174.476562 411.675781 163.527344 C 412.769531 154.289062 421.367188 147.71875 429.5 146.3125 C 437.789062 144.902344 444.203125 149.285156 446.699219 150.847656 C 452.800781 154.921875 461.867188 164.460938 459.367188 174.007812 Z M 342.558594 125.191406 C 339.742188 135.828125 323.796875 140.992188 312.066406 137.078125 C 303.621094 134.261719 293.613281 125.65625 294.867188 114.703125 C 295.960938 105.472656 304.558594 98.902344 312.691406 97.492188 C 320.980469 96.085938 327.386719 100.46875 329.890625 102.035156 C 335.988281 106.097656 345.058594 115.804688 342.558594 125.191406 Z M 283.292969 678.296875 C 280.476562 688.933594 264.527344 694.097656 252.800781 690.183594 C 244.355469 687.367188 234.347656 678.761719 235.597656 667.808594 C 236.691406 658.582031 245.292969 652.011719 253.429688 650.597656 C 261.710938 649.191406 268.125 653.574219 270.628906 655.140625 C 276.882812 659.363281 285.949219 668.910156 283.292969 678.296875 Z M 223.71875 249.421875 C 220.902344 260.0625 204.953125 265.226562 193.226562 261.316406 C 184.777344 258.5 174.773438 249.894531 176.023438 238.941406 C 177.117188 229.707031 185.71875 223.136719 193.847656 221.730469 C 202.136719 220.316406 208.542969 224.699219 211.046875 226.265625 C 217.304688 230.335938 226.214844 240.035156 223.71875 249.421875 Z M 154.914062 572.363281 C 152.097656 583.007812 136.148438 588.171875 124.421875 584.257812 C 115.972656 581.441406 105.96875 572.835938 107.21875 561.882812 C 108.3125 552.652344 116.914062 546.082031 125.042969 544.671875 C 133.332031 543.265625 139.742188 547.648438 142.246094 549.214844 C 148.339844 553.277344 157.410156 562.824219 154.914062 572.363281 Z M 80.789062 435.144531 C 72.347656 432.328125 62.335938 423.722656 63.589844 412.769531 C 64.683594 403.542969 73.28125 396.972656 81.417969 395.558594 C 89.703125 394.152344 96.117188 398.535156 98.621094 400.101562 C 104.714844 404.164062 113.785156 413.710938 111.28125 423.257812 C 108.464844 433.894531 92.519531 439.058594 80.789062 435.144531 Z M 709.714844 293.703125 C 639.667969 221.257812 571.175781 226.265625 475.003906 123.308594 C 436.847656 82.316406 412.144531 43.199219 397.753906 18.324219 C 296.742188 70.582031 225.746094 130.667969 180.554688 174.941406 C 118.007812 236.433594 9.171875 346.121094 1.199219 490.066406 C 0.570312 500.550781 -0.210938 508.0625 1.511719 518.542969 C 20.746094 639.804688 199.480469 749.171875 340.835938 713.8125 C 371.328125 706.144531 395.097656 693.003906 411.515625 682.050781 C 437.789062 698.007812 484.699219 721.324219 546.464844 724.917969 C 622.777344 729.460938 735.207031 705.050781 783.992188 622.59375 C 847.171875 515.726562 781.648438 368.023438 709.714844 293.703125 "/>
</g>
<g clip-path="url(#clip2)" clip-rule="nonzero">
<path style=" stroke:none;fill-rule:nonzero;fill:rgb(39.608765%,45.489502%,23.529053%);fill-opacity:1;" d="M 671.253906 437.023438 C 640.128906 449.074219 619.492188 463.621094 587.433594 488.03125 C 530.207031 531.84375 481.101562 585.199219 422.460938 627.128906 C 422.152344 627.285156 421.992188 627.445312 421.679688 627.597656 C 421.992188 637.929688 422.308594 648.25 422.621094 658.582031 C 433.71875 653.105469 447.792969 646.6875 464.371094 640.117188 C 470.003906 637.929688 492.359375 629.324219 517.066406 622.90625 C 544.121094 615.863281 554.445312 617.585938 616.992188 609.453125 C 648.578125 605.382812 680.324219 600.375 712.21875 601.46875 C 736.148438 602.410156 764.292969 606.003906 783.371094 621.652344 C 784.773438 622.753906 783.210938 625.097656 781.648438 624.628906 C 767.890625 620.085938 754.910156 614.457031 740.367188 612.265625 C 725.351562 609.917969 710.035156 610.074219 694.859375 611.328125 C 664.527344 613.675781 634.347656 619.933594 604.324219 624.78125 C 557.570312 632.453125 545.84375 632.605469 529.265625 635.421875 C 529.265625 635.421875 518.007812 637.457031 506.75 640.273438 C 471.71875 648.878906 425.4375 672.503906 419.804688 675.480469 C 416.988281 697.226562 416.207031 715.378906 416.207031 728.519531 C 416.054688 759.1875 419.183594 790.480469 408.859375 795.015625 C 408.078125 795.328125 403.226562 797.675781 400.570312 795.488281 C 398.695312 794.082031 398.855469 791.265625 398.855469 790.011719 C 398.855469 742.601562 400.882812 695.191406 402.605469 647.785156 C 378.367188 638.398438 355.535156 626.503906 330.203125 620.085938 C 303.777344 613.363281 277.507812 613.675781 250.921875 618.679688 C 227.78125 623.0625 204.636719 629.164062 182.589844 637.617188 C 169.921875 642.464844 157.570312 648.097656 145.683594 654.507812 C 136.148438 659.675781 127.230469 667.496094 116.445312 669.84375 C 116.285156 670.003906 116.132812 670.15625 115.972656 670.472656 C 114.570312 672.191406 111.910156 670.003906 112.691406 668.28125 C 112.222656 667.496094 112.222656 666.402344 112.691406 665.308594 C 117.695312 654.828125 129.113281 648.570312 138.648438 642.464844 C 149.90625 635.421875 161.480469 629.324219 173.832031 624.15625 C 198.851562 613.675781 225.121094 606.164062 251.863281 601.628906 C 304.558594 592.554688 356.316406 605.382812 403.546875 629.476562 C 403.699219 622.90625 404.007812 616.175781 404.167969 609.605469 C 404.480469 597.71875 404.636719 585.824219 404.480469 574.089844 C 355.851562 525.273438 291.269531 492.726562 222.777344 483.808594 C 147.40625 473.949219 80.007812 497.574219 15.273438 533.878906 C 9.171875 537.320312 1.820312 528.554688 7.605469 523.859375 C 66.40625 477.238281 150.535156 460.964844 223.871094 468.316406 C 291.109375 475.203125 353.816406 503.679688 403.855469 548.582031 C 402.292969 516.667969 398.695312 485.214844 392.441406 453.140625 C 370.390625 432.175781 351 408.707031 328.167969 388.519531 C 305.183594 368.175781 279.539062 350.34375 251.546875 337.515625 C 221.523438 323.742188 189.316406 317.015625 156.320312 319.207031 C 121.757812 321.554688 91.425781 334.226562 58.585938 343.460938 C 52.019531 345.335938 48.261719 335.949219 54.054688 332.507812 C 111.59375 297.769531 188.375 292.449219 249.984375 318.265625 C 280.945312 331.253906 308.15625 350.5 333.488281 372.089844 C 351.472656 387.582031 369.605469 404.324219 386.183594 422.003906 C 384.933594 407.292969 379.308594 339.859375 366.949219 304.34375 C 364.292969 296.675781 361.164062 290.105469 361.164062 290.105469 C 352.722656 271.953125 341.308594 261.941406 330.203125 246.453125 C 319.257812 231.117188 307.058594 216.722656 293.304688 203.890625 C 278.910156 190.589844 262.179688 178.855469 243.726562 171.8125 C 221.683594 163.527344 204.011719 166.335938 184.777344 179.171875 C 182.121094 181.046875 178.832031 177.449219 180.398438 174.789062 C 202.605469 136.144531 261.246094 163.367188 286.890625 181.832031 C 305.496094 195.28125 321.449219 212.03125 335.988281 229.863281 C 344.125 239.875 354.597656 251.300781 362.570312 263.191406 C 355.851562 180.105469 359.289062 93.582031 391.035156 16.289062 C 392.597656 12.378906 398.695312 13.78125 397.441406 18.011719 C 386.34375 58.0625 378.679688 98.121094 375.238281 139.113281 C 382.898438 125.972656 393.84375 113.609375 404.480469 104.378906 C 417.769531 92.957031 434.5 87.320312 450.609375 95.464844 C 453.265625 96.867188 451.390625 100.78125 448.734375 100.15625 C 441.855469 98.433594 407.765625 118.304688 402.761719 120.496094 C 392.75 124.875 381.023438 135.828125 373.515625 164.308594 C 373.207031 170.878906 373.050781 177.449219 373.050781 184.019531 C 372.582031 233.777344 377.425781 283.375 385.402344 332.347656 C 396.191406 297.457031 411.046875 261.46875 433.410156 233.777344 C 447.328125 216.40625 467.96875 206.707031 486.886719 195.753906 C 499.242188 188.558594 517.695312 172.441406 532.234375 181.832031 C 533.957031 182.925781 533.488281 186.054688 531.140625 186.054688 C 512.066406 185.429688 490.644531 204.519531 475.160156 214.21875 C 462.808594 221.882812 452.644531 229.554688 444.203125 239.722656 C 441.855469 242.539062 437.945312 247.699219 433.566406 255.371094 C 416.679688 285.097656 393.84375 353.160156 390.875 361.917969 C 398.535156 401.664062 407.765625 441.09375 414.644531 480.992188 C 415.425781 485.375 416.054688 489.75 416.679688 494.132812 C 423.875 480.519531 433.253906 467.535156 441.386719 454.703125 C 450.457031 440.3125 459.367188 425.757812 468.4375 411.363281 C 485.011719 384.765625 500.335938 355.976562 522.070312 333.132812 C 542.867188 311.386719 568.359375 294.796875 593.691406 278.992188 C 616.050781 265.070312 640.761719 249.894531 667.8125 258.027344 C 670 258.652344 669.6875 262.410156 667.183594 262.097656 C 635.597656 258.027344 608.234375 280.558594 583.835938 297.617188 C 559.597656 314.515625 536.300781 332.820312 518.789062 356.914062 C 499.714844 383.042969 495.644531 394.152344 470.625 435.769531 C 459.210938 454.546875 442.167969 481.304688 418.863281 512.597656 C 422.152344 543.417969 422.460938 574.242188 421.992188 605.222656 C 481.261719 561.101562 531.921875 505.867188 593.847656 465.1875 C 623.558594 445.628906 655.457031 428.886719 689.707031 419.027344 C 740.207031 404.324219 785.246094 415.433594 785.246094 417.933594 C 785.554688 420.753906 733.332031 412.929688 671.253906 437.023438 "/>
</g>
</g>
</svg>
