<?xml version="1.0" encoding="UTF-8"?>
<svg xmlns="http://www.w3.org/2000/svg" xmlns:xlink="http://www.w3.org/1999/xlink" width="810pt" height="809.999993pt" viewBox="0 0 810 809.999993" version="1.2">
<defs>
<clipPath id="clip1">
  <path d="M 171.019531 27.554688 L 667 27.554688 L 667 809.933594 L 171.019531 809.933594 Z M 171.019531 27.554688 "/>
</clipPath>
<clipPath id="clip2">
  <path d="M 140.214844 0 L 669.925781 0 L 669.925781 701.882812 L 140.214844 701.882812 Z M 140.214844 0 "/>
</clipPath>
</defs>
<g id="surface1">
<g clip-path="url(#clip1)" clip-rule="nonzero">
<path style=" stroke:none;fill-rule:nonzero;fill:rgb(40.388489%,49.798584%,15.289307%);fill-opacity:1;" d="M 551.785156 491.648438 C 546.429688 491.003906 540.914062 492.300781 535.726562 491.8125 C 527.132812 490.839844 523.730469 487.273438 519.679688 482.253906 C 521.945312 479.820312 524.054688 477.390625 526.320312 474.957031 C 531.351562 475.925781 543.675781 476.902344 544.644531 476.738281 C 555.835938 475.4375 566.855469 471.714844 577.726562 469.285156 C 600.097656 464.421875 645.984375 450.476562 663.007812 471.714844 C 640.148438 485.007812 615.664062 494.410156 588.910156 495.054688 C 576.261719 495.699219 564.101562 493.109375 551.785156 491.648438 Z M 332.082031 707.726562 C 321.703125 706.269531 310.195312 706.914062 301.921875 700.109375 C 295.273438 694.597656 290.574219 685.195312 285.707031 677.089844 C 294.136719 677.578125 301.433594 678.546875 310.03125 681.46875 C 316.027344 683.574219 321.214844 683.089844 327.699219 684.386719 C 341.8125 687.140625 352.832031 696.054688 364.347656 703.996094 C 364.835938 704.648438 365.15625 704.804688 366.457031 705.457031 L 366.613281 705.457031 C 366.945312 709.835938 367.425781 714.375 367.914062 718.75 C 355.753906 715.34375 345.535156 709.511719 332.082031 707.726562 Z M 306.621094 607.390625 C 306.785156 606.902344 306.785156 606.414062 306.464844 605.925781 C 302.085938 598.632812 297.058594 591.339844 294.792969 583.074219 C 292.515625 574.804688 293.652344 566.054688 291.871094 557.785156 C 288.785156 543.519531 286.683594 531.039062 286.519531 517.425781 C 293.652344 528.285156 301.277344 538.65625 309.382812 549.035156 C 313.917969 554.867188 316.191406 557.785156 316.839844 565.402344 C 317.160156 568.972656 316.027344 573.835938 316.515625 577.238281 C 316.839844 579.511719 317.8125 581.613281 318.300781 583.886719 C 320.570312 595.066406 320.246094 601.0625 315.382812 611.441406 C 315.21875 611.929688 315.058594 612.253906 315.058594 612.742188 C 312.949219 611.441406 311.003906 610.144531 308.730469 608.847656 C 308.085938 608.035156 307.273438 607.710938 306.621094 607.390625 Z M 666.574219 471.226562 C 652.792969 448.046875 616.476562 456.476562 594.585938 459.394531 C 577.394531 461.660156 560.214844 467.820312 543.023438 468.796875 C 540.105469 468.953125 536.539062 467.984375 532.972656 467.175781 C 548.054688 449.667969 562.96875 432 577.074219 413.683594 C 579.019531 411.085938 574.804688 408.167969 572.695312 410.277344 C 554.695312 428.429688 538 447.882812 520.488281 466.6875 C 520.324219 466.851562 520.164062 467.011719 520 467.175781 C 518.867188 467.820312 517.890625 468.632812 517.082031 469.929688 C 516.921875 470.09375 516.757812 470.417969 516.757812 470.574219 C 508.652344 479.167969 500.222656 487.4375 491.949219 495.867188 C 492.4375 484.683594 490.328125 473.007812 487.085938 463.769531 C 485.789062 460.039062 480.601562 460.691406 480.277344 464.746094 C 479.144531 479.167969 484.332031 496.675781 477.355469 510.132812 C 477.035156 510.777344 476.871094 511.265625 476.710938 511.910156 C 474.601562 514.183594 472.65625 516.617188 470.546875 518.882812 C 461.464844 529.582031 452.390625 540.441406 443.308594 551.144531 C 447.683594 540.121094 451.902344 528.929688 456.121094 518.070312 C 462.929688 500.730469 461.953125 478.035156 461.464844 459.714844 C 461.308594 454.367188 454.65625 454.207031 452.878906 458.582031 C 445.253906 476.902344 452.546875 497.972656 444.929688 516.9375 C 437.957031 534.28125 431.800781 551.464844 427.746094 569.785156 L 427.582031 569.941406 C 425.472656 565.730469 424.503906 561.679688 425.472656 555.839844 C 426.125 551.789062 427.417969 547.902344 427.90625 543.847656 C 428.878906 533.3125 424.660156 524.878906 422.550781 514.828125 C 418.019531 491.648438 427.09375 468.953125 443.308594 452.421875 C 445.253906 450.476562 442.660156 447.070312 440.386719 448.535156 C 418.988281 462.148438 407.3125 487.925781 410.722656 513.050781 C 411.691406 520.503906 414.933594 527.308594 416.066406 534.769531 C 417.53125 544.660156 412.824219 553.410156 413.3125 563.300781 C 413.632812 569.621094 415.585938 575.78125 419.960938 579.179688 C 404.558594 597.664062 389.3125 616.140625 374.398438 634.945312 C 374.398438 632.835938 374.398438 630.894531 374.398438 628.785156 C 375.53125 571.726562 382.183594 514.019531 375.375 457.125 C 375.050781 454.207031 370.832031 454.042969 370.832031 457.125 C 371.476562 516.128906 365.320312 574.804688 364.183594 633.8125 C 357.859375 627.164062 349.753906 619.222656 342.292969 617.4375 C 339.214844 616.792969 337.429688 618.085938 334.671875 618.085938 C 330.132812 618.085938 326.410156 617.273438 323 615.980469 C 323.164062 615.816406 323.164062 615.652344 323.324219 615.328125 C 327.054688 607.066406 331.273438 598.152344 329.652344 588.75 C 328.03125 579.179688 328.351562 568.488281 325.757812 559.082031 C 323.488281 551.300781 317.003906 544.816406 312.140625 538.5 C 302.570312 526.175781 294.304688 513.375 286.519531 499.917969 C 284.25 495.867188 278.414062 497.972656 278.246094 502.183594 C 277.601562 512.886719 276.957031 523.746094 278.246094 534.445312 C 279.546875 544.660156 283.765625 553.734375 285.542969 563.78125 C 287.164062 572.375 287.007812 580.644531 290.574219 588.75 C 292.683594 593.613281 295.761719 597.988281 299.003906 602.203125 C 298.191406 601.875 297.382812 601.714844 296.414062 601.714844 C 277.113281 593.125 255.710938 588.90625 236.902344 578.371094 C 233.335938 576.425781 230.09375 580.964844 232.691406 583.886719 C 244.6875 597.5 262.6875 601.394531 279.867188 606.578125 C 276.957031 608.035156 274.359375 609.332031 273.058594 609.980469 C 266.25 613.222656 259.765625 616.792969 255.066406 622.789062 C 251.335938 627.488281 245.984375 634.945312 245.171875 640.777344 C 244.851562 643.539062 246.308594 646.128906 249.226562 646.128906 C 249.390625 646.128906 249.714844 646.128906 249.875 646.128906 C 251.496094 646.128906 253.28125 645.160156 254.089844 643.695312 C 258.46875 634.136719 262.519531 626.03125 271.761719 620.359375 C 273.226562 619.382812 283.765625 613.550781 290.894531 610.144531 C 294.792969 611.601562 298.515625 613.222656 302.246094 615.171875 C 310.839844 620.035156 319.433594 627 329.808594 627 C 336.78125 627 340.027344 624.566406 347.320312 627.976562 C 353.160156 630.730469 358.996094 635.433594 364.183594 639.644531 C 364.023438 659.75 364.835938 679.847656 366.457031 699.785156 C 354.78125 688.925781 341.324219 679.679688 325.597656 675.792969 C 311.003906 672.230469 294.304688 662.992188 279.710938 670.929688 C 278.246094 671.742188 277.925781 673.199219 278.414062 674.496094 C 278.414062 674.820312 278.578125 675.148438 278.578125 675.304688 C 282.953125 685.03125 287.164062 698.652344 294.792969 706.425781 C 300.789062 712.589844 309.542969 713.074219 317.648438 714.375 C 330.460938 716.316406 342.132812 717.128906 353.808594 722.636719 C 359.484375 725.398438 363.699219 728.640625 369.046875 726.691406 C 372.128906 753.277344 376.34375 779.699219 381.207031 806.117188 C 382.503906 812.765625 392.554688 810.011719 391.421875 803.363281 C 385.746094 770.785156 380.726562 738.367188 377.640625 705.617188 C 423.203125 734.148438 480.277344 679.679688 504.597656 644.671875 C 505.894531 642.886719 502.8125 640.457031 501.519531 642.242188 C 488.707031 658.9375 471.035156 672.714844 453.035156 683.410156 C 432.933594 695.410156 403.425781 710.15625 381.535156 694.433594 C 386.234375 685.519531 390.933594 676.769531 399.851562 671.09375 C 408.289062 665.746094 418.828125 668.664062 424.503906 660.230469 C 428.878906 653.746094 430.179688 647.914062 437.308594 643.375 C 443.148438 639.808594 449.636719 637.867188 456.121094 635.757812 C 466.332031 632.351562 475.734375 628.785156 483.355469 621.003906 C 485.140625 619.058594 482.710938 615.652344 480.441406 617.273438 C 467.628906 626.03125 452.390625 627 438.445312 633.003906 C 433.578125 635.105469 429.039062 637.535156 425.148438 640.941406 C 421.097656 644.507812 420.121094 648.882812 416.878906 652.453125 C 412.824219 656.988281 405.691406 657.152344 400.015625 659.75 C 395.152344 662.015625 390.613281 665.257812 386.882812 668.988281 C 382.667969 673.039062 378.9375 678.058594 375.859375 683.410156 C 375.207031 672.550781 374.722656 661.691406 374.5625 650.667969 C 375.207031 650.34375 375.695312 650.023438 376.183594 649.371094 C 411.691406 608.359375 445.738281 565.890625 480.277344 524.066406 C 490.328125 511.910156 501.519531 500.730469 512.382812 489.382812 C 517.082031 495.699219 523.242188 500.730469 531.515625 501.375 C 539.945312 502.027344 548.210938 499.917969 556.804688 500.894531 C 565.234375 501.703125 573.183594 502.347656 581.613281 501.863281 C 611.289062 500.40625 640.632812 491.976562 664.792969 474.148438 C 665.28125 473.816406 665.441406 473.335938 665.441406 473.007812 C 666.414062 473.496094 667.226562 472.527344 666.574219 471.226562 Z M 421.742188 393.097656 C 431.3125 384.664062 440.71875 375.914062 449.46875 366.675781 C 457.414062 367.164062 465.039062 368.132812 472.816406 370.242188 C 477.355469 371.539062 481.734375 373.648438 486.597656 374.128906 C 495.191406 375.101562 507.839844 368.453125 517.246094 370.242188 C 511.40625 372.996094 505.730469 376.078125 500.222656 379.480469 C 490.492188 385.640625 482.710938 394.878906 472.980469 400.714844 C 461.464844 407.6875 443.796875 413.195312 430.5 410.277344 C 423.527344 408.820312 416.554688 406.390625 409.910156 403.636719 C 413.964844 400.226562 417.851562 396.5 421.742188 393.097656 Z M 422.394531 332.792969 C 418.339844 319.824219 414.445312 308.480469 425.3125 297.132812 C 427.746094 294.699219 430.179688 293.890625 431.3125 290.648438 C 432.28125 288.058594 431.957031 285.140625 431.148438 282.21875 C 447.847656 297.460938 436.820312 341.226562 440.875 361.160156 C 439.253906 362.78125 437.632812 364.566406 435.851562 366.1875 C 427.257812 363.757812 424.503906 339.605469 422.394531 332.792969 Z M 396.128906 412.222656 C 399.207031 411.085938 401.960938 409.464844 404.71875 407.523438 C 413.476562 410.929688 422.394531 414.492188 431.3125 416.925781 C 443.148438 420.167969 452.066406 415.460938 463.417969 412.386719 C 474.925781 409.308594 479.144531 405.902344 488.0625 398.121094 C 500.222656 387.425781 513.515625 380.777344 528.597656 375.101562 C 531.996094 373.804688 533.296875 368.941406 529.730469 366.832031 C 518.058594 360.351562 509.296875 363.921875 496.980469 365.210938 C 482.542969 366.675781 469.414062 360.835938 455.308594 360.191406 C 470.0625 343.171875 481.898438 324.207031 487.894531 302.160156 C 488.546875 299.726562 484.816406 297.941406 483.683594 300.375 C 473.957031 321.289062 460.820312 339.929688 445.09375 356.625 C 444.441406 338.308594 447.359375 319.667969 444.769531 301.511719 C 442.984375 289.191406 438.445312 276.710938 425.960938 272.496094 C 423.203125 271.527344 421.582031 274.765625 422.550781 276.871094 C 428.226562 290.003906 418.019531 292.433594 414.445312 302.96875 C 411.367188 311.886719 413.632812 320.964844 416.066406 329.550781 C 418.339844 337.332031 420.121094 343.980469 421.261719 352.085938 C 421.90625 355.972656 421.742188 359.539062 423.527344 363.269531 C 425.3125 367 427.746094 369.59375 430.988281 370.886719 C 426.28125 375.425781 421.261719 379.800781 416.394531 384.183594 C 410.722656 389.203125 403.90625 393.746094 398.394531 399.09375 C 396.128906 398.121094 393.695312 397.308594 391.421875 396.339844 C 388.023438 395.042969 386.558594 400.550781 389.964844 401.847656 C 391.421875 402.335938 392.886719 402.984375 394.34375 403.46875 C 393.53125 404.445312 392.722656 405.578125 392.074219 406.710938 C 390.289062 409.464844 393.042969 413.519531 396.128906 412.222656 Z M 212.582031 411.738281 C 215.664062 407.359375 218.90625 402.824219 222.636719 399.09375 C 227.660156 394.230469 232.203125 394.554688 237.554688 391.476562 C 243.550781 387.90625 247.117188 382.234375 253.769531 379.15625 C 262.199219 375.269531 270.304688 375.75 278.734375 377.699219 C 281.007812 380.941406 283.277344 384.019531 285.707031 387.097656 C 283.441406 401.039062 262.6875 402.660156 251.011719 404.769531 C 239.335938 406.546875 225.070312 412.0625 212.582031 411.738281 Z M 280.679688 249.640625 C 276.144531 270.386719 268.683594 290.003906 258.46875 308.480469 C 259.441406 299.242188 261.066406 290.324219 263.984375 281.410156 C 267.550781 269.574219 273.058594 258.878906 280.679688 249.640625 Z M 210.3125 327.929688 C 209.824219 327.609375 209.339844 327.449219 208.527344 327.449219 C 198.964844 327.449219 194.265625 323.230469 188.425781 316.101562 C 187.777344 315.292969 187.125 314.480469 186.480469 313.828125 C 191.667969 314.152344 196.855469 314.640625 201.882812 316.261719 C 208.691406 318.371094 215.5 319.988281 222.472656 321.289062 C 218.90625 322.746094 215.5 324.53125 212.097656 326.636719 C 211.445312 326.960938 210.960938 327.449219 210.3125 327.929688 Z M 272.574219 405.089844 C 280.199219 402.660156 287.164062 398.441406 289.925781 391.800781 C 292.359375 394.554688 294.949219 396.988281 297.703125 399.09375 C 301.433594 402.015625 307.109375 398.441406 304.679688 393.746094 C 297.703125 380.777344 286.519531 369.753906 278.089844 357.59375 C 271.605469 348.355469 265.605469 338.632812 259.929688 328.90625 C 272.574219 319.34375 281.332031 307.023438 287.328125 292.109375 C 294.460938 274.28125 300.625 251.585938 295.4375 232.621094 C 294.949219 231 293.328125 230.835938 292.359375 231.484375 C 292.195312 231.484375 291.871094 231.648438 291.707031 231.8125 C 264.144531 248.832031 252.792969 277.84375 248.738281 308.320312 C 243.386719 298.105469 238.523438 287.570312 233.824219 277.035156 C 228.472656 264.710938 224.417969 252.230469 215.175781 242.183594 C 213.070312 239.753906 208.855469 242.992188 210.636719 245.75 C 218.90625 258.394531 222.152344 273.792969 227.984375 287.734375 C 232.203125 297.785156 236.742188 307.667969 241.609375 317.394531 C 236.421875 317.722656 231.226562 318.535156 226.203125 320.15625 C 226.203125 319.503906 225.882812 319.015625 225.070312 318.855469 C 216.3125 316.914062 208.527344 313.828125 200.097656 311.074219 C 191.992188 308.320312 183.558594 308.480469 174.964844 307.832031 C 172.855469 307.667969 171.398438 310.101562 172.210938 312.050781 C 172.210938 312.207031 172.375 312.371094 172.375 312.371094 C 173.996094 314.804688 174.644531 315.292969 177.398438 315.9375 C 177.722656 316.101562 178.207031 315.9375 178.53125 315.9375 C 183.394531 319.34375 185.992188 325.019531 191.019531 328.742188 C 194.421875 331.335938 198.800781 333.121094 203.183594 333.933594 C 201.394531 335.554688 199.609375 337.332031 197.988281 339.277344 C 193.453125 344.46875 191.179688 353.054688 186.316406 357.273438 C 182.105469 360.835938 187.613281 367.972656 192.15625 364.890625 C 195.398438 362.621094 196.207031 360.351562 197.988281 356.949219 C 201.394531 350.464844 205.285156 344.628906 210.476562 339.605469 C 219.71875 330.691406 231.390625 325.019531 243.875 322.746094 C 244.6875 324.367188 245.496094 325.988281 246.472656 327.449219 C 253.605469 340.574219 261.550781 353.382812 270.140625 365.699219 C 271.28125 367.320312 272.414062 368.941406 273.546875 370.5625 C 261.710938 367.972656 249.226562 372.507812 238.851562 379.320312 C 233.011719 383.207031 228.148438 382.398438 222.796875 386.285156 C 214.53125 392.125 206.425781 404.28125 201.71875 413.195312 C 200.421875 415.792969 202.042969 419.355469 205.125 419.191406 C 216.476562 418.546875 225.882812 414.980469 236.742188 412.0625 C 248.582031 408.496094 261.066406 408.820312 272.574219 405.089844 Z M 386.558594 255.472656 C 379.75 268.285156 361.914062 247.535156 357.859375 243.316406 C 353.484375 238.617188 347.488281 236.511719 343.105469 232.457031 C 334.027344 223.542969 334.839844 208.308594 333.703125 196.632812 C 332.894531 187.558594 331.753906 178.476562 330.621094 169.40625 C 336.617188 173.292969 339.539062 178.320312 345.054688 183.828125 C 350.730469 189.5 357.695312 192.097656 362.5625 198.90625 C 372.941406 213.652344 379.75 231.648438 388.503906 247.535156 C 388.34375 249.640625 388.179688 251.910156 388.023438 254.019531 C 387.535156 254.339844 386.882812 254.828125 386.558594 255.472656 Z M 432.609375 121.421875 C 433.257812 115.101562 433.578125 110.074219 432.609375 103.589844 C 430.988281 92.242188 428.226562 80.730469 428.226562 69.226562 C 428.226562 56.582031 436.664062 46.691406 443.308594 36.320312 C 448.984375 44.261719 454.5 53.175781 456.121094 62.421875 C 457.253906 69.386719 453.199219 74.089844 454.167969 81.21875 C 454.980469 88.027344 458.222656 92.566406 456.765625 100.183594 C 455.957031 104.566406 452.546875 109.429688 450.925781 113.640625 C 446.875 124.015625 446.226562 135.035156 445.738281 146.058594 C 445.738281 147.519531 446.226562 148.488281 447.203125 149.300781 C 446.0625 150.597656 444.929688 152.054688 443.796875 153.351562 C 438.765625 143.304688 431.46875 131.957031 432.609375 121.421875 Z M 455.144531 168.105469 C 464.0625 163.402344 471.683594 162.269531 481.085938 159.679688 C 487.25 158.058594 491.304688 154.652344 496.65625 151.246094 C 507.195312 144.761719 518.378906 144.4375 530.050781 146.382812 C 512.871094 156.105469 498.277344 170.375 485.628906 185.125 C 476.871094 195.175781 466.007812 197.285156 453.523438 200.847656 C 450.28125 201.824219 441.363281 206.199219 438.765625 205.066406 C 434.878906 203.445312 432.28125 194.199219 429.847656 190.636719 C 429.527344 190.148438 429.039062 189.667969 428.714844 189.335938 C 430.5 185.613281 432.445312 182.042969 434.554688 178.476562 C 441.6875 175.402344 448.335938 171.835938 455.144531 168.105469 Z M 317.972656 311.398438 C 320.402344 316.914062 321.867188 322.097656 319.921875 328.257812 C 319.433594 329.714844 317.648438 330.691406 317.492188 332.46875 C 315.539062 349.332031 334.671875 367.808594 348.132812 375.589844 C 350.398438 376.890625 353.320312 373.648438 351.050781 371.859375 C 343.433594 365.699219 336.617188 359.539062 331.109375 351.277344 C 329 348.191406 324.300781 341.707031 324.300781 337.820312 C 324.300781 333.445312 327.054688 332.148438 328.1875 328.257812 C 331.273438 316.101562 314.082031 294.542969 322.355469 285.460938 C 329 278.167969 337.757812 290.648438 343.757812 296.164062 C 351.050781 302.804688 361.589844 309.617188 367.425781 317.558594 C 381.695312 337.496094 364.023438 357.917969 367.914062 378.992188 C 368.234375 380.777344 369.699219 381.421875 370.996094 381.421875 C 369.855469 390.179688 369.210938 398.929688 369.699219 407.523438 C 370.023438 414.171875 379.75 414.171875 380.074219 407.523438 C 381.859375 364.242188 392.722656 321.777344 396.609375 278.492188 C 397.261719 270.714844 397.910156 262.933594 398.394531 255.316406 C 405.691406 239.753906 412.824219 224.351562 420.121094 208.789062 C 421.417969 205.875 422.71875 202.957031 424.015625 200.203125 C 425.796875 207.65625 429.367188 215.273438 437.308594 215.925781 C 442.660156 216.414062 448.984375 213.007812 454.167969 211.550781 C 461.628906 209.441406 469.574219 207.65625 477.035156 204.738281 C 488.546875 200.203125 493.734375 190.3125 501.191406 181.230469 C 511.40625 168.917969 524.542969 159.515625 535.082031 147.519531 C 535.082031 147.519531 535.082031 147.355469 535.238281 147.355469 C 539.457031 148.167969 541.246094 141.683594 537.027344 140.871094 C 527.785156 139.25 518.378906 137.953125 509.140625 139.25 C 500.058594 140.550781 494.058594 145.414062 485.789062 148.8125 C 476.386719 152.707031 467.140625 152.542969 457.898438 157.40625 C 453.035156 160 448.335938 162.753906 443.796875 165.832031 C 444.441406 165.023438 445.253906 164.054688 445.90625 163.242188 C 467.792969 139.25 485.953125 108.777344 499.898438 79.441406 C 500.710938 77.820312 498.601562 75.871094 497.300781 77.488281 C 486.441406 91.269531 477.523438 106.507812 467.953125 121.257812 C 463.574219 128.070312 459.035156 134.222656 454.167969 140.386719 C 454.335938 133.742188 454.65625 126.929688 456.445312 120.445312 C 458.386719 114.125 462.605469 108.453125 464.0625 101.96875 C 466.332031 91.597656 461.796875 82.683594 463.574219 71.980469 C 464.550781 65.664062 466.332031 63.390625 463.417969 56.582031 C 459.363281 46.691406 452.878906 38.585938 445.90625 30.8125 C 445.738281 28.214844 441.851562 26.757812 439.90625 29.347656 C 433.257812 38.429688 424.503906 49.125 421.742188 60.46875 C 419.308594 70.195312 422.394531 80.410156 423.851562 89.8125 C 424.660156 95.164062 426.28125 100.835938 426.605469 106.1875 C 426.125 103.265625 424.175781 120.773438 424.828125 123.851562 C 427.257812 134.875 434.230469 146.867188 440.550781 156.4375 C 438.765625 158.539062 437.144531 160.488281 435.367188 162.589844 C 425.636719 173.9375 420.285156 188.527344 413.964844 201.824219 C 409.101562 212.195312 404.070312 222.566406 399.207031 233.101562 C 400.183594 204.414062 399.371094 175.886719 396.9375 147.191406 C 396.609375 143.46875 390.933594 143.304688 391.101562 147.191406 C 391.421875 177.832031 390.933594 208.308594 389.15625 238.941406 C 385.746094 231.648438 382.347656 224.515625 378.773438 217.382812 C 374.398438 208.308594 370.507812 195.820312 363.699219 188.203125 C 358.835938 182.695312 352.019531 179.777344 347 174.101562 C 341.8125 168.265625 337.59375 164.054688 330.296875 160.648438 C 329.972656 160.488281 329.488281 160.324219 329.164062 160.324219 C 327.863281 159.191406 325.597656 159.679688 325.597656 161.78125 L 325.597656 161.945312 C 324.785156 163.242188 324.457031 164.699219 325.433594 165.996094 C 324.945312 185.125 324.132812 205.066406 327.21875 223.863281 C 329.488281 237.808594 338.890625 238.777344 348.132812 247.210938 C 356.886719 255.152344 365.15625 266.332031 377.804688 268.285156 C 381.371094 268.765625 384.613281 268.285156 387.046875 266.984375 C 386.722656 270.714844 386.398438 274.4375 386.070312 278.332031 C 384.449219 294.863281 382.347656 311.398438 379.914062 327.929688 C 378.9375 322.746094 376.996094 318.046875 373.265625 313.992188 C 363.699219 303.617188 352.351562 294.699219 341.96875 285.140625 C 336.136719 279.628906 330.785156 271.195312 322.355469 270.0625 C 320.890625 269.90625 319.59375 271.039062 318.78125 272.171875 C 313.761719 279.144531 311.003906 289.679688 312.460938 298.105469 C 313.59375 303.132812 316.027344 307.1875 317.972656 311.398438 "/>
</g>
<g clip-path="url(#clip2)" clip-rule="nonzero">
<path style=" stroke:none;fill-rule:nonzero;fill:rgb(92.939758%,71.369934%,30.198669%);fill-opacity:1;" d="M 150.480469 382.398438 C 152.753906 391.800781 164.101562 398.121094 174.644531 393.910156 C 177.886719 403.304688 187.613281 407.6875 194.421875 405.253906 C 202.042969 402.496094 206.746094 391.3125 201.230469 381.585938 C 214.042969 378.667969 219.878906 366.023438 216.476562 358.40625 C 213.722656 351.921875 203.828125 347.546875 193.777344 350.789062 C 190.535156 339.605469 178.53125 334.742188 170.265625 338.632812 C 162.96875 342.039062 159.074219 352.246094 163.128906 361.488281 C 153.722656 364.402344 148.378906 373.96875 150.480469 382.398438 Z M 225.230469 682.113281 C 227.660156 693.945312 236.742188 701.730469 244.199219 701.40625 C 253.28125 700.917969 263.496094 688.273438 259.929688 672.386719 C 271.925781 669.796875 278.246094 658.609375 275.980469 650.832031 C 273.710938 642.5625 261.066406 636.078125 249.0625 641.589844 C 245.820312 631.382812 236.089844 626.1875 229.28125 628.140625 C 221.5 630.242188 215.34375 642.242188 220.851562 653.746094 C 208.691406 653.910156 201.074219 663.960938 202.207031 671.09375 C 203.503906 678.226562 213.722656 685.355469 225.230469 682.113281 Z M 468.4375 553.898438 C 465.683594 564.59375 472.492188 577.402344 484.976562 581.613281 C 472.980469 583.074219 464.550781 592.148438 464.226562 600.90625 C 463.898438 611.765625 476.058594 623.597656 491.625 621.328125 C 490.652344 636.890625 496.003906 650.34375 504.273438 653.265625 C 514.492188 656.828125 533.136719 645.484375 539.621094 621.003906 C 549.996094 628.785156 562.804688 630.40625 570.753906 625.21875 C 581.613281 618.085938 584.855469 596.203125 569.941406 579.992188 C 592.800781 565.566406 596.371094 539.796875 586.964844 528.929688 C 579.828125 520.667969 563.292969 519.046875 547.730469 526.175781 C 544.96875 510.453125 531.027344 500.730469 519.355469 502.671875 C 506.382812 504.78125 495.355469 521.636719 501.519531 538.820312 C 487.085938 532.984375 471.523438 541.417969 468.4375 553.898438 Z M 210.636719 492.789062 C 200.90625 480.144531 182.425781 478.84375 171.722656 488.894531 C 161.183594 498.785156 160.859375 516.449219 172.046875 527.152344 C 152.589844 527.472656 140.269531 544.332031 142.859375 557.296875 C 145.132812 568.320312 158.265625 577.890625 173.832031 576.269531 C 171.566406 597.175781 178.050781 614.519531 187.125 617.273438 C 197.507812 620.515625 216.800781 606.578125 224.417969 578.699219 C 236.902344 583.886719 250.203125 584.042969 256.6875 577.726562 C 265.765625 568.808594 264.144531 544.816406 243.386719 527.152344 C 257.335938 517.261719 258.46875 498.296875 249.714844 488.894531 C 240.632812 479.332031 221.339844 479.167969 210.636719 492.789062 M 273.546875 435.890625 C 271.4375 450.644531 284.25 466.6875 302.734375 467.5 C 297.871094 478.523438 298.355469 490.515625 304.519531 496.675781 C 312.949219 505.105469 333.863281 503.96875 347 486.460938 C 357.859375 494.246094 372.289062 493.921875 381.371094 486.140625 C 392.398438 476.738281 393.855469 458.261719 382.667969 445.78125 C 397.910156 442.207031 407.636719 428.109375 406.015625 414.492188 C 404.070312 398.773438 387.046875 386.613281 369.210938 390.988281 C 371.808594 379.320312 363.535156 368.453125 352.996094 367.484375 C 343.269531 366.511719 333.539062 374.457031 332.566406 385.316406 C 325.109375 376.402344 312.785156 374.128906 304.519531 378.992188 C 294.304688 384.992188 290.738281 400.875 299.65625 412.550781 C 285.707031 414.171875 275.003906 424.21875 273.546875 435.890625 Z M 435.851562 440.429688 C 434.554688 449.832031 444.605469 462.3125 460.007812 461.824219 C 460.820312 473.171875 467.140625 481.601562 473.304688 482.253906 C 480.601562 483.0625 491.140625 473.171875 490.816406 457.609375 C 502.164062 458.582031 511.730469 449.667969 511.894531 438.96875 C 512.058594 428.109375 502.332031 419.035156 490.816406 420.003906 C 490.003906 409.144531 481.734375 401.527344 474.601562 401.683594 C 466.332031 401.847656 457.253906 412.222656 459.84375 425.1875 C 447.203125 424.21875 436.988281 432.160156 435.851562 440.429688 Z M 534.269531 404.445312 C 538.96875 418.222656 554.214844 425.519531 567.996094 420.492188 C 562.96875 435.242188 572.375 449.992188 584.855469 452.097656 C 596.207031 454.042969 609.015625 445.449219 611.121094 431.515625 C 624.582031 441.886719 643.390625 439.296875 652.46875 427.621094 C 662.363281 414.816406 658.796875 393.910156 642.738281 384.507812 C 666.574219 374.457031 674.199219 351.433594 667.714844 340.574219 C 662.363281 331.335938 644.683594 327.285156 626.847656 334.257812 C 628.148438 318.046875 614.851562 304.914062 600.582031 305.566406 C 586.964844 306.210938 575.292969 319.015625 576.585938 334.257812 C 566.375 326.308594 551.453125 328.582031 544.15625 338.464844 C 536.539062 348.84375 539.292969 364.242188 550.808594 371.375 C 537.191406 375.75 529.730469 390.824219 534.269531 404.445312 Z M 439.253906 229.539062 C 430.988281 243.804688 435.851562 262.609375 450.28125 271.195312 C 440.875 280.441406 437.796875 293.410156 442.175781 302.480469 C 448.171875 315.128906 469.089844 321.289062 486.441406 309.617188 C 491.460938 324.207031 505.574219 332.636719 517.570312 330.363281 C 532.328125 327.773438 544 309.132812 537.347656 290.324219 C 558.269531 286.273438 571.238281 266.175781 567.1875 247.855469 C 563.777344 232.457031 548.699219 220.789062 531.027344 220.945312 C 532.484375 206.523438 522.109375 193.878906 509.140625 192.578125 C 495.191406 190.957031 481.410156 202.957031 481.410156 218.679688 C 466.816406 210.085938 447.683594 214.949219 439.253906 229.539062 Z M 457.414062 33.886719 C 452.878906 42.640625 457.898438 56.417969 470.871094 60.957031 C 457.742188 66.796875 451.578125 79.109375 454.335938 86.734375 C 457.414062 95.320312 473.144531 101.96875 488.871094 93.863281 C 488.871094 107.964844 497.136719 118.503906 504.921875 119.476562 C 514.003906 120.445312 526.808594 108.941406 526.320312 91.109375 C 538.648438 95.320312 551.785156 88.027344 554.695312 76.679688 C 557.78125 65.011719 549.351562 51.882812 536.050781 50.097656 C 546.917969 44.746094 550.808594 31.292969 544.96875 21.085938 C 539.292969 11.195312 526 7.789062 515.949219 13.949219 C 512.539062 5.523438 505.085938 -0.152344 497.464844 0.0117188 C 487.085938 0.171875 477.035156 11.359375 478.820312 25.296875 C 469.574219 23.351562 460.820312 27.238281 457.414062 33.886719 Z M 354.128906 140.707031 C 355.105469 148.488281 363.699219 154.816406 373.101562 152.542969 C 371.808594 161.300781 377.640625 168.59375 384.125 169.40625 C 391.265625 170.214844 399.371094 163.242188 398.882812 153.675781 C 406.667969 155.460938 414.445312 152.707031 417.851562 147.035156 C 422.550781 139.574219 419.152344 127.417969 408.613281 122.230469 C 414.933594 115.425781 415.742188 106.507812 412.34375 101.96875 C 408.125 96.460938 395.640625 95.648438 387.046875 104.886719 C 379.425781 97.917969 368.078125 99.214844 363.046875 105.855469 C 359.160156 111.050781 359.484375 119.3125 364.347656 125.308594 C 357.539062 128.070312 353.320312 134.554688 354.128906 140.707031 Z M 266.738281 259.203125 C 257.980469 271.195312 240.144531 275.578125 225.230469 267.632812 C 225.714844 288.867188 208.527344 302.804688 195.074219 300.703125 C 184.695312 299.082031 175.289062 287.894531 173.996094 273.304688 C 156.320312 278.167969 141.238281 266.820312 140.269531 255.796875 C 139.460938 246.882812 147.566406 236.023438 160.695312 232.621094 C 150 228.40625 141.402344 220.789062 141.082031 213.007812 C 140.59375 201.980469 156.320312 187.882812 181.128906 188.367188 C 176.585938 173.292969 185.503906 158.703125 197.34375 155.625 C 210.148438 152.382812 226.039062 162.921875 227.503906 179.941406 C 236.089844 172.316406 247.28125 169.726562 254.257812 173.613281 C 263.65625 178.964844 267.707031 197.605469 255.710938 213.007812 C 272.738281 223.054688 276.957031 245.101562 266.738281 259.203125 "/>
</g>
<path style=" stroke:none;fill-rule:nonzero;fill:rgb(19.219971%,32.939148%,48.629761%);fill-opacity:1;" d="M 182.261719 378.179688 C 183.726562 378.023438 184.207031 376.558594 183.726562 375.589844 C 184.046875 375.269531 184.046875 374.78125 184.046875 374.457031 C 184.207031 374.617188 184.207031 374.78125 184.371094 374.9375 C 185.503906 376.722656 188.261719 375.101562 187.289062 373.316406 C 186.15625 371.539062 185.347656 369.59375 184.859375 367.484375 C 184.371094 365.699219 184.535156 363.757812 183.558594 362.136719 C 183.074219 361.324219 181.773438 361.160156 181.292969 362.136719 C 179.671875 365.378906 181.617188 370.074219 183.394531 373.316406 C 182.261719 371.859375 180.804688 370.5625 179.34375 369.265625 C 177.886719 367.972656 176.097656 365.863281 173.996094 366.1875 C 173.1875 366.351562 172.210938 366.832031 172.375 367.808594 C 172.535156 370.074219 174.808594 371.375 176.429688 372.671875 C 177.398438 373.480469 178.375 374.128906 179.34375 374.78125 C 177.398438 374.78125 175.453125 375.101562 173.507812 375.589844 C 171.234375 376.078125 168.15625 376.558594 167.179688 378.832031 C 166.859375 379.644531 167.023438 380.453125 167.992188 380.777344 C 170.101562 381.585938 172.046875 380.128906 174.15625 379.644531 C 176.910156 378.832031 179.671875 378.34375 182.261719 378.179688 Z M 249.0625 651.964844 C 244.851562 655.207031 244.851562 663.148438 245.496094 667.851562 C 245.820312 669.957031 249.0625 670.121094 248.902344 667.851562 C 248.738281 665.09375 248.902344 662.339844 249.390625 659.417969 C 249.714844 657.152344 250.847656 654.886719 250.683594 652.453125 C 250.527344 651.644531 249.714844 651.480469 249.0625 651.964844 Z M 242.90625 663.800781 C 242.417969 662.015625 242.253906 660.394531 240.472656 659.75 C 239.820312 659.417969 239.175781 659.90625 238.851562 660.394531 C 237.710938 661.851562 238.6875 663.636719 239.175781 665.257812 C 239.335938 666.066406 239.664062 666.878906 239.988281 667.6875 C 238.199219 666.554688 236.257812 665.582031 234.46875 664.769531 C 232.203125 663.800781 229.28125 662.179688 227.015625 663.636719 C 226.363281 664.125 226.039062 664.933594 226.527344 665.746094 C 227.660156 667.851562 230.746094 668.335938 232.691406 669.308594 C 235.121094 670.441406 237.390625 671.742188 239.820312 672.714844 C 240.632812 673.039062 241.285156 672.714844 241.765625 672.0625 C 242.90625 672.714844 244.6875 671.90625 244.363281 670.285156 C 243.71875 667.851562 243.386719 665.902344 242.90625 663.800781 Z M 218.097656 516.292969 C 207.882812 529.417969 207.070312 544.816406 213.070312 559.894531 C 214.042969 562.324219 217.773438 561.515625 217.121094 558.761719 C 215.34375 551.300781 213.722656 544.007812 215.34375 536.226562 C 216.632812 530.070312 219.878906 524.554688 221.5 518.394531 C 221.984375 516.449219 219.394531 514.507812 218.097656 516.292969 Z M 201.394531 544.980469 C 200.585938 543.847656 198.800781 544.496094 198.964844 545.949219 C 199.453125 548.546875 200.75 550.980469 201.71875 553.574219 C 202.371094 555.195312 202.851562 556.976562 203.339844 558.597656 C 199.128906 555.355469 194.585938 552.765625 189.558594 550.8125 C 184.371094 548.710938 177.5625 545.304688 171.886719 547.089844 C 170.910156 547.414062 170.265625 548.871094 171.234375 549.523438 C 175.128906 552.601562 180.480469 552.921875 185.183594 554.542969 C 191.503906 556.816406 197.175781 560.058594 203.183594 562.972656 C 203.992188 563.457031 204.960938 562.972656 205.449219 562.324219 C 206.261719 562.324219 207.234375 561.679688 206.90625 560.539062 C 205.613281 555.519531 204.472656 549.191406 201.394531 544.980469 Z M 359.316406 413.683594 C 354.617188 415.792969 351.863281 422.433594 349.753906 426.972656 C 347.320312 432.484375 345.699219 438.320312 344.726562 444.316406 C 344.242188 447.238281 348.621094 448.535156 349.265625 445.617188 C 350.398438 439.777344 352.1875 434.269531 354.78125 428.917969 C 356.886719 424.707031 361.105469 420.324219 361.914062 415.792969 C 362.238281 414.171875 360.78125 413.03125 359.316406 413.683594 Z M 338.570312 420.324219 C 336.136719 429.242188 337.429688 440.105469 337.269531 449.179688 C 337.269531 451.453125 340.671875 451.453125 340.835938 449.179688 C 341.324219 440.105469 343.433594 429.40625 341.480469 420.324219 C 341.160156 418.871094 338.890625 419.035156 338.570312 420.324219 Z M 316.679688 418.382812 C 314.894531 417.414062 312.785156 419.355469 313.761719 421.300781 C 316.351562 425.839844 320.570312 429.570312 323.488281 433.945312 C 326.566406 438.320312 329.164062 443.019531 331.429688 447.882812 C 332.894531 450.964844 337.429688 448.371094 336.136719 445.128906 C 332.242188 436.054688 325.757812 423.246094 316.679688 418.382812 Z M 484.816406 427.296875 C 478.167969 429.570312 476.386719 441.726562 476.871094 447.722656 C 477.035156 450.476562 481.085938 450.476562 481.253906 447.722656 C 481.574219 444.160156 482.0625 440.589844 483.355469 437.1875 C 484.496094 434.433594 486.597656 431.671875 486.597656 428.761719 C 486.761719 427.785156 485.789062 426.972656 484.816406 427.296875 Z M 469.089844 443.507812 C 469.089844 443.996094 469.089844 444.480469 469.089844 444.96875 C 468.28125 443.671875 467.628906 442.375 466.816406 441.238281 C 465.683594 439.621094 464.550781 436.863281 462.441406 436.535156 C 461.953125 436.535156 461.144531 436.699219 460.984375 437.347656 C 460.65625 439.621094 462.605469 441.238281 463.738281 442.859375 C 465.195312 444.96875 466.660156 447.238281 467.953125 449.503906 C 468.28125 449.992188 468.605469 450.15625 468.925781 450.3125 C 469.414062 451.777344 471.847656 451.613281 471.847656 449.832031 C 471.847656 447.722656 471.847656 445.617188 471.847656 443.507812 C 472.003906 441.5625 469.089844 441.5625 469.089844 443.507812 Z M 550.644531 548.546875 C 538.484375 556.488281 531.351562 574.160156 527.945312 587.613281 C 527.296875 590.371094 531.351562 591.503906 532.160156 588.75 C 534.269531 581.453125 537.347656 574.648438 541.246094 568 C 544.808594 562.003906 549.996094 557.296875 553.5625 551.300781 C 554.695312 549.679688 552.429688 547.414062 550.644531 548.546875 Z M 523.890625 563.300781 C 522.269531 566.542969 522.269531 570.429688 521.621094 573.996094 C 520.976562 577.402344 520.164062 580.800781 519.511719 584.042969 C 516.757812 576.589844 513.191406 567.675781 507.195312 562.160156 C 505.894531 561.027344 503.300781 562.160156 503.953125 563.945312 C 507.03125 571.40625 512.058594 578.210938 515.625 585.507812 C 516.269531 586.964844 518.058594 586.640625 519.027344 585.828125 C 518.703125 587.773438 521.457031 588.585938 522.109375 586.640625 C 523.566406 582.585938 524.542969 578.371094 525.511719 573.996094 C 526.164062 570.59375 527.296875 566.867188 526.488281 563.457031 C 526.164062 562.488281 524.378906 562.160156 523.890625 563.300781 Z M 636.097656 362.300781 C 628.46875 365.210938 621.984375 372.347656 616.640625 378.34375 C 610.476562 385.152344 605.125 392.445312 600.582031 400.394531 C 599.285156 402.660156 602.527344 404.445312 603.992188 402.335938 C 608.691406 395.042969 614.042969 388.070312 620.039062 381.75 C 625.558594 375.914062 632.851562 371.375 637.71875 365.210938 C 638.6875 363.921875 637.875 361.488281 636.097656 362.300781 Z M 600.75 380.289062 C 595.074219 380.128906 593.941406 391.148438 591.019531 394.390625 C 589.234375 396.339844 591.988281 399.09375 593.941406 397.308594 C 596.042969 395.199219 597.339844 392.609375 598.316406 390.015625 C 598.960938 388.558594 599.449219 387.097656 600.261719 385.804688 C 600.90625 384.664062 602.046875 383.695312 602.371094 382.398438 C 602.527344 381.265625 601.882812 380.289062 600.75 380.289062 Z M 577.5625 360.027344 C 578.046875 365.210938 580.640625 369.917969 582.101562 374.9375 C 584.046875 381.097656 585.179688 387.425781 585.832031 393.910156 C 586.15625 396.664062 590.210938 396.820312 590.210938 393.910156 C 590.042969 383.207031 588.101562 366.675781 579.671875 359.214844 C 579.019531 358.570312 577.394531 358.894531 577.5625 360.027344 Z M 505.242188 277.84375 C 508.488281 270.0625 512.703125 262.933594 518.703125 256.9375 C 524.378906 251.261719 531.1875 247.855469 537.515625 243.160156 C 538.96875 242.183594 538 240.074219 536.378906 240.398438 C 519.679688 243.480469 506.21875 261.636719 501.519531 276.871094 C 500.867188 279.300781 504.433594 280.113281 505.242188 277.84375 Z M 499.570312 249.800781 C 495.515625 257.261719 494.703125 267.308594 493.082031 275.578125 L 493.082031 275.738281 C 491.792969 269.09375 488.21875 262.769531 484.164062 257.417969 C 480.765625 252.71875 476.546875 247.210938 471.035156 245.101562 C 469.414062 244.449219 467.953125 246.558594 468.761719 248.023438 C 471.847656 253.042969 477.199219 256.773438 480.765625 261.636719 C 484.332031 266.664062 486.925781 272.171875 490.003906 277.355469 C 490.980469 278.976562 493.082031 278.007812 493.082031 276.386719 C 493.570312 277.679688 495.679688 278.167969 496.167969 276.386719 C 498.277344 268.117188 502.164062 259.039062 502.332031 250.453125 C 502.332031 248.992188 500.222656 248.503906 499.570312 249.800781 Z M 395.800781 129.359375 C 395.640625 126.605469 395.800781 123.851562 394.988281 121.257812 C 394.664062 120.121094 392.886719 119.636719 392.234375 120.933594 C 389.476562 126.449219 391.421875 134.554688 392.886719 140.226562 C 393.53125 142.980469 397.75 141.847656 397.097656 139.085938 C 396.609375 135.6875 396.128906 132.601562 395.800781 129.359375 Z M 388.179688 130.824219 C 387.371094 130.5 386.882812 131.3125 386.722656 131.957031 C 386.558594 133.253906 387.535156 134.554688 387.855469 135.84375 C 388.023438 136.496094 388.179688 137.144531 388.179688 137.796875 C 386.558594 136.65625 384.9375 135.523438 382.992188 134.710938 C 380.882812 133.578125 377.964844 131.957031 375.53125 132.933594 C 374.5625 133.253906 373.910156 134.390625 374.5625 135.363281 C 375.859375 137.464844 378.617188 137.953125 380.726562 138.765625 C 383.15625 139.898438 385.589844 141.039062 388.023438 142.492188 C 388.992188 142.980469 389.964844 142.492188 390.453125 141.847656 C 390.777344 141.683594 391.101562 141.195312 391.265625 140.707031 C 391.746094 137.628906 391.421875 132.121094 388.179688 130.824219 Z M 503.789062 70.039062 C 506.707031 66.953125 509.785156 64.042969 513.191406 61.28125 C 515.949219 59.011719 520.324219 56.90625 522.109375 53.664062 C 522.597656 52.851562 521.945312 51.71875 520.976562 51.71875 C 517.246094 52.042969 514.160156 55.285156 511.25 57.714844 C 507.675781 60.800781 504.273438 64.199219 501.355469 67.765625 C 500.058594 69.226562 502.332031 71.660156 503.789062 70.039062 Z M 496.003906 67.28125 C 495.035156 68.902344 497.136719 70.683594 498.601562 69.871094 C 499.085938 69.714844 499.410156 69.386719 499.570312 68.902344 C 500.542969 67.765625 501.519531 66.632812 502.332031 65.175781 C 503.140625 63.710938 504.273438 62.089844 504.597656 60.3125 C 505.085938 57.878906 502.332031 56.90625 500.867188 58.691406 C 500.222656 59.5 499.898438 60.46875 499.410156 61.28125 C 499.246094 59.179688 498.921875 57.226562 498.601562 55.125 C 497.949219 51.394531 497.300781 47.34375 494.703125 44.425781 C 493.894531 43.613281 492.925781 44.261719 492.761719 45.234375 C 492.4375 48.640625 493.894531 52.042969 494.703125 55.285156 C 495.355469 59.660156 495.84375 63.390625 496.003906 67.28125 Z M 222.152344 206.84375 C 222.152344 204.902344 219.554688 204.738281 218.90625 206.359375 C 214.53125 218.035156 215.824219 231.8125 218.585938 243.640625 C 219.230469 246.558594 223.449219 245.261719 222.960938 242.507812 C 221.015625 230.347656 222.308594 219.003906 222.152344 206.84375 Z M 177.5625 228.894531 C 187.9375 231.8125 197.988281 237.644531 207.394531 243.160156 C 206.425781 241.371094 205.449219 239.585938 204.472656 237.808594 C 202.851562 234.890625 200.097656 231.96875 199.773438 228.570312 C 199.609375 227.429688 201.074219 226.949219 201.882812 227.429688 C 204.960938 229.050781 206.746094 233.433594 208.203125 236.34375 C 209.824219 239.585938 211.289062 242.992188 212.582031 246.402344 C 212.746094 246.558594 212.910156 246.882812 212.910156 247.046875 C 212.910156 247.210938 213.070312 247.371094 213.070312 247.535156 C 213.722656 249.3125 210.800781 250.453125 209.992188 248.832031 C 209.992188 248.832031 209.992188 248.667969 209.824219 248.667969 C 198.800781 242.828125 186.804688 238.296875 176.097656 231.96875 C 174.644531 230.835938 175.777344 228.40625 177.5625 228.894531 "/>
</g>
</svg>
