<?xml version="1.0" encoding="UTF-8"?>
<svg xmlns="http://www.w3.org/2000/svg" xmlns:xlink="http://www.w3.org/1999/xlink" width="810pt" height="809.999993pt" viewBox="0 0 810 809.999993" version="1.2">
<defs>
<clipPath id="clip1">
  <path d="M 0 37.015625 L 810 37.015625 L 810 773.230469 L 0 773.230469 Z M 0 37.015625 "/>
</clipPath>
</defs>
<g id="surface1">
<g clip-path="url(#clip1)" clip-rule="nonzero">
<path style=" stroke:none;fill-rule:nonzero;fill:rgb(39.608765%,45.489502%,23.529053%);fill-opacity:1;" d="M 681.5625 372.894531 C 687.007812 369.363281 701.726562 379.371094 700.554688 385.558594 C 699.671875 390.121094 689.660156 395.566406 682.890625 390.5625 C 676.269531 385.996094 677.742188 375.394531 681.5625 372.894531 Z M 546.148438 303.835938 C 542.617188 304.574219 537.757812 303.394531 535.992188 300.003906 C 533.636719 295.585938 537.757812 289.40625 542.324219 286.753906 C 546.441406 284.394531 552.769531 283.808594 554.980469 286.753906 C 558.070312 290.878906 553.65625 302.214844 546.148438 303.835938 Z M 426.921875 246.847656 L 433.101562 233.59375 L 452.09375 286.601562 Z M 553.800781 585.082031 L 522.304688 585.082031 L 503.316406 564.167969 Z M 606.203125 597.742188 C 612.089844 598.921875 617.242188 605.546875 615.769531 610.40625 C 614.296875 614.96875 607.675781 616.003906 606.9375 616.148438 C 600.316406 617.03125 592.070312 613.058594 591.777344 607.90625 C 591.335938 602.453125 599.136719 596.269531 606.203125 597.742188 Z M 406.171875 650.308594 C 411.757812 648.398438 420.445312 656.347656 418.824219 662.386719 C 417.796875 665.917969 412.9375 669.304688 408.078125 668.125 C 403.519531 667.097656 401.019531 662.679688 401.167969 658.554688 C 401.167969 655.167969 403.078125 651.191406 406.171875 650.308594 Z M 374.523438 383.644531 C 369.074219 388.503906 357.890625 385.261719 356.859375 381.140625 C 355.976562 377.460938 362.449219 372.007812 368.929688 370.976562 C 370.257812 370.835938 375.109375 370.097656 377.167969 372.894531 C 379.234375 375.839844 377.46875 381.140625 374.523438 383.644531 Z M 259.414062 471.105469 C 253.382812 475.96875 242.785156 474.644531 241.015625 470.519531 C 239.542969 466.691406 245.289062 459.917969 251.769531 457.855469 C 255.296875 456.824219 261.773438 456.238281 263.832031 459.769531 C 265.75 463.007812 262.65625 468.457031 259.414062 471.105469 Z M 176.699219 277.183594 L 200.25 297.355469 L 218.5 335.34375 Z M 120.761719 340.054688 C 116.496094 336.375 115.023438 328.277344 118.261719 324.886719 C 124 318.703125 144.753906 326.511719 144.902344 332.550781 C 144.902344 337.703125 128.710938 346.832031 120.761719 340.054688 Z M 309.609375 217.398438 L 332.574219 242.285156 L 334.632812 270.554688 Z M 298.570312 143.035156 C 296.070312 142.890625 292.535156 131.847656 296.070312 129.046875 C 297.542969 127.867188 300.339844 128.3125 301.8125 129.640625 C 305.34375 133.171875 301.078125 143.183594 298.570312 143.035156 Z M 606.054688 166.453125 L 599.871094 187.210938 L 593.691406 170.425781 Z M 678.328125 165.273438 C 681.421875 165.273438 684.949219 168.953125 684.65625 172.191406 C 684.214844 177.347656 674.203125 180.289062 671.996094 177.933594 C 669.644531 175.429688 673.324219 165.417969 678.328125 165.273438 Z M 748.242188 285.28125 L 711.152344 302.507812 L 674.0625 294.410156 Z M 616.355469 305.746094 C 616.355469 305.746094 691.722656 320.328125 698.640625 320.328125 C 705.558594 320.328125 711.296875 315.910156 722.042969 312.078125 C 732.789062 308.253906 801.234375 294.410156 808.148438 286.167969 C 815.066406 277.917969 801.820312 271.585938 787.835938 266.582031 C 773.851562 261.570312 755.601562 260.835938 737.789062 260.835938 C 720.128906 260.835938 721.898438 255.832031 707.472656 246.257812 C 692.898438 236.6875 680.242188 240.519531 680.242188 240.519531 L 635.347656 245.523438 L 627.695312 239.191406 L 638.4375 235.953125 L 718.21875 208.125 L 772.679688 177.050781 C 772.679688 177.050781 791.078125 156.730469 791.078125 147.308594 C 791.078125 137.882812 759.433594 145.980469 736.617188 148.632812 C 713.804688 151.132812 707.472656 146.71875 707.472656 146.71875 L 722.632812 125.957031 C 722.632812 125.957031 723.957031 100.039062 722.632812 93.707031 C 721.304688 87.375 706.144531 95.621094 706.144531 95.621094 L 675.089844 104.457031 L 682.007812 49.976562 C 682.007812 49.976562 686.421875 31.570312 657.277344 38.640625 C 628.132812 45.558594 610.46875 100.039062 610.46875 100.039062 C 610.46875 100.039062 602.230469 141.269531 599.136719 148.191406 C 596.050781 155.109375 587.21875 147.453125 587.21875 147.453125 L 587.21875 115.792969 L 566.902344 75.300781 C 566.902344 75.300781 555.570312 48.652344 540.257812 48.652344 C 525.097656 48.652344 525.691406 80.3125 525.691406 80.3125 L 530.546875 123.308594 L 519.359375 140.976562 L 528.925781 163.800781 C 528.925781 163.800781 532.757812 206.210938 528.925781 220.785156 C 525.097656 235.367188 521.273438 218.28125 520.09375 210.035156 C 518.773438 201.792969 514.355469 177.789062 514.355469 177.789062 C 514.355469 177.789062 501.695312 149.957031 497.28125 136.558594 C 492.863281 123.308594 479.617188 96.652344 479.617188 96.652344 C 479.617188 96.652344 468.871094 66.464844 448.121094 62.050781 C 427.363281 57.632812 436.636719 112.707031 436.636719 112.707031 C 436.636719 112.707031 438.554688 139.355469 434.136719 145.6875 C 429.722656 152.019531 455.625 196.34375 455.625 196.34375 L 479.617188 247.582031 L 479.617188 277.917969 L 471.371094 279.242188 L 464.457031 260.25 C 464.457031 260.25 455.625 227.265625 452.386719 217.253906 C 449.148438 207.089844 435.308594 188.097656 422.65625 170.425781 C 409.996094 152.757812 408.671875 154.523438 404.257812 154.523438 C 399.839844 154.523438 377.023438 133.023438 377.023438 133.023438 C 377.023438 133.023438 351.121094 100.039062 333.308594 96.945312 C 315.648438 93.707031 325.652344 126.101562 332.722656 145.101562 C 339.636719 164.09375 362.449219 188.097656 362.449219 188.097656 L 351.410156 191.925781 C 351.410156 191.925781 344.5 180.140625 337.140625 166.152344 C 335.074219 162.179688 332.867188 158.054688 330.804688 153.9375 C 326.539062 145.394531 322.707031 137.144531 320.648438 131.113281 C 314.46875 112.113281 292.832031 103.136719 292.832031 103.136719 L 276.492188 129.785156 C 276.492188 129.785156 294.15625 207.089844 282.820312 200.761719 C 271.488281 194.429688 282.820312 228.589844 282.820312 228.589844 L 320.800781 285.574219 C 320.800781 285.574219 347.441406 317.230469 351.121094 337.554688 C 354.945312 357.875 330.804688 340.054688 330.804688 340.054688 L 297.835938 275.414062 L 271.191406 237.425781 L 254.710938 236.101562 C 254.710938 236.101562 237.046875 210.769531 212.90625 190.453125 C 188.761719 170.132812 186.265625 198.109375 186.265625 198.109375 L 212.90625 257.597656 C 212.90625 257.597656 238.222656 284.25 230.570312 291.757812 C 222.917969 299.417969 250.882812 329.75 250.882812 329.75 L 301.515625 372.742188 L 301.515625 394.246094 C 301.515625 394.246094 296.511719 387.910156 267.367188 371.421875 C 238.222656 354.929688 235.71875 319.441406 225.5625 301.769531 C 215.40625 284.101562 198.921875 268.789062 198.921875 268.789062 C 198.921875 268.789062 186.265625 257.453125 144.460938 243.464844 C 102.65625 229.476562 121.648438 270.113281 121.648438 270.113281 L 140.925781 310.898438 C 94.121094 272.914062 76.460938 289.40625 76.460938 289.40625 L 99.273438 338.734375 L 158.738281 400.722656 L 149.90625 409.554688 L 82.785156 394.394531 C 82.785156 394.394531 34.652344 385.558594 10.660156 389.382812 C -13.328125 393.214844 10.660156 409.707031 10.660156 409.707031 L 46.136719 430.027344 C 33.476562 447.695312 65.121094 456.976562 65.121094 456.976562 C 51.136719 464.921875 75.28125 482.007812 75.28125 482.007812 L 149.90625 465.511719 L 195.535156 468.019531 C 195.535156 468.019531 190.535156 484.507812 184.203125 508.511719 C 177.871094 532.507812 204.515625 519.847656 204.515625 519.847656 L 243.816406 488.925781 C 261.480469 508.65625 276.789062 480.535156 304.609375 464.1875 C 332.425781 447.695312 331.253906 464.1875 331.253906 464.1875 L 294.597656 526.179688 L 297.835938 542.671875 L 306.667969 545.175781 L 288.265625 579.335938 C 288.265625 579.335938 292.097656 594.503906 303.429688 592 C 314.761719 589.5 309.171875 601.570312 309.171875 601.570312 C 309.171875 601.570312 293.269531 662.972656 288.265625 673.722656 C 283.265625 684.472656 294.597656 716.132812 294.597656 716.132812 C 294.597656 716.132812 313.589844 757.949219 323.742188 769.285156 C 333.898438 780.621094 338.3125 764.867188 349.058594 755.296875 C 359.804688 745.726562 355.976562 689.476562 357.890625 678.726562 C 359.804688 667.976562 366.722656 668.570312 366.722656 668.570312 L 383.792969 688.890625 L 417.945312 725.554688 C 417.945312 725.554688 452.828125 747.054688 464.164062 747.789062 C 475.496094 748.527344 472.992188 730.121094 472.992188 730.121094 L 448.414062 682.558594 L 457.097656 682.558594 C 457.097656 682.558594 514.058594 710.386719 532.457031 719.222656 C 550.855469 728.054688 553.949219 700.226562 553.949219 700.226562 L 531.132812 663.558594 L 512.148438 637.648438 L 484.621094 618.648438 C 497.867188 623.066406 473.878906 592.738281 473.878906 592.738281 L 420.003906 553.421875 L 399.839844 522.9375 L 409.996094 516.609375 L 427.070312 528.683594 L 471.371094 573.59375 C 471.371094 573.59375 506.847656 605.839844 518.179688 612.171875 C 529.511719 618.503906 540.996094 605.253906 540.996094 605.253906 L 566.3125 618.503906 L 627.695312 637.5 C 627.695312 637.5 649.183594 630.578125 649.917969 619.828125 C 650.511719 609.078125 617.683594 581.835938 617.683594 581.835938 L 548.648438 531.773438 C 551.15625 521.027344 529.078125 511.457031 527.160156 510.863281 C 525.246094 510.277344 448.121094 480.535156 448.121094 480.535156 C 448.121094 480.535156 415.738281 470.964844 423.390625 461.535156 C 431.042969 451.964844 457.539062 462.863281 457.539062 462.863281 C 457.539062 462.863281 486.089844 480.535156 491.6875 486.273438 C 497.429688 492.015625 529.078125 500.261719 529.078125 500.261719 L 541.144531 509.097656 C 541.144531 509.097656 579.707031 542.078125 591.191406 549.589844 C 602.523438 557.246094 618.421875 546.351562 618.421875 546.351562 C 618.421875 546.351562 666.550781 558.425781 693.78125 560.34375 C 721.011719 562.257812 703.351562 536.339844 703.351562 536.339844 L 609.734375 488.925781 L 603.996094 476.851562 L 555.863281 463.601562 L 546.296875 451.523438 L 496.988281 426.195312 C 496.988281 426.195312 474.757812 421.777344 471.078125 411.621094 C 467.253906 401.457031 519.800781 419.863281 519.800781 419.863281 L 603.996094 466.101562 L 643.886719 483.773438 L 654.625 481.269531 C 654.625 481.269531 693.933594 499.675781 705.265625 502.765625 C 716.597656 505.859375 728.078125 502.765625 728.078125 502.765625 L 723.664062 483.179688 L 667.289062 443.28125 C 667.289062 443.28125 630.640625 417.953125 631.226562 411.027344 C 631.8125 404.109375 612.828125 396.453125 612.828125 396.453125 C 612.828125 396.453125 594.425781 393.214844 590.597656 393.214844 C 586.773438 393.214844 550.121094 384.964844 550.121094 384.964844 C 550.121094 384.964844 534.964844 376.132812 525.398438 369.0625 C 515.828125 362.144531 529.8125 360.820312 541.882812 360.820312 C 553.949219 360.820312 574.851562 374.074219 574.851562 374.074219 L 608.410156 388.648438 C 608.410156 388.648438 629.3125 400.722656 640.058594 407.054688 C 650.804688 413.386719 655.953125 405.136719 655.953125 405.136719 L 697.753906 413.386719 C 697.753906 413.386719 740.734375 410.148438 748.980469 407.644531 C 757.222656 405.136719 753.980469 395.566406 753.980469 395.566406 L 696.140625 363.472656 C 696.140625 363.472656 663.164062 352.128906 651.246094 341.972656 C 639.171875 331.8125 629.019531 325.480469 629.019531 325.480469 L 578.972656 321.648438 L 568.226562 311.492188 L 577.792969 300.15625 L 616.355469 305.746094 "/>
</g>
<path style=" stroke:none;fill-rule:nonzero;fill:rgb(86.268616%,68.238831%,8.628845%);fill-opacity:1;" d="M 570.289062 242.285156 C 563.808594 248.46875 557.335938 254.652344 550.855469 260.691406 C 602.375 270.261719 653.304688 277.476562 705.851562 271.585938 C 708.058594 271.292969 708.5 274.972656 706.292969 275.414062 C 652.71875 286.308594 597.371094 276.59375 544.089844 268.054688 C 543.796875 268.054688 543.496094 267.902344 543.203125 267.761719 C 529.21875 281.011719 515.238281 294.265625 501.253906 307.515625 C 502.28125 306.78125 503.609375 306.632812 504.933594 307.515625 C 526.867188 321.800781 548.355469 334.460938 572.054688 345.800781 C 598.257812 358.316406 624.453125 370.390625 653.597656 373.628906 C 655.804688 373.921875 655.953125 377.160156 653.597656 377.160156 C 625.632812 376.722656 600.023438 365.824219 574.707031 354.78125 C 549.535156 343.59375 520.980469 332.25 500.375 313.40625 C 498.902344 311.933594 499.046875 310.019531 500.074219 308.691406 C 489.769531 318.410156 479.617188 327.984375 469.3125 337.554688 C 461.511719 344.765625 453.566406 351.984375 445.46875 358.90625 C 475.644531 383.789062 514.792969 391.449219 550.5625 405.136719 C 586.183594 418.832031 620.773438 437.832031 651.246094 460.800781 C 653.15625 462.273438 651.390625 465.660156 649.183594 464.1875 C 613.269531 441.070312 575.878906 422.070312 535.257812 408.675781 C 501.253906 397.339844 466.078125 388.941406 437.667969 365.972656 L 437.519531 365.824219 C 418.683594 382.171875 399.546875 398.074219 380.847656 414.710938 C 388.945312 416.332031 398.074219 416.039062 405.726562 417.066406 C 418.089844 418.691406 430.160156 421.929688 441.933594 425.753906 C 464.011719 432.824219 486.683594 440.183594 505.527344 454.03125 C 526.425781 469.492188 545.855469 482.742188 569.699219 493.488281 C 594.871094 504.832031 620.035156 516.3125 645.058594 528.089844 C 646.53125 528.828125 645.503906 531.1875 644.03125 530.597656 C 618.273438 519.992188 592.511719 509.246094 566.902344 498.203125 C 555.128906 493.050781 543.203125 487.898438 532.019531 481.5625 C 520.539062 475.230469 510.527344 466.691406 499.636719 459.328125 C 477.261719 444.308594 447.085938 434.886719 420.890625 429.433594 C 406.019531 426.347656 386.449219 429.433594 373.9375 420.75 C 372.464844 422.070312 370.992188 423.402344 369.523438 424.722656 C 367.3125 426.789062 365.105469 428.847656 362.898438 430.90625 C 422.0625 492.457031 496.835938 535.898438 570.726562 577.417969 C 572.347656 578.304688 570.875 580.808594 569.253906 579.925781 C 493.308594 539.871094 416.617188 499.527344 355.828125 437.535156 C 351.121094 441.949219 346.410156 446.519531 341.84375 451.085938 C 342.433594 451.085938 343.027344 451.378906 343.613281 451.820312 C 364.808594 472.730469 355.539062 508.511719 358.332031 534.867188 C 359.65625 547.96875 363.1875 560.785156 368.335938 572.859375 C 368.488281 572.859375 368.488281 572.859375 368.636719 572.859375 C 389.980469 581.25 414.117188 585.226562 434.574219 595.53125 C 443.261719 599.949219 449.886719 606.726562 456.066406 614.230469 C 462.105469 621.449219 469.019531 628.8125 472.40625 637.5 C 473.285156 640 470.050781 642.359375 467.992188 640.886719 C 449.886719 628.8125 444.734375 607.753906 422.503906 599.949219 C 405.285156 593.914062 388.65625 588.320312 372.167969 580.957031 C 372.316406 581.398438 372.464844 581.691406 372.753906 582.136719 C 379.96875 595.53125 393.359375 605.546875 399.246094 619.242188 C 400.433594 622.035156 398.367188 626.3125 394.832031 624.980469 C 382.769531 620.269531 375.109375 607.3125 368.929688 596.5625 C 364.808594 589.347656 361.128906 581.835938 358.035156 574.039062 C 349.5 579.191406 344.351562 594.058594 341.554688 602.308594 C 338.3125 611.585938 336.253906 621.300781 334.195312 630.871094 C 330.367188 648.097656 327.570312 668.421875 316.234375 682.410156 C 314.175781 684.910156 309.910156 682.265625 310.933594 679.320312 C 314.910156 667.539062 319.914062 656.347656 322.855469 644.273438 C 325.507812 633.375 327.570312 622.332031 330.515625 611.4375 C 334.195312 598.035156 341.257812 573.738281 355.828125 567.410156 C 354.652344 564.023438 353.769531 560.484375 352.882812 556.953125 C 349.058594 541.199219 348.914062 525.589844 349.5 509.542969 C 350.238281 489.664062 348.617188 473.464844 339.785156 455.351562 C 339.492188 454.910156 339.492188 454.46875 339.492188 454.03125 C 320.210938 473.023438 301.515625 492.609375 283.117188 512.628906 C 269.132812 527.796875 255.449219 542.964844 242.050781 558.578125 C 228.953125 573.886719 216.878906 591.558594 201.722656 604.960938 C 196.859375 609.226562 189.648438 603.78125 192.742188 598.035156 C 203.195312 578.453125 220.121094 561.078125 234.691406 544.4375 C 250.296875 526.617188 266.335938 509.097656 283.117188 492.3125 C 298.71875 476.703125 314.910156 461.828125 331.394531 447.253906 C 315.347656 437.097656 297.097656 429.289062 278.40625 423.695312 C 252.203125 436.503906 223.351562 446.222656 194.0625 448.578125 C 176.550781 449.90625 159.324219 447.839844 142.105469 445.78125 C 126.648438 443.867188 110.898438 444.308594 95.738281 441.949219 C 90.585938 441.214844 91.03125 433.117188 95.738281 432.085938 C 109.722656 428.996094 124.734375 432.085938 138.71875 434 C 154.765625 436.210938 170.8125 438.863281 187.003906 438.570312 C 215.257812 437.976562 241.609375 429.433594 268.246094 421.042969 C 263.394531 419.863281 258.535156 418.691406 253.675781 417.804688 C 239.402344 415.152344 225.125 414.121094 210.554688 413.679688 C 199.066406 413.386719 188.476562 412.355469 178.023438 407.203125 C 171.835938 404.109375 176.402344 393.507812 182.730469 396.160156 C 196.421875 401.605469 210.699219 401.019531 224.972656 402.195312 C 211.433594 393.507812 200.539062 378.488281 191.855469 365.679688 C 185.96875 357.140625 180.816406 348.15625 175.964844 339.027344 C 171.398438 330.339844 165.066406 321.0625 163.304688 311.34375 C 162.566406 306.925781 167.867188 302.65625 171.398438 306.632812 C 183.023438 319.734375 188.914062 339.910156 197.894531 355.074219 C 208.488281 372.894531 222.617188 385.851562 235.425781 401.757812 C 235.863281 402.34375 236.164062 402.929688 236.164062 403.523438 C 245.289062 404.703125 254.261719 406.316406 263.09375 408.527344 C 289.886719 415.007812 312.554688 426.347656 334.339844 442.984375 C 334.78125 443.28125 335.074219 443.722656 335.21875 444.160156 C 343.90625 436.503906 352.738281 428.996094 361.570312 421.484375 C 348.765625 416.183594 337.578125 402.785156 328.160156 393.066406 C 317.269531 381.726562 307.253906 369.65625 298.277344 356.84375 C 279.4375 329.453125 264.421875 300.449219 254.5625 268.496094 C 253.382812 264.816406 259.128906 263.34375 260.300781 266.875 C 270.453125 297.796875 285.175781 328.132812 305.636719 353.601562 C 315.203125 365.53125 325.507812 376.867188 336.691406 387.324219 C 346.257812 396.160156 359.21875 403.230469 367.457031 413.386719 C 367.457031 411.914062 369.222656 410.589844 370.84375 411.472656 C 371.28125 411.765625 371.875 412.0625 372.316406 412.355469 C 387.921875 399.25 403.519531 386.296875 419.117188 373.1875 C 417.945312 373.1875 416.617188 372.894531 415.296875 371.863281 C 404.113281 362.585938 396.753906 346.832031 390.273438 334.023438 C 383.648438 321.207031 378.054688 307.8125 373.640625 294.117188 C 368.050781 276.738281 364.371094 258.925781 362.75 240.8125 C 338.613281 225.792969 309.910156 196.636719 306.515625 167.1875 C 306.078125 163.652344 310.933594 163.207031 312.703125 165.566406 C 321.386719 177.789062 326.539062 192.070312 335.667969 204.292969 C 343.316406 214.308594 352.445312 223.4375 362.011719 231.683594 C 361.425781 222.550781 361.425781 213.277344 361.863281 204.144531 C 362.011719 200.460938 367.457031 200.460938 367.601562 204.144531 C 368.050781 233.300781 373.050781 262.015625 382.46875 289.699219 C 382.914062 291.019531 383.355469 292.199219 383.941406 293.527344 C 391.886719 277.476562 397.039062 260.542969 397.777344 242.429688 C 398.660156 222.40625 392.335938 202.820312 393.660156 183.085938 C 393.808594 180.441406 397.925781 178.523438 399.246094 181.613281 C 407.492188 200.90625 408.523438 226.675781 406.464844 247.4375 C 404.550781 267.460938 398.074219 286.308594 387.621094 303.242188 C 391.453125 312.671875 395.867188 321.800781 400.71875 330.632812 C 407.492188 342.707031 417.503906 353.457031 423.242188 365.824219 C 423.832031 367.152344 423.976562 368.328125 423.683594 369.363281 C 442.082031 353.75 460.480469 337.996094 478.144531 321.507812 C 488.890625 311.492188 499.488281 301.476562 510.234375 291.613281 C 503.019531 290.140625 499.78125 283.363281 497.28125 276.296875 C 492.277344 261.570312 489.476562 245.671875 486.242188 230.503906 C 479.46875 199.289062 475.050781 167.625 471.230469 135.824219 C 470.785156 132.433594 476.523438 131.699219 477.117188 135.085938 C 481.382812 161.148438 486.828125 187.066406 492.570312 212.835938 C 497.722656 235.953125 500.375 266.136719 515.53125 284.695312 C 515.828125 285.132812 516.121094 285.574219 516.265625 286.015625 C 533.636719 269.667969 551.003906 253.472656 568.375 237.132812 C 557.480469 220.339844 558.953125 196.046875 556.742188 177.050781 C 554.242188 154.671875 547.769531 129.785156 552.476562 107.550781 C 553.0625 105.042969 557.1875 105.636719 556.894531 108.140625 C 554.683594 128.3125 560.574219 151.285156 563.667969 172.484375 C 566.167969 190.15625 565.726562 213.714844 575.734375 229.324219 C 576.472656 228.738281 577.058594 228.003906 577.792969 227.410156 C 595.457031 210.917969 612.828125 194.136719 630.488281 177.640625 C 629.3125 177.195312 628.132812 176.167969 627.988281 174.25 C 623.867188 143.035156 637.261719 113.878906 645.058594 84.429688 C 645.652344 82.222656 649.039062 83.105469 648.59375 85.464844 C 642.558594 114.472656 629.902344 143.183594 635.347656 173.222656 C 650.210938 159.527344 665.230469 145.980469 680.828125 133.023438 C 681.859375 132.140625 683.1875 133.464844 682.300781 134.496094 C 659.636719 158.648438 635.492188 181.46875 611.207031 204.144531 C 626.074219 209.449219 644.914062 204 659.929688 202.234375 C 678.621094 200.027344 694.8125 197.222656 710.558594 186.039062 C 711.886719 185.152344 713.359375 187.210938 712.179688 188.246094 C 695.992188 202.085938 678.914062 205.472656 658.308594 208.417969 C 642.707031 210.625 620.921875 217.398438 606.054688 209.003906 C 596.484375 217.988281 586.917969 226.96875 577.351562 235.953125 C 576.914062 236.6875 576.179688 237.425781 575.441406 237.867188 C 573.671875 239.191406 571.90625 240.664062 570.289062 242.285156 "/>
</g>
</svg>
