<?xml version="1.0" encoding="UTF-8"?>
<svg xmlns="http://www.w3.org/2000/svg" xmlns:xlink="http://www.w3.org/1999/xlink" width="810pt" height="809.999993pt" viewBox="0 0 810 809.999993" version="1.2">
<defs>
<clipPath id="clip1">
  <path d="M 126 0 L 689.734375 0 L 689.734375 810 L 126 810 Z M 126 0 "/>
</clipPath>
</defs>
<g id="surface1">
<g clip-path="url(#clip1)" clip-rule="nonzero">
<path style=" stroke:none;fill-rule:nonzero;fill:rgb(23.919678%,49.01886%,52.159119%);fill-opacity:1;" d="M 228.90625 809.632812 L 236.027344 772.90625 C 236.027344 772.90625 197.527344 737.199219 171.378906 689.296875 C 145.230469 641.394531 130.703125 571.859375 130.703125 571.859375 C 130.703125 571.859375 120.535156 537.894531 130.117188 491.734375 C 139.707031 445.71875 157.429688 378.21875 157.429688 378.21875 C 157.429688 378.21875 172.539062 409.71875 170.070312 433.378906 C 167.601562 457.042969 175.589844 525.121094 188.664062 544.136719 C 201.738281 563.007812 238.785156 613.230469 237.042969 631.664062 C 235.300781 650.105469 246.484375 713.679688 246.484375 713.679688 C 246.484375 713.679688 262.175781 648.070312 269.582031 636.167969 C 269.582031 636.167969 248.226562 583.332031 237.332031 544.570312 C 226.4375 505.8125 211.035156 419.003906 224.984375 381.847656 C 238.785156 344.683594 273.214844 300.121094 272.488281 266.734375 C 271.761719 233.347656 275.390625 221.15625 275.390625 221.15625 C 275.390625 221.15625 277.859375 256.574219 287.160156 275.296875 C 296.457031 294.027344 303.429688 334.523438 297.183594 356.007812 C 291.082031 377.492188 299.652344 464.730469 299.652344 464.730469 C 299.652344 464.730469 301.105469 576.214844 296.316406 591.167969 L 351.660156 487.089844 C 351.660156 487.089844 334.085938 434.542969 337.570312 395.636719 C 341.054688 356.734375 334.953125 288.796875 334.953125 288.796875 C 334.953125 288.796875 326.527344 226.378906 350.207031 185.882812 C 373.742188 145.527344 443.910156 62.347656 443.910156 62.347656 C 443.910156 62.347656 439.550781 100.238281 423.71875 124.914062 C 407.878906 149.59375 380.425781 205.914062 379.988281 240.167969 C 379.699219 274.429688 377.808594 361.960938 377.808594 361.960938 L 382.316406 424.234375 L 419.359375 293.300781 C 454.078125 179.351562 478.484375 127.816406 495.480469 102.851562 C 500.277344 95.734375 522.214844 64.816406 540.226562 18.660156 C 543.132812 11.105469 545.460938 4.722656 546.910156 0.367188 C 546.617188 28.09375 541.679688 66.414062 533.980469 111.992188 C 529.332031 139.285156 505.507812 199.671875 499.550781 217.378906 C 493.59375 235.089844 436.066406 359.058594 436.066406 359.058594 L 549.816406 235.816406 C 549.816406 235.816406 630.445312 152.347656 627.390625 142.625 C 627.390625 142.625 613.589844 208.382812 598.625 234.074219 C 583.660156 259.765625 585.839844 270.363281 552.136719 303.460938 C 518.582031 336.558594 439.410156 411.457031 439.410156 411.457031 L 391.175781 464.589844 L 378.824219 493.332031 C 378.824219 493.332031 403.234375 470.105469 444.058594 428.878906 C 484.875 387.945312 587.292969 306.800781 606.90625 284.300781 C 626.515625 261.800781 656.296875 212.152344 656.296875 212.152344 C 656.296875 212.152344 646.566406 262.234375 640.316406 277.476562 C 634.074219 292.714844 616.496094 345.699219 589.332031 373.136719 C 562.164062 400.570312 484.585938 466.910156 445.652344 494.058594 C 406.722656 521.203125 358.636719 541.8125 345.558594 553.277344 C 332.484375 564.75 303.140625 619.183594 303.140625 619.183594 C 303.140625 619.183594 343.527344 583.621094 379.410156 561.261719 C 415.144531 538.761719 474.566406 518.875 503.328125 502.621094 C 532.089844 486.363281 611.558594 452.25 632.039062 421.765625 C 632.039062 421.765625 583.660156 484.039062 549.960938 519.023438 C 516.257812 554.003906 440.566406 632.976562 393.210938 644.152344 C 345.707031 655.328125 299.511719 663.894531 292.824219 678.699219 C 281.203125 711.363281 269.4375 743.875 257.816406 776.535156 C 266.097656 768.261719 278.585938 756.359375 293.839844 742.132812 C 313.601562 723.839844 330.453125 708.167969 343.527344 698.007812 C 388.417969 663.023438 413.113281 673.332031 466.714844 642.550781 C 505.507812 620.347656 492.867188 613.957031 532.089844 590.589844 C 574.21875 565.476562 597.171875 566.492188 638.867188 539.785156 C 662.546875 524.683594 679.398438 508.863281 690.007812 497.976562 C 687.828125 510.027344 683.175781 527.445312 672.136719 545.441406 C 652.085938 578.101562 623.613281 591.019531 600.226562 604.957031 C 520.761719 652.570312 535.722656 669.703125 450.59375 721.234375 C 442.605469 726.019531 406.429688 747.652344 355.003906 769.277344 C 306.625 789.164062 263.480469 801.648438 228.90625 809.632812 "/>
</g>
<path style=" stroke:none;fill-rule:nonzero;fill:rgb(96.078491%,82.749939%,78.42865%);fill-opacity:1;" d="M 348.902344 348.75 C 353.113281 352.089844 359.796875 352.957031 364.59375 350.054688 C 372.289062 345.410156 370.984375 333.359375 368.515625 327.125 C 367.5 324.652344 365.609375 319.867188 360.960938 318.414062 C 355.441406 316.667969 350.207031 320.882812 349.769531 321.316406 C 342.507812 327.414062 340.914062 342.367188 348.902344 348.75 Z M 346.433594 237.554688 C 350.066406 241.769531 357.621094 243.507812 362.992188 240.167969 C 369.96875 235.960938 368.65625 226.378906 368.367188 224.058594 C 368.078125 222.023438 367.203125 214.625 361.828125 212.589844 C 357.472656 210.847656 353.113281 213.605469 352.386719 214.039062 C 345.269531 218.394531 340.625 230.734375 346.433594 237.554688 Z M 383.480469 166.285156 C 385.949219 167.449219 391.902344 159.464844 394.804688 154.089844 C 396.117188 151.621094 399.023438 146.253906 397.421875 144.800781 C 395.828125 143.347656 389.722656 145.964844 386.238281 150.316406 C 381.441406 156.125 381.152344 165.269531 383.480469 166.285156 Z M 460.617188 226.238281 C 461.925781 230.296875 465.699219 234.652344 470.644531 234.949219 C 478.046875 235.378906 482.117188 226.816406 482.554688 225.652344 C 485.171875 219.996094 485.3125 211.136719 480.375 208.09375 C 476.308594 205.621094 470.785156 208.234375 469.621094 208.820312 C 464.105469 211.574219 458.4375 218.980469 460.617188 226.238281 Z M 485.75 162.074219 C 487.351562 166.574219 492.574219 170.203125 497.660156 169.332031 C 504.054688 168.316406 508.121094 160.480469 506.234375 154.089844 C 504.925781 149.445312 500.425781 145.816406 495.042969 145.089844 C 487.203125 148.28125 483.570312 156.265625 485.75 162.074219 Z M 510.15625 102.269531 C 511.023438 105.460938 514.367188 107.636719 517.421875 107.496094 C 522.648438 107.207031 526.574219 99.949219 524.246094 95.734375 C 522.792969 93.269531 519.308594 92.105469 516.40625 92.832031 C 512.335938 93.707031 508.992188 98.203125 510.15625 102.269531 Z M 477.324219 328.863281 C 471.371094 332.636719 468.316406 342.21875 471.949219 347.007812 C 474.128906 349.914062 478.195312 350.347656 481.539062 350.640625 C 482.992188 350.78125 491.125 351.363281 497.949219 345.558594 C 499.550781 344.25 506.085938 338.738281 504.78125 333.796875 C 503.035156 327.703125 490.542969 327.125 488.074219 326.976562 C 484.148438 326.828125 480.664062 326.6875 477.324219 328.863281 Z M 530.785156 272.253906 C 524.683594 276.316406 521.195312 285.457031 524.246094 290.109375 C 528.027344 295.621094 541.101562 294.460938 547.492188 287.785156 C 550.6875 284.445312 553.738281 278.347656 551.269531 274.140625 C 549.234375 270.800781 544.585938 270.214844 542.117188 269.925781 C 540.804688 269.636719 535.578125 269.058594 530.785156 272.253906 Z M 580.324219 221.445312 C 576.257812 223.039062 572.335938 227.832031 573.789062 232.042969 C 574.945312 235.527344 579.160156 237.265625 582.503906 236.828125 C 588.894531 236.25 593.832031 227.6875 591.511719 223.625 C 590.058594 220.574219 584.386719 219.847656 580.324219 221.445312 Z M 452.625 440.054688 C 447.832031 442.667969 444.199219 444.554688 442.605469 448.910156 C 441.152344 452.828125 441.441406 458.199219 444.785156 461.828125 C 448.703125 466.183594 454.804688 465.605469 457.421875 465.316406 C 465.261719 464.589844 476.886719 459.070312 476.886719 449.925781 C 476.742188 443.683594 471.371094 437.585938 465.261719 436.425781 C 460.90625 435.558594 457.570312 437.445312 452.625 440.054688 Z M 515.382812 382.425781 C 511.460938 388.234375 511.460938 397.230469 516.40625 401.734375 C 522.792969 407.6875 533.835938 403.332031 539.351562 398.394531 C 540.226562 397.527344 547.78125 390.847656 545.460938 383.734375 C 543.132812 376.332031 532.382812 375.457031 531.363281 375.457031 C 530.058594 375.316406 520.46875 374.878906 515.382812 382.425781 Z M 593.832031 316.527344 C 594.992188 320.445312 602.257812 322.769531 606.90625 319.867188 C 612.285156 316.667969 612.714844 307.816406 609.519531 305.351562 C 607.199219 303.601562 603.273438 305.351562 601.96875 305.929688 C 597.757812 307.816406 592.527344 312.609375 593.832031 316.527344 Z M 362.703125 612.941406 C 365.320312 619.328125 381.300781 621.796875 389.867188 614.394531 C 394.804688 610.039062 398.4375 601.476562 394.804688 596.394531 C 390.59375 590.441406 379.261719 593.492188 378.683594 593.632812 C 368.804688 596.25 360.234375 606.847656 362.703125 612.941406 Z M 443.472656 567.941406 C 446.378906 573.601562 456.695312 574.910156 463.085938 570.554688 C 468.027344 567.070312 471.949219 559.234375 468.167969 553.425781 C 465.410156 549.21875 459.3125 547.332031 453.351562 549.359375 C 444.058594 553.425781 440.714844 562.714844 443.472656 567.941406 Z M 515.820312 517.574219 C 517.710938 521.054688 522.941406 522.214844 526.863281 520.914062 C 532.382812 519.023438 536.015625 511.617188 533.253906 507.121094 C 531.222656 503.925781 526.425781 503.058594 522.792969 504.21875 C 517.273438 505.960938 513.203125 513.070312 515.820312 517.574219 Z M 418.050781 686.683594 C 415.730469 686.683594 404.105469 686.824219 396.40625 696.410156 C 391.03125 703.089844 387.398438 714.84375 392.195312 719.921875 C 398.007812 726.167969 413.402344 719.78125 421.101562 714.84375 C 426.914062 711.070312 438.824219 701.488281 436.355469 694.082031 C 433.597656 686.972656 418.921875 686.683594 418.050781 686.683594 Z M 490.542969 644.585938 C 489.671875 646.476562 485.898438 655.039062 489.527344 659.246094 C 494.175781 664.621094 508.992188 660.84375 516.984375 652.425781 C 518 651.261719 526.277344 642.699219 522.792969 635.730469 C 519.890625 629.925781 510.15625 630.359375 509.28125 630.359375 C 500.128906 630.796875 493.449219 638.199219 490.542969 644.585938 Z M 588.316406 584.636719 C 589.472656 590.152344 598.484375 593.199219 605.164062 591.316406 C 609.378906 590.152344 615.480469 586.375 615.332031 580.859375 C 615.191406 575.636719 609.519531 570.265625 601.820312 570.265625 C 592.378906 572.445312 587.152344 579.703125 588.316406 584.636719 Z M 254.328125 543.414062 C 258.976562 551.394531 271.324219 552.410156 278.882812 547.472656 C 288.175781 541.375 290.355469 526.28125 283.382812 519.75 C 277.429688 514.234375 266.535156 516.121094 259.996094 521.636719 C 254.328125 526.570312 249.96875 536.15625 254.328125 543.414062 Z M 262.027344 412.910156 C 254.910156 412.183594 247.9375 419.003906 245.175781 425.832031 C 242.5625 432.21875 242.269531 442.230469 248.804688 447.75 C 256.796875 454.429688 270.597656 451.089844 275.679688 443.105469 C 282.367188 432.21875 272.921875 413.925781 262.027344 412.910156 Z M 255.054688 351.21875 C 255.34375 356.882812 263.042969 361.527344 269.4375 360.511719 C 277.570312 359.199219 283.09375 349.039062 280.335938 343.816406 C 277.859375 339.167969 269.144531 338.589844 263.332031 341.203125 C 262.902344 341.34375 254.765625 345.121094 255.054688 351.21875 Z M 191.28125 670.28125 C 184.597656 677.25 188.085938 692.78125 197.527344 699.890625 C 207.113281 707.148438 223.242188 705.992188 228.035156 697.570312 C 232.394531 689.875 226 678.410156 218.59375 672.746094 C 210.894531 666.796875 197.527344 663.746094 191.28125 670.28125 Z M 154.671875 607.425781 C 158.734375 616.71875 170.359375 624.554688 178.207031 621.074219 C 186.339844 617.445312 187.210938 603.359375 183.871094 594.070312 C 180.675781 585.359375 171.519531 575.925781 163.820312 577.667969 C 155.105469 579.703125 149.589844 595.8125 154.671875 607.425781 Z M 143.050781 508.863281 C 143.917969 503.492188 147.550781 496.667969 151.769531 496.667969 C 156.414062 496.667969 160.914062 505.085938 160.1875 512.34375 C 159.609375 519.3125 154.089844 526.425781 149.589844 525.84375 C 145.082031 525.410156 141.886719 516.121094 143.050781 508.863281 "/>
<path style=" stroke:none;fill-rule:nonzero;fill:rgb(81.959534%,90.589905%,83.918762%);fill-opacity:1;" d="M 600.367188 193.867188 C 599.351562 195.316406 597.898438 197.347656 597.609375 199.234375 C 597.320312 199.960938 597.171875 200.398438 597.460938 201.125 C 597.757812 201.851562 598.484375 201.992188 599.210938 201.992188 C 601.96875 201.703125 603.273438 198.074219 604.4375 195.894531 C 605.601562 193.429688 601.820312 191.832031 600.367188 193.867188 Z M 559.691406 248.152344 C 557.808594 248.589844 556.355469 251.492188 555.917969 253.234375 C 555.628906 254.542969 557.222656 256.136719 558.386719 254.832031 C 559.839844 253.382812 561.4375 250.621094 560.714844 248.589844 C 560.714844 248.152344 560.128906 248.011719 559.691406 248.152344 Z M 574.078125 255.996094 C 574.21875 254.6875 572.914062 253.523438 571.609375 253.816406 C 570.15625 254.25 569.28125 255.269531 568.265625 256.425781 C 567.25 257.445312 566.375 258.460938 565.503906 259.625 C 564.34375 261.21875 566.375 263.105469 567.976562 262.378906 C 569.28125 261.800781 570.585938 260.78125 571.609375 259.765625 C 572.765625 258.75 573.929688 257.734375 574.078125 255.996094 Z M 499.839844 300.269531 C 499.699219 299.832031 499.113281 299.542969 498.824219 299.972656 C 498.097656 300.558594 497.949219 301.425781 497.660156 302.152344 C 497.222656 303.171875 496.933594 304.1875 496.496094 305.203125 C 496.066406 306.507812 498.246094 307.234375 498.675781 305.929688 C 498.972656 304.914062 499.261719 303.898438 499.550781 302.734375 C 499.699219 301.863281 500.128906 301.136719 499.839844 300.269531 Z M 510.734375 303.3125 C 508.84375 304.328125 507.976562 306.941406 506.960938 308.832031 C 506.085938 310.429688 508.414062 311.882812 509.28125 310.28125 C 510.296875 308.394531 512.1875 306.21875 512.046875 303.898438 C 511.898438 303.3125 511.171875 303.171875 510.734375 303.3125 Z M 517.421875 316.960938 C 516.695312 318.265625 517.710938 319.867188 519.164062 319.570312 C 521.050781 319.28125 522.792969 317.394531 523.957031 315.941406 C 524.824219 314.925781 526.863281 312.609375 525.550781 311.296875 C 524.246094 309.847656 522.648438 311.882812 521.632812 312.898438 C 520.90625 313.621094 520.324219 314.203125 519.597656 314.785156 C 519.015625 315.363281 518 315.941406 517.421875 316.960938 Z M 632.476562 273.265625 C 630.585938 273.121094 629.421875 274.570312 628.117188 275.734375 C 626.664062 277.042969 625.648438 278.496094 624.484375 279.945312 C 622.742188 282.265625 626.226562 285.167969 628.265625 283.140625 C 629.570312 281.828125 630.875 280.523438 632.039062 279.074219 C 633.054688 277.621094 634.21875 276.460938 633.929688 274.570312 C 633.78125 273.84375 633.054688 273.414062 632.476562 273.265625 Z M 553.589844 347.300781 C 552.285156 348.171875 551.558594 349.914062 550.6875 351.21875 C 549.667969 352.816406 548.652344 354.269531 547.636719 355.859375 C 546.910156 357.171875 548.796875 358.332031 549.523438 357.171875 C 550.542969 355.570312 551.558594 354.121094 552.574219 352.527344 C 553.449219 351.21875 554.753906 349.765625 555.042969 348.171875 C 555.191406 347.589844 554.175781 346.863281 553.589844 347.300781 Z M 564.921875 355.429688 C 565.070312 354.558594 563.90625 353.832031 563.179688 354.269531 C 562.308594 354.847656 561.871094 355.136719 561.292969 356.007812 C 560.714844 356.734375 560.277344 357.609375 559.988281 358.476562 C 559.402344 359.925781 561.4375 361.238281 562.597656 360.074219 C 563.324219 359.347656 563.761719 358.621094 564.34375 357.898438 C 564.777344 357.023438 564.777344 356.445312 564.921875 355.429688 Z M 574.21875 360.363281 C 572.765625 360.652344 571.609375 361.527344 570.445312 362.394531 C 569.132812 363.265625 567.828125 364.28125 566.375 365.15625 C 565.214844 366.023438 566.664062 368.058594 567.828125 367.332031 C 569.28125 366.457031 570.585938 365.589844 572.039062 364.71875 C 573.351562 363.992188 574.515625 363.265625 575.382812 361.960938 C 575.964844 361.238281 575.09375 360.214844 574.21875 360.363281 Z M 483.859375 410.445312 C 481.679688 410.296875 480.515625 413.058594 480.515625 414.945312 C 480.375 416.539062 482.84375 416.6875 482.992188 415.085938 C 483.132812 413.636719 484.296875 412.910156 484.734375 411.605469 C 484.875 411.167969 484.445312 410.589844 483.859375 410.445312 Z M 495.628906 412.910156 C 495.480469 412.621094 495.339844 412.472656 495.042969 412.332031 C 494.613281 412.042969 493.886719 412.042969 493.59375 412.183594 C 492.285156 412.910156 491.269531 413.925781 490.109375 414.796875 C 488.507812 416.101562 490.6875 418.574219 492.285156 417.265625 C 493.300781 416.398438 494.316406 415.671875 495.339844 414.652344 C 495.769531 414.21875 495.917969 413.636719 495.628906 412.910156 Z M 508.121094 422.492188 C 508.414062 421.476562 507.539062 420.316406 506.378906 420.605469 C 504.488281 421.042969 503.183594 422.632812 501.730469 423.796875 C 500.277344 425.105469 498.675781 426.410156 497.371094 428.011719 C 495.917969 429.75 498.675781 431.492188 500.128906 430.328125 C 501.730469 429.167969 503.183594 427.714844 504.636719 426.410156 C 505.941406 425.394531 507.539062 424.085938 508.121094 422.492188 Z M 404.394531 565.914062 C 403.089844 567.070312 401.925781 568.519531 400.910156 570.121094 C 399.75 572.007812 402.652344 573.894531 403.816406 572.007812 C 404.832031 570.410156 405.996094 569.105469 407.449219 567.941406 C 408.464844 567.214844 410.496094 565.476562 408.753906 564.164062 C 407.449219 563.152344 405.410156 565.039062 404.394531 565.914062 Z M 421.25 574.761719 C 420.664062 573.601562 419.070312 573.601562 418.34375 574.621094 C 417.617188 575.636719 417.324219 576.652344 416.746094 577.667969 C 416.164062 578.683594 415.4375 579.554688 414.566406 580.28125 C 412.824219 581.730469 414.855469 584.199219 416.746094 583.332031 C 419.9375 582.167969 422.84375 578.25 421.25 574.761719 Z M 429.964844 591.746094 C 426.765625 593.054688 424.585938 596.972656 422.554688 599.589844 C 421.390625 601.179688 423.71875 603.070312 425.171875 601.765625 C 427.640625 599.441406 431.125 596.683594 432 593.34375 C 432.433594 592.183594 431.125 591.167969 429.964844 591.746094 Z M 483.71875 528.894531 C 481.390625 527.734375 479.066406 530.636719 478.195312 532.523438 C 477.324219 534.703125 480.664062 535.71875 481.539062 533.683594 C 482.117188 532.378906 483.570312 532.089844 484.296875 530.925781 C 485.023438 530.054688 484.445312 529.183594 483.71875 528.894531 Z M 494.902344 531.074219 C 494.902344 530.054688 493.886719 529.476562 493.011719 530.199219 C 491.996094 530.925781 491.269531 531.800781 490.398438 532.523438 C 489.382812 533.25 488.367188 533.976562 487.351562 534.703125 C 485.75 535.859375 487.203125 538.910156 489.234375 538.332031 C 491.996094 537.3125 495.191406 534.40625 494.902344 531.074219 Z M 499.839844 541.8125 C 498.097656 541.234375 496.496094 542.390625 495.339844 543.554688 C 493.886719 544.863281 492.433594 546.167969 490.980469 547.332031 C 488.945312 549.070312 491.558594 551.828125 493.738281 550.375 C 495.339844 549.21875 496.933594 548.199219 498.535156 547.042969 C 499.839844 546.019531 501.152344 544.863281 501.003906 542.976562 C 500.855469 542.390625 500.425781 541.960938 499.839844 541.8125 Z M 562.746094 484.1875 C 561.003906 485.054688 559.988281 487.089844 558.675781 488.539062 C 557.222656 490.132812 555.769531 491.734375 554.175781 493.183594 C 552.574219 494.636719 554.464844 497.6875 556.496094 496.378906 C 558.675781 495.074219 560.714844 493.472656 562.164062 491.296875 C 563.472656 489.410156 564.921875 487.230469 564.488281 484.910156 C 564.050781 484.328125 563.324219 483.898438 562.746094 484.1875 Z M 644.535156 548.054688 C 642.644531 548.78125 641.480469 550.523438 640.175781 552.121094 C 638.867188 553.714844 637.414062 555.457031 636.398438 557.34375 C 635.527344 558.941406 637.414062 560.683594 638.867188 559.523438 C 640.613281 558.21875 641.917969 556.617188 643.371094 554.878906 C 644.675781 553.425781 646.277344 551.972656 646.714844 549.945312 C 647.003906 548.632812 645.839844 547.621094 644.535156 548.054688 Z M 570.882812 605.394531 C 569.859375 605.394531 569.132812 605.972656 568.265625 606.410156 C 567.25 606.988281 566.230469 607.28125 565.214844 607.28125 C 563.617188 607.425781 563.324219 609.75 565.070312 609.890625 C 567.539062 610.1875 571.609375 609.601562 572.039062 606.558594 C 572.039062 605.972656 571.460938 605.394531 570.882812 605.394531 Z M 558.097656 600.457031 C 556.785156 601.179688 555.628906 602.203125 554.464844 603.070312 C 552.722656 604.519531 555.042969 607.136719 556.933594 605.683594 C 557.949219 604.808594 559.113281 604.085938 559.988281 603.070312 C 561.292969 601.90625 559.988281 599.441406 558.097656 600.457031 Z M 549.378906 592.910156 C 547.492188 592.765625 546.328125 594.796875 545.3125 596.25 C 544.007812 597.847656 542.695312 599.441406 541.96875 601.328125 C 541.101562 603.507812 544.296875 605.683594 545.890625 603.941406 C 547.34375 602.492188 548.21875 600.601562 549.089844 598.863281 C 549.816406 597.261719 551.269531 595.523438 550.394531 593.78125 C 550.25 593.199219 549.816406 592.910156 549.378906 592.910156 Z M 472.097656 683.054688 C 469.917969 684.070312 468.167969 685.667969 466.285156 687.121094 C 464.832031 688.277344 466.714844 690.453125 468.167969 689.296875 C 470.058594 687.847656 471.949219 686.394531 473.402344 684.507812 C 474.128906 683.632812 472.964844 682.765625 472.097656 683.054688 Z M 453.5 682.617188 C 452.484375 684.507812 455.09375 686.394531 456.40625 684.507812 C 457.132812 683.34375 458 682.328125 459.019531 681.457031 C 459.890625 680.589844 461.054688 679.863281 461.054688 678.554688 C 461.054688 678.265625 460.90625 677.828125 460.617188 677.539062 C 457.710938 675.9375 454.664062 680.441406 453.5 682.617188 Z M 453.351562 670.28125 C 453.9375 669.40625 454.078125 668.679688 454.367188 667.664062 C 454.664062 666.796875 453.640625 666.214844 452.914062 666.796875 C 452.1875 667.523438 451.460938 667.957031 450.882812 668.828125 C 450.304688 669.703125 449.867188 670.570312 449.285156 671.441406 C 448.414062 672.894531 450.445312 674.054688 451.320312 672.746094 C 452.1875 672.019531 452.773438 671.152344 453.351562 670.28125 Z M 371.128906 742.570312 C 369.382812 743.148438 367.640625 743.875 365.75 744.457031 C 364.007812 745.039062 364.59375 747.941406 366.335938 747.363281 C 368.226562 746.777344 370.109375 746.050781 372 745.472656 C 373.597656 745.039062 375.050781 744.890625 375.632812 743.296875 C 375.777344 742.859375 375.632812 742.28125 375.195312 742.132812 C 373.890625 741.261719 372.582031 741.988281 371.128906 742.570312 Z M 365.023438 726.890625 C 365.171875 726.3125 364.882812 725.589844 364.296875 725.441406 C 362.992188 725.152344 361.976562 725.589844 360.8125 726.019531 C 359.507812 726.457031 358.199219 726.890625 356.894531 727.328125 C 355.152344 727.765625 355.152344 730.808594 357.183594 730.808594 C 359.796875 730.667969 364.296875 729.796875 365.023438 726.890625 Z M 358.488281 713.976562 C 358.925781 712.953125 357.910156 712.085938 356.894531 712.230469 C 354.277344 712.664062 352.675781 714.992188 350.933594 716.730469 C 349.769531 717.894531 351.082031 720.070312 352.675781 719.199219 C 354.714844 717.746094 357.472656 716.582031 358.488281 713.976562 Z M 207.699219 638.054688 C 208.128906 639.648438 210.601562 639.21875 210.308594 637.472656 C 209.878906 635.003906 209.441406 632.539062 208.855469 630.070312 C 208.425781 628.035156 208.277344 626.007812 206.972656 624.265625 C 206.535156 623.679688 205.519531 623.976562 205.222656 624.554688 C 204.644531 626.585938 205.371094 628.621094 205.808594 630.648438 C 206.535156 633.117188 207.113281 635.589844 207.699219 638.054688 Z M 188.953125 638.199219 C 187.789062 639.21875 188.375 640.8125 188.515625 642.261719 C 188.664062 644.296875 188.953125 646.179688 189.101562 648.214844 C 189.242188 649.957031 191.859375 649.378906 191.71875 647.632812 C 191.570312 645.75 191.421875 643.863281 191.28125 641.972656 C 191.132812 640.523438 191.421875 638.921875 190.117188 638.054688 C 189.539062 637.90625 189.242188 637.90625 188.953125 638.199219 Z M 173.699219 643.863281 C 173.261719 646.476562 175.152344 650.105469 176.316406 652.425781 C 177.191406 654.3125 180.386719 653.296875 179.800781 651.121094 C 178.933594 648.359375 178.207031 644.585938 175.878906 642.699219 C 175.011719 641.972656 173.847656 642.847656 173.699219 643.863281 Z M 158.734375 550.523438 C 158.445312 553.136719 159.460938 555.894531 160.046875 558.359375 C 160.773438 560.972656 164.546875 560.105469 164.117188 557.492188 C 163.679688 555.023438 163.53125 551.972656 162.226562 549.796875 C 161.351562 548.199219 159.03125 548.78125 158.734375 550.523438 Z M 144.792969 556.765625 C 143.917969 557.78125 144.207031 559.234375 144.355469 560.394531 C 144.503906 561.847656 144.644531 563.296875 144.644531 564.75 C 144.792969 566.492188 147.839844 566.203125 147.699219 564.460938 C 147.699219 563.007812 147.550781 561.558594 147.550781 560.105469 C 147.410156 558.941406 147.550781 557.34375 146.535156 556.476562 C 145.957031 556.039062 145.230469 556.183594 144.792969 556.765625 Z M 160.1875 454.28125 C 158.882812 455.441406 158.445312 456.894531 157.867188 458.492188 C 157.285156 460.234375 156.703125 461.828125 155.976562 463.574219 C 155.25 465.75 158.59375 466.910156 159.320312 464.730469 C 159.898438 462.992188 160.625 461.398438 161.210938 459.652344 C 161.789062 458.058594 162.367188 456.746094 162.078125 455.007812 C 162.226562 453.84375 160.914062 453.554688 160.1875 454.28125 Z M 144.207031 462.410156 C 142.464844 464.152344 142.464844 467.492188 142.324219 469.8125 C 142.175781 472.714844 146.246094 472.863281 146.824219 470.105469 C 147.261719 468.070312 147.839844 464.878906 146.683594 462.847656 C 146.097656 462.121094 144.933594 461.6875 144.207031 462.410156 Z M 373.308594 195.894531 C 374.179688 194.734375 375.050781 193.71875 375.921875 192.554688 C 376.648438 191.542969 377.808594 190.527344 378.097656 189.222656 C 378.246094 188.203125 377.371094 187.332031 376.503906 187.769531 C 375.339844 188.347656 374.46875 189.652344 373.742188 190.671875 C 372.871094 191.832031 372 192.992188 370.984375 194.15625 C 369.820312 195.894531 372.289062 197.347656 373.308594 195.894531 Z M 364.445312 193.140625 C 365.171875 191.6875 365.898438 190.378906 366.335938 188.925781 C 366.773438 187.621094 367.5 186.171875 367.0625 184.867188 C 366.773438 183.992188 365.898438 183.703125 365.171875 184.28125 C 364.007812 185.007812 363.71875 186.75 363.28125 187.910156 C 362.703125 189.363281 362.554688 190.816406 362.265625 192.414062 C 361.976562 193.867188 363.867188 194.445312 364.445312 193.140625 Z M 518.148438 125.492188 C 518.289062 124.914062 517.855469 124.042969 517.128906 124.042969 C 515.382812 124.1875 514.367188 124.914062 513.0625 125.929688 C 511.609375 126.945312 510.15625 128.105469 508.84375 129.410156 C 507.394531 130.574219 509.140625 133.1875 510.734375 132.171875 C 512.1875 131.15625 513.640625 130.136719 515.09375 129.121094 C 516.40625 127.960938 517.5625 127.234375 518.148438 125.492188 Z M 502.308594 125.640625 C 502.019531 124.914062 501.878906 124.042969 502.019531 123.175781 C 502.308594 122.449219 502.746094 121.863281 502.746094 121.136719 C 502.894531 120.414062 502.308594 119.546875 501.441406 119.6875 C 501.003906 119.546875 500.425781 119.6875 499.988281 120.125 C 497.660156 122.011719 497.949219 125.78125 500.277344 127.382812 C 501.441406 128.253906 502.894531 126.945312 502.308594 125.640625 Z M 487.492188 195.753906 C 489.527344 193.578125 492.140625 191.398438 493.300781 188.636719 C 493.59375 187.910156 492.722656 187.1875 491.996094 187.621094 C 489.382812 188.925781 487.492188 191.6875 485.601562 193.71875 C 484.445312 194.878906 486.328125 197.058594 487.492188 195.753906 Z M 480.085938 191.6875 C 479.789062 189.949219 479.648438 187.769531 478.484375 186.171875 C 477.90625 185.445312 476.597656 185.734375 476.453125 186.609375 C 476.015625 188.347656 476.742188 190.527344 477.179688 192.265625 C 477.613281 194.300781 480.515625 193.578125 480.085938 191.6875 Z M 454.078125 280.089844 C 453.789062 279.800781 453.210938 279.511719 452.914062 279.652344 C 450.882812 280.378906 450.734375 282.554688 450.15625 284.300781 C 449.71875 285.894531 448.851562 287.785156 449.578125 289.382812 L 449.578125 289.523438 C 449.578125 290.832031 451.320312 291.558594 452.046875 290.398438 C 452.1875 290.109375 452.484375 289.960938 452.773438 289.671875 C 453.0625 289.234375 453.210938 288.796875 453.351562 288.363281 C 453.640625 287.347656 453.9375 286.332031 454.078125 285.167969 C 454.367188 283.574219 455.242188 281.539062 454.078125 280.089844 Z M 433.015625 305.054688 C 433.742188 301.863281 434.464844 298.671875 435.339844 295.476562 C 436.066406 292.574219 437.082031 289.671875 436.933594 286.769531 C 436.933594 285.753906 435.628906 285.605469 435.191406 286.480469 C 433.886719 289.085938 433.742188 292.285156 433.160156 295.042969 C 432.578125 298.234375 432 301.574219 431.417969 304.765625 C 431.417969 305.640625 432.871094 305.929688 433.015625 305.054688 Z M 359.507812 285.605469 C 359.796875 284.152344 360.085938 282.554688 360.234375 281.105469 C 360.523438 279.652344 360.8125 278.347656 360.378906 276.894531 C 360.085938 276.171875 359.214844 275.882812 358.636719 276.605469 C 357.761719 277.910156 357.621094 279.222656 357.472656 280.671875 C 357.328125 282.265625 357.035156 283.863281 356.894531 285.605469 C 356.601562 287.203125 359.214844 287.347656 359.507812 285.605469 Z M 349.191406 283.28125 C 348.902344 281.539062 348.613281 279.800781 348.175781 278.199219 C 347.738281 276.75 347.59375 275.15625 346.433594 273.992188 C 345.851562 273.265625 344.6875 273.554688 344.398438 274.429688 C 343.816406 275.882812 344.253906 277.476562 344.542969 278.925781 C 344.835938 280.671875 345.269531 282.265625 345.707031 284.007812 C 346.285156 286.332031 349.628906 285.605469 349.191406 283.28125 Z M 272.632812 388.816406 C 274.085938 387.507812 276.703125 385.914062 277.132812 383.878906 C 277.429688 382.714844 276.554688 381.847656 275.390625 381.988281 C 273.359375 382.285156 271.617188 384.75 270.164062 386.054688 C 268.566406 387.65625 270.890625 390.269531 272.632812 388.816406 Z M 257.816406 389.105469 C 258.832031 387.070312 260.863281 384.027344 260.429688 381.699219 C 260.285156 380.6875 259.121094 380.539062 258.542969 381.121094 C 257.523438 381.847656 257.089844 383.152344 256.652344 384.316406 C 256.070312 385.617188 255.636719 386.929688 255.203125 388.234375 C 254.476562 389.972656 256.945312 390.699219 257.816406 389.105469 Z M 242.269531 386.929688 C 242.269531 385.328125 242.269531 383.878906 242.125 382.285156 C 241.980469 380.6875 241.980469 379.382812 240.675781 378.21875 C 240.089844 377.78125 239.074219 377.929688 238.636719 378.359375 C 237.480469 379.523438 237.621094 380.976562 237.769531 382.425781 C 237.910156 384.027344 238.058594 385.476562 238.207031 387.070312 C 238.496094 389.542969 242.269531 389.246094 242.269531 386.929688 Z M 273.359375 484.476562 C 273.9375 482.585938 275.101562 480.410156 274.957031 478.378906 C 274.957031 477.796875 274.085938 477.652344 273.796875 477.941406 C 272.34375 479.394531 271.90625 481.859375 271.324219 483.601562 C 270.746094 485.054688 272.921875 485.777344 273.359375 484.476562 Z M 261.449219 484.765625 C 261.449219 483.023438 261.589844 481.425781 261.589844 479.683594 C 261.589844 478.230469 261.878906 476.929688 261.011719 475.765625 C 260.574219 475.1875 259.847656 475.476562 259.558594 475.914062 C 258.6875 476.929688 258.976562 478.519531 258.832031 479.832031 C 258.832031 481.425781 258.6875 483.023438 258.6875 484.621094 C 258.542969 486.363281 261.449219 486.503906 261.449219 484.765625 Z M 243.867188 490.132812 C 244.449219 492.167969 247.789062 491.445312 247.0625 489.410156 C 246.484375 487.527344 245.902344 485.636719 245.320312 483.898438 C 244.882812 482.296875 244.59375 480.558594 243.289062 479.394531 C 242.707031 478.816406 241.398438 478.816406 241.253906 479.832031 C 240.816406 481.570312 241.542969 483.023438 241.980469 484.621094 C 242.707031 486.503906 243.289062 488.25 243.867188 490.132812 Z M 389.140625 512.203125 C 374.324219 518.734375 358.199219 520.914062 343.816406 528.460938 C 337.132812 540.363281 330.886719 552.265625 324.933594 564.601562 C 309.390625 596.394531 294.566406 628.183594 281.492188 660.695312 C 300.671875 644.875 318.394531 630.796875 342.945312 621.941406 C 344.980469 621.214844 346.574219 623.976562 344.542969 624.992188 C 331.179688 631.8125 317.230469 637.183594 304.882812 645.75 C 295.878906 651.847656 288.613281 660.40625 279.460938 666.074219 C 266.386719 699.3125 255.34375 733.277344 247.9375 768.699219 C 247.789062 769.136719 247.648438 769.425781 247.351562 769.714844 C 246.195312 776.535156 244.742188 783.355469 242.996094 790.035156 C 261.878906 787.421875 276.84375 777.847656 292.972656 768.261719 C 308.078125 759.265625 323.042969 749.96875 338.296875 741.121094 C 339.460938 740.535156 340.1875 742.132812 339.171875 742.859375 C 322.167969 754.035156 305.03125 764.78125 287.886719 775.667969 C 274.085938 784.519531 260.136719 793.230469 243.289062 793.957031 C 242.851562 793.957031 242.417969 793.8125 242.125 793.519531 C 241.691406 794.96875 241.398438 796.570312 240.964844 798.019531 C 240.238281 800.488281 236.605469 799.183594 237.183594 796.714844 C 239.074219 787.570312 241.253906 778.136719 244.015625 769.136719 C 243.867188 768.839844 243.722656 768.410156 243.722656 767.972656 C 244.449219 761.730469 245.46875 755.347656 246.625 749.101562 C 235.152344 739.808594 225.128906 727.765625 219.75 713.976562 C 218.882812 711.652344 221.929688 709.910156 223.242188 712.230469 C 229.921875 724.714844 237.332031 735.890625 247.5 745.617188 C 255.636719 705.84375 272.050781 666.941406 289.777344 629.347656 C 289.484375 629.488281 289.050781 629.488281 288.902344 629.058594 C 281.0625 612.503906 276.40625 591.746094 275.679688 573.460938 C 275.679688 572.007812 277.859375 572.007812 278.15625 573.3125 C 282.078125 591.746094 286.433594 610.039062 290.355469 628.472656 C 299.363281 609.460938 308.804688 590.730469 317.519531 572.445312 C 324.496094 557.78125 332.046875 543.265625 339.75 529.039062 C 339.75 528.75 339.898438 528.601562 340.039062 528.3125 C 348.753906 512.632812 357.761719 497.101562 367.351562 481.71875 C 370.109375 477.21875 372.871094 472.863281 375.632812 468.359375 C 375.488281 468.21875 375.339844 468.070312 375.195312 467.929688 C 363.867188 447.3125 353.550781 421.765625 350.933594 398.394531 C 350.792969 396.652344 352.972656 396.363281 353.402344 397.816406 C 361.394531 420.457031 368.226562 442.957031 377.519531 465.167969 C 391.609375 441.800781 404.105469 417.554688 409.332031 390.410156 C 409.628906 389.105469 411.808594 389.542969 411.660156 390.847656 C 410.207031 398.976562 408.175781 406.816406 405.703125 414.363281 C 413.402344 406.378906 421.976562 399.121094 429.964844 391.285156 C 438.824219 382.574219 446.960938 373.28125 456.257812 365.15625 C 457.132812 364.28125 458.726562 365.589844 458 366.605469 C 443.910156 385.914062 423.859375 405.074219 404.25 418.714844 C 397.28125 438.023438 387.253906 456.167969 376.355469 473.878906 C 366.1875 490.570312 356.167969 507.121094 346.574219 523.957031 C 357.328125 518.152344 369.382812 515.683594 381.152344 511.328125 C 399.023438 504.796875 411.808594 492.023438 427.203125 481.71875 C 428.515625 480.847656 429.382812 482.734375 428.65625 483.75 C 417.472656 495.507812 403.523438 505.960938 389.140625 512.203125 "/>
</g>
</svg>
