<?xml version="1.0" encoding="UTF-8"?>
<svg xmlns="http://www.w3.org/2000/svg" xmlns:xlink="http://www.w3.org/1999/xlink" width="810pt" height="809.999993pt" viewBox="0 0 810 809.999993" version="1.2">
<g id="surface1">
<path style=" stroke:none;fill-rule:nonzero;fill:rgb(81.959534%,90.589905%,83.918762%);fill-opacity:1;" d="M 244.929688 798.171875 C 244.929688 798.171875 311.566406 675.375 317.242188 632.609375 C 317.242188 632.609375 271.523438 602.640625 264.386719 595.515625 C 257.253906 588.382812 221.585938 526.988281 221.585938 526.988281 C 221.585938 526.988281 198.722656 412.777344 202.941406 402.734375 C 202.941406 402.734375 241.042969 431.242188 259.84375 459.914062 C 278.652344 488.59375 298.273438 513.21875 298.273438 513.21875 L 322.105469 587.414062 L 356.476562 484.542969 C 356.476562 484.542969 328.914062 474.171875 310.757812 448.90625 C 292.601562 423.628906 266.980469 379.890625 266.980469 379.890625 C 266.980469 379.890625 247.851562 299.863281 247.851562 283.824219 L 267.792969 300.996094 L 302.972656 336.960938 L 324.859375 377.949219 L 356.3125 454.085938 C 356.3125 454.085938 372.53125 404.511719 375.445312 383.617188 L 336.375 332.265625 L 314.488281 283.664062 L 297.300781 208.492188 C 297.300781 208.492188 298.273438 142.882812 302.972656 145.636719 C 307.671875 148.554688 323.886719 164.753906 323.886719 164.753906 C 323.886719 164.753906 357.285156 211.410156 361.984375 228.585938 C 366.691406 245.753906 386.792969 323.835938 386.792969 323.835938 L 401.0625 258.226562 C 401.0625 258.226562 382.902344 215.460938 380.148438 187.753906 C 377.394531 160.058594 379.175781 101.894531 379.175781 101.894531 L 408.679688 32.398438 L 425.867188 0 C 425.867188 0 471.585938 52.328125 471.585938 55.246094 C 471.585938 58.15625 475.480469 86.671875 475.480469 105.621094 C 475.480469 124.574219 462.183594 185.65625 451.644531 206.550781 C 441.105469 227.445312 417.273438 261.792969 417.273438 261.792969 L 396.363281 389.289062 C 396.363281 389.289062 419.21875 345.546875 433.488281 329.347656 C 447.753906 313.148438 502.070312 259.84375 502.070312 259.84375 C 502.070312 259.84375 580.214844 216.105469 611.671875 219.832031 L 574.539062 290.304688 L 536.4375 341.65625 C 536.4375 341.65625 473.53125 379.726562 450.675781 388.3125 C 427.8125 396.898438 407.058594 404.511719 407.058594 404.511719 L 383.070312 463.484375 C 383.070312 463.484375 390.6875 465.425781 403.003906 456.839844 C 415.328125 448.253906 425.867188 434.96875 450.675781 422.496094 C 475.480469 410.183594 524.929688 393.984375 524.929688 393.984375 C 524.929688 393.984375 584.917969 386.371094 582.15625 393.984375 C 579.402344 401.59375 558.324219 441.613281 558.324219 441.613281 C 558.324219 441.613281 526.875 475.957031 499.3125 489.238281 C 471.75 502.523438 407.058594 510.136719 407.058594 510.136719 L 370.578125 506.25 L 339.128906 606.203125 C 339.128906 606.203125 367.824219 571.050781 392.144531 559.546875 C 416.304688 548.046875 457.320312 535.734375 457.320312 535.734375 C 457.320312 535.734375 523.957031 533.789062 534.496094 538.648438 L 504.011719 580.605469 C 504.011719 580.605469 457.320312 617.707031 427.8125 628.238281 C 398.304688 638.765625 362.960938 653.023438 330.699219 645.40625 C 330.699219 645.40625 316.429688 696.765625 305.894531 718.632812 C 295.355469 740.503906 255.308594 810 255.308594 810 L 244.929688 798.171875 "/>
<path style=" stroke:none;fill-rule:nonzero;fill:rgb(86.268616%,68.238831%,8.628845%);fill-opacity:1;" d="M 428.625 590.167969 C 426.355469 588.707031 423.4375 589.191406 420.839844 589.515625 C 417.925781 589.84375 414.519531 590.324219 411.921875 591.464844 C 405.925781 593.894531 408.035156 602.640625 414.683594 601.34375 C 417.597656 600.699219 420.679688 599.234375 423.273438 597.945312 C 425.546875 596.804688 428.464844 595.515625 429.433594 593.242188 C 429.921875 592.109375 429.757812 590.976562 428.625 590.167969 Z M 482.613281 560.03125 C 477.425781 562.140625 469.476562 564.082031 467.375 569.753906 C 466.398438 572.503906 468.832031 574.613281 471.265625 574.777344 C 474.183594 575.101562 477.101562 572.992188 479.371094 571.371094 C 481.636719 569.59375 483.746094 567.644531 486.019531 565.867188 C 488.453125 563.59375 485.855469 558.734375 482.613281 560.03125 Z M 459.75 576.71875 C 454.242188 578.664062 447.589844 581.09375 443.378906 585.308594 C 439.648438 589.191406 444.511719 595.835938 449.375 593.085938 C 451.644531 591.789062 453.753906 589.84375 456.027344 588.382812 C 458.292969 586.761719 460.726562 585.628906 463.15625 584.65625 C 467.375 582.554688 464.292969 575.101562 459.75 576.71875 Z M 459.425781 567.644531 C 460.726562 565.703125 458.941406 563.4375 456.996094 563.273438 C 452.621094 563.113281 447.921875 565.867188 444.023438 567.808594 C 439.324219 570.074219 434.621094 572.503906 430.085938 575.265625 C 424.570312 578.664062 429.597656 587.574219 435.273438 584.011719 C 439.8125 581.414062 444.347656 578.503906 448.730469 575.746094 C 452.296875 573.480469 456.835938 571.539062 459.425781 567.644531 Z M 248.015625 518.078125 C 247.851562 512.40625 239.421875 512.40625 239.253906 518.078125 C 239.253906 520.828125 239.421875 523.582031 239.742188 526.335938 C 240.066406 529.253906 240.554688 532.171875 242.664062 534.433594 C 245.582031 537.515625 249.957031 534.921875 250.445312 531.195312 C 250.769531 528.765625 249.472656 526.664062 248.984375 524.394531 C 248.335938 522.449219 248.171875 520.34375 248.015625 518.078125 Z M 273.625 553.066406 C 273.625 552.90625 273.625 552.90625 273.625 552.742188 C 272.167969 545.453125 268.605469 538.328125 265.519531 531.523438 C 264.0625 528.285156 258.222656 529.738281 258.554688 533.46875 C 259.523438 541.246094 260.175781 549.824219 263.417969 556.957031 C 264.386719 559.066406 267.46875 560.199219 269.738281 559.546875 C 269.902344 559.546875 270.058594 559.386719 270.226562 559.386719 C 271.847656 558.898438 273.46875 557.601562 273.789062 555.824219 C 273.789062 555.660156 273.789062 555.660156 273.789062 555.496094 C 273.789062 554.683594 273.789062 553.875 273.625 553.066406 Z M 275.898438 518.234375 C 273.957031 514.671875 268.761719 516.457031 268.605469 520.183594 C 268.4375 523.90625 269.414062 527.796875 270.546875 531.359375 C 271.679688 534.921875 272.816406 539.460938 277.03125 540.269531 C 278.820312 540.59375 280.921875 540.105469 281.898438 538.328125 C 284.003906 534.601562 281.730469 531.523438 280.277344 527.957031 C 278.652344 524.878906 277.519531 521.316406 275.898438 518.234375 Z M 256.445312 502.6875 C 255.632812 500.414062 254.824219 498.148438 253.847656 495.882812 C 253.6875 494.421875 252.714844 493.289062 251.257812 492.96875 C 249.636719 492.644531 248.335938 493.289062 247.363281 494.585938 C 245.582031 497.339844 247.039062 501.554688 247.683594 504.464844 C 248.496094 508.191406 249.472656 512.566406 252.226562 515.160156 C 254.824219 517.753906 259.363281 515.804688 259.363281 512.242188 C 259.523438 508.84375 257.742188 505.761719 256.445312 502.6875 Z M 498.992188 458.136719 C 495.90625 459.105469 493.152344 460.890625 490.398438 462.1875 C 487.476562 463.644531 484.070312 464.617188 481.480469 466.558594 C 477.261719 469.636719 479.695312 476.601562 485.046875 475.148438 C 488.609375 474.171875 491.851562 471.90625 494.773438 469.636719 C 497.527344 467.535156 500.28125 465.105469 502.070312 462.023438 C 503.203125 460.078125 501.257812 457.328125 498.992188 458.136719 Z M 470.128906 463.808594 C 474.507812 461.699219 480.015625 459.59375 483.101562 455.707031 C 484.722656 453.601562 483.746094 450.523438 480.992188 450.359375 C 475.640625 450.039062 469.964844 453.277344 465.265625 455.382812 C 462.835938 456.515625 462.183594 460.078125 463.480469 462.1875 C 464.777344 464.453125 467.699219 464.941406 470.128906 463.808594 Z M 522.335938 427.515625 C 517.957031 429.136719 514.226562 432.703125 510.496094 435.457031 C 507.097656 437.886719 502.234375 439.664062 500.769531 443.714844 C 500.125 445.335938 501.746094 446.632812 503.042969 446.796875 C 507.253906 447.121094 511.632812 442.582031 514.875 440.152344 C 518.445312 437.566406 522.65625 434.804688 524.765625 430.921875 C 525.742188 429.300781 524.121094 426.871094 522.335938 427.515625 Z M 472.5625 443.070312 C 474.183594 444.691406 476.617188 444.855469 478.558594 443.878906 C 486.019531 439.996094 493.640625 436.265625 501.421875 432.863281 C 504.824219 431.40625 502.234375 426.382812 498.992188 427.035156 C 490.074219 428.8125 481.800781 431.566406 473.53125 435.292969 C 472.074219 435.945312 470.941406 438.046875 471.097656 439.507812 C 471.265625 441.128906 471.585938 442.09375 472.5625 443.070312 Z M 313.835938 390.585938 C 312.214844 388.964844 309.292969 389.773438 308.648438 391.875 C 308.648438 392.203125 308.484375 392.363281 308.484375 392.683594 C 308.324219 393.171875 308.324219 393.660156 308.484375 393.984375 C 308.324219 397.710938 309.457031 401.59375 310.269531 405.324219 C 311.402344 409.859375 311.726562 414.882812 315.132812 418.28125 C 317.242188 420.554688 321.453125 419.578125 322.105469 416.503906 C 323.074219 411.804688 320.972656 407.265625 319.507812 402.734375 C 318.054688 398.519531 316.917969 393.660156 313.835938 390.585938 Z M 294.542969 350.566406 C 291.949219 346.679688 286.113281 350.085938 288.21875 354.292969 C 290.328125 358.183594 292.113281 362.070312 293.734375 366.121094 C 295.355469 369.847656 296.652344 374.21875 298.921875 377.460938 C 301.839844 381.675781 308.160156 379.078125 307.191406 374.054688 C 305.726562 365.632812 299.085938 357.699219 294.542969 350.566406 Z M 293.246094 377.78125 C 292.433594 374.382812 285.140625 373.410156 285.628906 378.433594 C 286.273438 384.425781 288.382812 390.253906 291.460938 395.445312 C 294.867188 401.113281 303.785156 395.925781 300.21875 390.253906 C 297.785156 386.207031 295.511719 381.996094 293.246094 377.78125 Z M 443.539062 358.828125 C 447.921875 356.078125 451.484375 352.183594 454.5625 348.136719 C 455.539062 346.84375 455.863281 345.222656 454.886719 343.761719 C 453.917969 342.628906 451.972656 341.984375 450.675781 342.953125 C 448.730469 344.414062 446.78125 345.546875 444.835938 346.84375 C 442.890625 348.136719 440.78125 349.273438 438.839844 350.566406 C 436.730469 352.027344 435.761719 354.78125 437.21875 357.046875 C 438.351562 359.316406 441.269531 360.128906 443.539062 358.828125 Z M 496.558594 339.710938 C 496.882812 339.710938 496.882812 339.710938 496.558594 339.710938 C 496.71875 339.710938 496.558594 339.710938 496.558594 339.710938 Z M 495.097656 339.878906 C 495.417969 339.878906 495.75 339.710938 496.070312 339.710938 L 496.230469 339.554688 C 497.039062 338.578125 498.015625 337.769531 499.148438 336.960938 C 501.257812 335.339844 503.523438 334.042969 505.632812 332.421875 C 507.90625 330.644531 511.632812 332.910156 509.851562 335.664062 C 508.71875 337.449219 507.90625 339.226562 506.933594 341.011719 C 505.957031 342.628906 504.824219 344.085938 503.691406 345.546875 C 501.582031 348.300781 497.527344 351.21875 494.125 348.621094 C 492.503906 347.488281 491.53125 345.871094 491.851562 343.925781 C 492.019531 342.144531 493.316406 340.199219 495.097656 339.878906 Z M 480.828125 336.148438 C 482.9375 334.042969 484.722656 331.453125 486.667969 329.183594 C 488.933594 326.753906 491.207031 324.488281 493.316406 322.058594 C 495.261719 319.785156 493.472656 314.765625 489.910156 316.222656 C 486.34375 317.683594 483.421875 319.785156 480.347656 322.214844 C 477.585938 324.488281 474.34375 327.5625 472.5625 330.644531 C 469.964844 335.984375 477.914062 340.84375 480.828125 336.148438 Z M 528.65625 290.625 C 522.980469 293.867188 516.335938 296.296875 512.441406 301.964844 C 509.851562 305.691406 514.875 309.742188 518.445312 307.964844 C 523.957031 305.046875 527.523438 299.210938 532.226562 295.164062 C 534.660156 293.054688 531.574219 289.003906 528.65625 290.625 Z M 537.089844 260.175781 C 531.738281 264.382812 526.222656 268.433594 521.035156 272.648438 C 516.824219 276.046875 511.148438 279.128906 510.339844 284.796875 C 510.175781 286.253906 511.796875 287.550781 513.09375 287.550781 C 518.605469 287.550781 522.65625 281.558594 526.386719 277.996094 C 531.25 273.292969 535.792969 268.273438 540.332031 263.414062 C 542.601562 261.308594 539.359375 258.226562 537.089844 260.175781 Z M 350.15625 277.34375 C 348.535156 272.648438 341.71875 274.589844 342.695312 279.449219 C 343.671875 284.144531 344.640625 289.003906 345.613281 293.707031 C 345.9375 295.164062 347.394531 296.78125 349.015625 297.105469 C 350.964844 297.433594 352.257812 297.269531 353.722656 295.816406 C 354.855469 294.675781 355.5 292.734375 355.019531 291.113281 C 353.398438 286.417969 351.777344 281.878906 350.15625 277.34375 Z M 330.046875 256.769531 C 328.269531 253.367188 322.753906 255.636719 323.886719 259.363281 C 325.835938 266.324219 327.292969 273.457031 329.238281 280.425781 C 330.859375 286.09375 338.964844 283.664062 337.996094 277.996094 C 336.699219 270.375 333.453125 263.414062 330.046875 256.769531 Z M 336.855469 239.113281 C 335.5625 235.386719 334.589844 231.660156 333.613281 227.933594 C 332.800781 224.691406 327.292969 225.179688 327.617188 228.742188 C 328.269531 235.875 328.914062 245.59375 333.289062 251.421875 C 335.234375 254.015625 340.429688 253.53125 340.097656 249.644531 C 339.617188 245.917969 337.996094 242.511719 336.855469 239.113281 Z M 439.160156 155.519531 C 439.8125 159.40625 445.324219 158.761719 446.457031 155.519531 C 448.566406 148.71875 445.96875 139.644531 444.835938 132.839844 C 444.347656 129.765625 439.003906 130.410156 439.324219 133.648438 C 439.648438 137.378906 439.648438 141.105469 439.324219 144.988281 C 439.160156 148.394531 438.515625 151.957031 439.160156 155.519531 Z M 424.410156 165.074219 C 426.515625 158.761719 425.546875 150.660156 425.058594 144.179688 C 424.734375 140.128906 418.894531 140.128906 418.738281 144.179688 C 418.574219 147.585938 418.40625 150.824219 418.085938 154.222656 C 417.761719 157.460938 416.785156 160.867188 416.949219 164.105469 C 417.117188 168.316406 422.949219 169.125 424.410156 165.074219 Z M 411.601562 123.441406 C 414.519531 121.664062 414.03125 118.90625 414.195312 115.828125 C 414.355469 112.101562 414.84375 108.539062 415.496094 104.8125 C 416.304688 100.761719 410.300781 98.984375 409.167969 103.035156 C 408.199219 106.753906 407.386719 110.484375 406.902344 114.375 C 406.578125 117.613281 405.765625 121.335938 409.007812 123.285156 C 409.820312 123.929688 410.953125 123.929688 411.601562 123.441406 Z M 426.355469 110.804688 C 425.546875 107.40625 426.355469 103.84375 426.84375 100.441406 C 427.324219 96.878906 427.976562 93.472656 428.625 89.910156 C 429.277344 86.347656 434.460938 87.480469 434.785156 90.71875 C 434.949219 94.125 435.109375 97.523438 435.109375 100.925781 C 435.109375 104.167969 435.429688 107.730469 434.296875 110.804688 C 433 114.375 427.324219 115.183594 426.355469 110.804688 "/>
<path style=" stroke:none;fill-rule:nonzero;fill:rgb(23.919678%,49.01886%,52.159119%);fill-opacity:1;" d="M 353.398438 546.105469 C 345.9375 573.480469 337.832031 600.855469 329.238281 628.074219 C 329.558594 628.074219 329.890625 628.074219 330.210938 628.074219 C 348.691406 631.636719 362.472656 622.402344 379.339844 617.542969 C 381.449219 616.898438 382.417969 619.816406 380.796875 620.949219 C 366.367188 631.3125 346.261719 637.304688 328.914062 632.445312 C 328.589844 632.289062 328.269531 632.121094 327.9375 631.964844 C 325.835938 638.445312 323.726562 645.082031 321.617188 651.5625 C 310.269531 686.070312 299.242188 721.066406 283.683594 753.945312 C 282.21875 757.027344 277.519531 754.753906 278.332031 751.679688 C 290.003906 711.667969 305.570312 672.789062 318.375 633.097656 C 319.996094 627.914062 321.617188 622.890625 323.238281 617.707031 C 314.15625 614.953125 305.242188 606.855469 298.597656 600.855469 C 290.648438 593.730469 281.574219 584.65625 277.84375 574.453125 C 277.03125 572.347656 279.953125 570.886719 281.410156 572.347656 C 289.027344 580.125 294.542969 589.355469 302.652344 596.804688 C 309.292969 602.804688 317.886719 607.011719 324.859375 612.683594 C 336.699219 574.933594 347.558594 536.867188 357.453125 498.472656 C 357.453125 498.148438 357.453125 497.828125 357.773438 497.503906 C 359.230469 491.992188 360.527344 486.488281 361.984375 480.976562 C 355.828125 476.925781 350.3125 472.230469 345.292969 466.882812 C 339.941406 461.210938 332.480469 453.765625 331.179688 445.988281 C 331.023438 444.691406 332.320312 443.070312 333.613281 444.042969 C 339.941406 448.90625 343.828125 457.003906 349.34375 462.832031 C 353.722656 467.535156 358.421875 471.90625 363.449219 476.117188 C 367.824219 458.136719 372.199219 440.152344 376.097656 422.175781 C 380.796875 400.949219 385.011719 379.890625 389.066406 358.507812 C 379.015625 344.738281 367.988281 328.050781 365.394531 311.683594 C 365.070312 309.585938 367.503906 308.609375 368.636719 310.230469 C 374.308594 317.84375 377.875 327.40625 382.257812 335.828125 C 384.847656 340.6875 387.601562 345.707031 390.363281 350.40625 C 399.441406 302.128906 407.058594 253.695312 414.519531 205.09375 C 414.84375 203.144531 418.085938 203.632812 417.925781 205.574219 C 414.355469 246.726562 408.355469 287.714844 401.550781 328.539062 C 399.761719 339.066406 397.984375 349.433594 396.039062 359.960938 C 395.710938 361.425781 395.550781 362.878906 395.226562 364.335938 C 392.796875 377.78125 390.199219 391.230469 387.445312 404.675781 C 392.46875 399.816406 398.304688 395.601562 403.335938 390.90625 C 409.492188 385.238281 415.007812 378.269531 421.980469 373.734375 C 423.601562 372.765625 425.378906 374.707031 424.570312 376.328125 C 420.359375 383.941406 412.898438 390.253906 406.414062 396.089844 C 400.25 401.761719 393.605469 408.074219 385.980469 411.96875 C 380.148438 439.664062 373.824219 467.371094 367.015625 494.910156 C 376.097656 492.804688 385.171875 490.539062 393.929688 487.621094 C 405.277344 483.894531 415.328125 477.578125 426.515625 473.363281 C 428.136719 472.71875 428.945312 474.984375 427.976562 475.957031 C 413.542969 491.347656 386.792969 495.882812 365.878906 499.449219 C 361.664062 515.160156 357.609375 530.714844 353.398438 546.105469 "/>
</g>
</svg>
