<?xml version="1.0" encoding="UTF-8"?>
<svg xmlns="http://www.w3.org/2000/svg" xmlns:xlink="http://www.w3.org/1999/xlink" width="810pt" height="809.999993pt" viewBox="0 0 810 809.999993" version="1.2">
<defs>
<clipPath id="clip1">
  <path d="M 13 86.363281 L 809.71875 86.363281 L 809.71875 681 L 13 681 Z M 13 86.363281 "/>
</clipPath>
<clipPath id="clip2">
  <path d="M 0.246094 108 L 784 108 L 784 723.863281 L 0.246094 723.863281 Z M 0.246094 108 "/>
</clipPath>
</defs>
<g id="surface1">
<g clip-path="url(#clip1)" clip-rule="nonzero">
<path style=" stroke:none;fill-rule:evenodd;fill:rgb(72.549438%,33.329773%,69.40918%);fill-opacity:1;" d="M 305.144531 386.402344 C 304.894531 395.464844 443.414062 513.753906 467.429688 489.117188 C 518.511719 436.738281 305.179688 384.957031 305.144531 386.402344 Z M 458.398438 338.070312 L 402.695312 328.769531 C 401.476562 328.972656 401.832031 330.453125 402.023438 331.359375 C 404.089844 340.910156 410.636719 350.167969 416.269531 357.851562 C 435.378906 383.945312 463.511719 404.695312 494.027344 415.359375 C 518.410156 423.867188 582.023438 422.910156 546.199219 383.015625 C 524.25 358.558594 489.0625 346.753906 458.398438 338.070312 Z M 485.507812 291.328125 C 485.507812 291.328125 598.828125 404.117188 650.773438 353.53125 C 683.414062 321.765625 551.347656 260.59375 485.507812 291.328125 Z M 702.078125 239.503906 C 668.722656 226.429688 576.71875 245.019531 576.71875 245.019531 C 574.796875 246.074219 640.589844 297.84375 699.21875 291.203125 C 741.117188 286.460938 737.199219 253.273438 702.078125 239.503906 Z M 656.691406 201.652344 C 669.164062 210.839844 763.113281 254.976562 775.226562 219.800781 C 787.269531 184.78125 656.691406 201.652344 656.691406 201.652344 Z M 808.027344 121.234375 C 778.066406 74.648438 689.933594 171.921875 687.164062 184.71875 C 710.386719 177.765625 824.941406 147.546875 808.027344 121.234375 Z M 721.609375 89.378906 C 691.421875 64.875 645.929688 197.582031 643.089844 208.488281 C 642.808594 209.601562 753.421875 115.199219 721.609375 89.378906 Z M 578.261719 241.484375 L 619.015625 195.226562 C 641.808594 165.617188 687.390625 106.394531 653.476562 94.75 C 618.515625 82.742188 589.691406 172.394531 581.921875 195.054688 C 577.46875 208.058594 575.660156 243.792969 578.261719 241.484375 Z M 482.304688 290.535156 C 482.304688 292.082031 574.921875 193.464844 582.160156 157.28125 C 585.828125 138.878906 576.738281 121.191406 569.945312 118.609375 C 556.449219 113.488281 530.03125 132.160156 521.363281 145.308594 C 501.675781 175.152344 499.414062 189.050781 491.539062 223.839844 C 488.675781 236.492188 482.292969 277.492188 482.304688 290.535156 Z M 488.347656 124.5 C 438.335938 111.992188 419.644531 185.992188 414.90625 215.949219 C 412.511719 231.105469 400.21875 324.542969 396.863281 332.21875 C 405.671875 321.496094 553.152344 140.703125 488.347656 124.5 Z M 396.863281 332.214844 C 396.59375 332.546875 396.445312 332.714844 396.445312 332.714844 C 396.558594 332.75 396.707031 332.566406 396.863281 332.214844 Z M 361.078125 199.699219 C 341.625 190.523438 314.3125 207.160156 304.507812 284.074219 C 299.964844 319.789062 303.15625 383.550781 303.15625 383.550781 C 303.15625 383.550781 400.195312 218.164062 361.078125 199.699219 Z M 363.347656 460.683594 C 328.808594 441.457031 231.5 431.496094 231.5 431.496094 C 230.523438 431.464844 354.15625 546.707031 386.164062 496.25 C 395.125 482.117188 373.390625 466.277344 363.347656 460.683594 Z M 314.277344 508.164062 C 273.410156 481.761719 211.230469 492.996094 165.761719 477.25 C 165.785156 477.214844 165.816406 477.191406 165.851562 477.160156 C 165.941406 477.042969 166.101562 476.660156 166.066406 476.792969 L 170.65625 469.074219 C 178.417969 421.195312 202.074219 371.738281 198.367188 322.765625 C 196.960938 304.222656 184.40625 281.3125 166.046875 302.140625 C 152.515625 317.480469 146.457031 340.480469 142.457031 360.039062 C 136.265625 390.214844 138.140625 420.832031 146.832031 450.3125 C 149.253906 458.570312 152.015625 468.527344 157.570312 475.363281 C 159.320312 477.523438 162.964844 479.625 165.433594 477.554688 C 172.941406 483.765625 228.410156 529.117188 255.710938 537.703125 C 274.707031 543.683594 297.691406 549.585938 317.402344 545.46875 C 344.160156 539.886719 329.890625 518.25 314.277344 508.164062 Z M 235.578125 545.332031 C 221.273438 540.421875 206.480469 536.953125 191.6875 533.597656 C 167.089844 528.003906 141.574219 523.84375 117.929688 515.179688 C 119.996094 491.769531 125.460938 468.507812 129.632812 445.449219 C 132.324219 430.585938 134.9375 415.683594 136.210938 400.617188 C 137.597656 384.253906 138.980469 364.769531 131.757812 349.464844 C 121.929688 328.65625 105.207031 342.734375 99.304688 357.71875 C 84.945312 394.191406 84.929688 440.523438 88.050781 478.988281 C 89.097656 491.949219 89.992188 522.09375 105.679688 527.390625 C 106.015625 544.410156 130.824219 556.792969 141.515625 562.921875 C 175.03125 582.101562 217.171875 601.28125 257.140625 601.464844 C 273.546875 601.542969 294.269531 589.980469 279.976562 571.152344 C 269.480469 557.304688 251.097656 550.675781 235.578125 545.332031 Z M 261.550781 265.132812 C 208.171875 257.765625 226.171875 423.253906 226.691406 422.445312 C 226.691406 422.445312 301.40625 270.636719 261.550781 265.132812 Z M 173.875 616.5625 C 144.59375 601.125 77.234375 571.027344 67.867188 568.46875 C 104.363281 673.742188 194.898438 688.351562 202.839844 676.902344 C 214.507812 660.089844 194.535156 627.46875 173.867188 616.5625 Z M 70.867188 542.375 C 69.449219 552.039062 65.929688 561.023438 63.835938 570.472656 L 29.367188 516.042969 C 17.136719 489.949219 9.027344 457.25 15.121094 428.484375 C 17.359375 417.898438 22.953125 401.355469 35.835938 399.890625 C 54.757812 397.738281 61.261719 426.835938 64.125 439.898438 C 71.1875 472.132812 75.691406 509.402344 70.867188 542.375 "/>
</g>
<g clip-path="url(#clip2)" clip-rule="nonzero">
<path style=" stroke:none;fill-rule:nonzero;fill:rgb(27.059937%,27.059937%,64.309692%);fill-opacity:1;" d="M 431.371094 461.316406 L 425.960938 460.773438 C 425.871094 461.808594 427.746094 463.546875 428.574219 464.34375 C 432.164062 467.753906 436.234375 462.273438 431.371094 461.316406 Z M 334.570312 485.09375 C 331.390625 483.273438 328.296875 482.695312 325.527344 480.125 C 324.71875 479.375 323.1875 477.839844 322.117188 479 L 324.84375 483.070312 C 325.289062 486.148438 330.058594 489.003906 332.660156 489.6875 C 334.003906 490.039062 336.535156 489.9375 336.785156 488.117188 C 336.988281 486.707031 335.636719 485.695312 334.570312 485.09375 Z M 324.8125 465.320312 L 322.492188 465.785156 C 324.140625 469.5625 329.105469 473.277344 332.730469 474.746094 C 333.96875 475.246094 338.886719 476.234375 338.355469 473.402344 C 337.738281 470.152344 327.753906 467.933594 324.8125 465.320312 Z M 302.453125 519.804688 L 309.28125 518.554688 C 309.175781 518.28125 308.996094 517.417969 308.699219 517.199219 C 303.359375 513.199219 294.65625 518.589844 302.453125 519.804688 Z M 439.039062 447.992188 L 437.347656 448.925781 C 437.460938 448.867188 437.253906 449.152344 437.234375 449.277344 C 436.914062 450.734375 438.105469 452.644531 438.855469 453.792969 C 440.367188 456.097656 444.980469 460.328125 447.921875 457.792969 C 452.308594 453.996094 441.21875 448.789062 439.039062 447.992188 Z M 496.675781 387.027344 L 494.300781 388.015625 C 494.039062 387.597656 494.390625 389.039062 494.699219 389.425781 C 495.324219 390.257812 496.140625 390.972656 496.9375 391.644531 C 498.902344 393.292969 505.640625 397.917969 508.046875 394.871094 C 512.640625 389.074219 498.164062 387.765625 496.675781 387.027344 Z M 449.289062 371.460938 L 448.152344 372.554688 C 447.867188 372.441406 449.433594 375.363281 449.582031 375.589844 C 450.605469 377.066406 455.558594 383.128906 457.761719 380.523438 C 460.5 377.292969 451.277344 372.292969 449.289062 371.460938 Z M 492.765625 364.320312 L 491.632812 364.378906 C 492.074219 364.6875 492.550781 365.789062 493.121094 365.675781 C 494.164062 365.46875 493.132812 364.59375 492.765625 364.320312 Z M 491.246094 364.402344 L 491.632812 364.378906 C 491.507812 364.289062 491.371094 364.277344 491.246094 364.402344 Z M 227.863281 563.191406 L 217.273438 553.3125 C 214.378906 552.140625 211.84375 550.128906 208.558594 549.207031 C 195.378906 545.523438 214.320312 557.175781 216.636719 559.121094 C 218.230469 560.441406 230.238281 577.882812 228.386719 564.886719 C 228.273438 564.078125 228.160156 563.941406 227.863281 563.191406 Z M 251.949219 580.03125 L 251.746094 579.929688 C 251.722656 580.019531 251.777344 580.054688 251.949219 580.03125 Z M 242.40625 520.089844 C 246.109375 514.9375 234.382812 512.777344 231.5 513.402344 L 229.804688 513.4375 C 230.90625 516.269531 239.882812 523.601562 242.40625 520.089844 Z M 309.359375 518.542969 L 309.28125 518.554688 C 309.324219 518.65625 309.347656 518.679688 309.359375 518.542969 Z M 203.207031 574.027344 C 203.425781 578.507812 215.273438 576.777344 217.75 576.460938 L 216.148438 573.777344 C 217.207031 573.300781 203.039062 570.332031 203.207031 574.027344 Z M 512.117188 375.929688 C 510.035156 374.757812 507.71875 375.339844 505.605469 374.453125 L 507.367188 375.988281 C 507.753906 375.792969 507.796875 376.773438 508.128906 377.042969 C 509.070312 377.816406 510.605469 378.578125 511.84375 378.546875 C 513.96875 378.5 513.523438 376.714844 512.117188 375.929688 Z M 288.191406 524 C 286.375 523.679688 284.546875 523.613281 282.703125 523.511719 L 276.035156 520.132812 C 275.523438 521.589844 279.660156 524.421875 280.445312 525.011719 C 283.839844 527.617188 290.375 531.707031 294.863281 529.664062 C 299.089844 527.742188 289.273438 524.203125 288.191406 524 Z M 238.953125 567.613281 C 233.179688 576.640625 254.265625 571.84375 248.894531 578.449219 L 251.746094 579.929688 C 251.824219 579.585938 252.984375 578.53125 253.121094 577.90625 C 253.507812 575.960938 252.246094 573.855469 251.234375 572.320312 C 249.5625 569.773438 241.871094 563.054688 238.953125 567.613281 Z M 273.378906 507.558594 L 273.648438 507.535156 C 273.570312 507.386719 273.492188 507.367188 273.378906 507.558594 Z M 279.921875 511.414062 C 283.820312 510.195312 279.601562 507.820312 277.855469 507.261719 L 273.648438 507.535156 C 273.867188 507.980469 274.003906 509.515625 274.523438 509.914062 C 275.96875 511.015625 278.09375 511.980469 279.921875 511.414062 Z M 366.121094 410.3125 C 366.960938 410.972656 367.949219 412.199219 368.769531 412.632812 C 371.132812 413.871094 379.914062 418.964844 382.289062 415.851562 C 384.46875 412.996094 371.800781 410.835938 370.550781 410.574219 Z M 600.246094 335.589844 L 600.269531 335.601562 C 600.234375 335.535156 600.222656 335.523438 600.246094 335.589844 Z M 725.222656 213.035156 C 725.769531 213.183594 726.292969 213.25 726.757812 213.113281 L 725.28125 213.023438 C 725.257812 213.023438 725.234375 213.035156 725.222656 213.035156 Z M 720.554688 212.421875 C 719.882812 212.796875 721.632812 213.410156 721.835938 213.457031 C 723.007812 213.695312 724.121094 213.363281 725.222656 213.035156 C 723.734375 212.625 722.007812 211.613281 720.554688 212.421875 Z M 730.996094 207.429688 C 730.109375 206.597656 728.222656 206.359375 727.097656 206.144531 C 726.1875 205.972656 725.257812 205.847656 724.335938 205.792969 C 717.996094 205.394531 724.929688 212.398438 729.914062 208.507812 Z M 778.292969 131.164062 C 776.679688 131.015625 773.792969 131.589844 773.488281 133.570312 C 773.238281 135.167969 774.941406 135.988281 776.28125 136.023438 C 778.269531 136.074219 780.191406 134.703125 780.53125 132.71875 L 780.496094 132.269531 C 780.609375 131.425781 778.757812 131.207031 778.292969 131.164062 Z M 783.234375 117.214844 C 782.894531 116.132812 781.234375 116.515625 780.484375 116.796875 C 779.15625 117.285156 778.257812 118.40625 777.007812 119.011719 C 775.792969 119.597656 774.476562 119.601562 773.203125 119.929688 L 773.269531 119.828125 C 773.488281 119.707031 772.40625 119.84375 772.339844 119.863281 C 771.667969 120.054688 771.011719 120.339844 770.398438 120.644531 C 768.828125 121.421875 766.648438 123.359375 768.917969 124.738281 C 769.488281 125.082031 770.351562 124.691406 770.976562 124.785156 C 771.691406 124.890625 771.75 125.648438 772.601562 125.613281 C 775.363281 125.492188 778.269531 122.800781 780.257812 121.117188 C 781.054688 120.441406 783.679688 118.558594 783.234375 117.214844 Z M 748.296875 220.242188 C 748.367188 223.800781 756.09375 223.925781 757.355469 220.9375 L 754.230469 220.777344 C 756.171875 219.0625 748.242188 217.402344 748.296875 220.242188 Z M 290.191406 450.8125 C 290.363281 450.949219 292.066406 452.574219 293.089844 453.109375 C 295.90625 454.5625 302.144531 456.65625 304.574219 453.425781 C 306.132812 451.378906 302.085938 449.640625 300.746094 449.085938 C 296.90625 447.492188 292.054688 445.671875 287.863281 445.308594 C 287.703125 445.296875 287.554688 445.285156 287.421875 445.285156 L 287.339844 445.285156 C 283.988281 445.273438 284.988281 448.425781 288.667969 449.335938 C 290.589844 449.8125 292.144531 450.484375 293.863281 451.449219 L 290.167969 450.8125 Z M 773.375 145.792969 C 772.976562 145.835938 772.589844 145.933594 772.214844 146.050781 L 770.816406 147.054688 C 770.78125 147.03125 770.648438 146.96875 770.589844 146.972656 C 770.386719 146.980469 770.179688 147.03125 769.976562 147.085938 C 769.410156 147.238281 768.863281 147.441406 768.328125 147.675781 C 766.601562 148.414062 764.75 149.230469 763.226562 150.359375 C 762.875 150.625 761.839844 151.355469 762.171875 151.9375 C 762.695312 152.847656 764.933594 152.0625 765.636719 151.863281 C 766.066406 151.746094 766.714844 151.433594 767.171875 151.566406 C 767.625 151.691406 767.714844 152.078125 768.304688 152.035156 C 770.179688 151.890625 772.40625 150.4375 773.757812 149.1875 C 775.019531 148.007812 776.113281 145.519531 773.375 145.792969 Z M 749.480469 212.507812 L 746.867188 213.226562 C 746.957031 211.429688 740.117188 210.710938 740.585938 212.441406 C 741.277344 214.964844 745.789062 215.269531 747.753906 214.601562 C 748.21875 214.441406 750.332031 213.351562 749.480469 212.507812 Z M 699.21875 251.769531 L 694.320312 250.914062 C 695 250.085938 692.082031 248.753906 691.765625 248.609375 C 689.777344 247.664062 680.289062 245.230469 680.949219 250.039062 C 681.1875 251.769531 683.152344 252.507812 684.605469 252.859375 C 687.128906 253.460938 689.96875 253.019531 692.320312 254.28125 C 695.617188 256.042969 698.082031 260.203125 702.328125 259.726562 C 704.941406 259.421875 705.773438 256.625 704.328125 254.609375 C 703.171875 252.972656 701.058594 252.269531 699.21875 251.769531 Z M 690.027344 262.523438 L 689.660156 262.832031 C 689.21875 262.386719 688.777344 261.988281 688.707031 261.957031 C 686.402344 260.820312 684.992188 262.160156 683.164062 263.285156 C 683.152344 263.285156 683.152344 263.285156 683.140625 263.296875 C 681.355469 263.035156 679.503906 263.148438 680.378906 264.535156 C 681.074219 265.640625 682.550781 266.253906 684.140625 266.378906 C 686.183594 267.414062 688.921875 268.039062 690.308594 265.671875 L 690.433594 264.128906 C 690.707031 264.09375 690.421875 263.671875 690.003906 263.207031 C 690.035156 262.992188 690.046875 262.761719 690.027344 262.523438 Z M 621.414062 325.171875 L 618.539062 325.898438 C 618.015625 326.136719 619.675781 327.832031 620.0625 328.230469 C 621.878906 330.082031 624.230469 331.765625 626.945312 331.6875 C 633.648438 331.503906 625.289062 325.308594 621.414062 325.171875 Z M 176.214844 651.601562 C 176.363281 651.554688 176.738281 651.566406 176.863281 651.578125 L 176.714844 650.519531 C 176.203125 650.851562 176.203125 651.363281 176.214844 651.601562 Z M 599.609375 332.097656 C 598.292969 333.382812 600.972656 335.15625 603.066406 336.222656 L 600.269531 335.597656 C 600.339844 335.734375 600.496094 336.097656 600.597656 336.246094 C 601.328125 337.417969 602.429688 338.40625 603.460938 339.316406 C 605.621094 341.261719 611.300781 345.5 614.335938 343.011719 C 615.753906 341.839844 615.527344 340.78125 614.484375 339.863281 L 616.164062 340.53125 C 613.675781 337.929688 603.632812 328.183594 599.609375 332.097656 Z M 364.722656 410.230469 L 366.121094 410.308594 C 365.542969 409.84375 365.03125 409.660156 364.722656 410.230469 Z M 467.953125 348.285156 C 467.078125 347.796875 469.339844 349.777344 470.226562 350.242188 C 472 351.152344 474.976562 352.484375 476.976562 351.4375 C 478.667969 350.550781 473.953125 348.582031 473.519531 348.402344 Z M 668.585938 253.996094 C 666.03125 252.722656 662.210938 251.8125 659.65625 253.179688 C 657.101562 254.53125 660.316406 256.351562 661.734375 256.65625 C 662.53125 256.828125 663.324219 256.90625 664.109375 256.90625 C 664.179688 257.636719 665.222656 258.304688 665.757812 258.589844 C 667.859375 259.683594 669.757812 259.101562 671.257812 257.40625 L 672.449219 255.871094 C 671.550781 254.316406 670.050781 253.816406 668.585938 253.996094 Z M 716.816406 215.589844 C 715.691406 215.429688 714.578125 215.269531 713.453125 215.113281 C 713.429688 215 713.429688 214.882812 713.476562 214.738281 C 713.804688 213.757812 717.203125 212.90625 715.125 211.792969 C 713.757812 211.054688 712.066406 210.722656 710.511719 210.425781 C 710.488281 209.859375 710.214844 209.335938 709.441406 208.914062 C 700.773438 204.117188 688.230469 205.449219 678.699219 204.5625 C 672.824219 204.015625 666.949219 203.332031 661.15625 202.253906 C 661.066406 202.230469 660.941406 202.207031 660.792969 202.171875 C 670.085938 197.308594 679.390625 192.46875 688.707031 187.648438 C 690.808594 186.558594 692.910156 185.441406 695.023438 184.375 C 697.558594 184.085938 700.511719 182.390625 702.296875 181.597656 C 710.214844 178.082031 717.464844 174.230469 724.679688 169.601562 C 726.085938 168.828125 727.484375 168.050781 728.90625 167.316406 C 731.507812 165.980469 734.222656 164.875 736.878906 163.679688 C 739.085938 163.324219 741.277344 162.839844 743.175781 161.886719 C 745.09375 160.917969 746.445312 159.054688 748.402344 158.195312 C 750.105469 157.449219 753.957031 156.984375 754.570312 154.859375 C 754.785156 154.105469 753.660156 153.988281 753.171875 153.972656 C 752.515625 153.941406 751.832031 153.992188 751.160156 154.085938 C 752.035156 153.480469 752.945312 152.921875 753.910156 152.433594 C 758.421875 150.152344 763.125 148.296875 767.203125 145.234375 C 767.828125 144.761719 770.898438 142.601562 769.863281 141.460938 C 768.738281 140.207031 765.308594 141.285156 763.953125 141.535156 C 763.796875 141.566406 762.285156 141.945312 762.226562 141.652344 C 762.113281 141.078125 767.816406 136.632812 764.410156 136.433594 C 760.171875 136.183594 755.273438 139.296875 751.390625 142.191406 L 751.820312 140.28125 C 752.128906 140.136719 751.171875 140.464844 750.855469 140.582031 C 750.160156 140.855469 749.492188 141.195312 748.84375 141.578125 C 748.34375 141.882812 747.539062 142.40625 746.707031 143.058594 C 745.765625 142.789062 744.09375 143.433594 743.539062 143.640625 C 739.640625 145.09375 736.4375 147.480469 733.246094 149.910156 C 733.402344 149.0625 733.960938 148.144531 733.132812 147.414062 C 732.109375 146.519531 730.199219 147.828125 729.394531 148.445312 C 727.847656 149.621094 726.949219 151.296875 725.632812 152.667969 C 724.054688 154.3125 722.121094 155.621094 720.234375 156.882812 C 718.496094 158.046875 716.703125 159.203125 715.144531 160.609375 C 714.101562 161.359375 713.066406 162.125 712.042969 162.902344 C 711.738281 163.136719 710.554688 164.335938 710.078125 164.21875 C 709.875 164.171875 712.011719 160.113281 710.90625 160.277344 C 709.578125 160.472656 708.214844 162.601562 707.421875 163.507812 C 704.5 166.863281 701.601562 170.257812 698.75 173.675781 C 698.457031 174.03125 698.160156 174.390625 697.855469 174.75 C 697.230469 175.121094 696.605469 175.515625 696.023438 175.941406 C 695.71875 176.007812 695.386719 176.097656 695.128906 176.207031 C 690.980469 178.019531 687.070312 180.246094 683.074219 182.324219 C 675.277344 186.371094 667.519531 190.421875 659.78125 194.476562 C 660.453125 192.996094 661.078125 191.472656 661.917969 189.949219 C 663.757812 186.609375 666.417969 183.769531 668.335938 180.460938 C 670.210938 177.242188 671.425781 173.652344 673.527344 170.578125 C 676.722656 165.890625 682.457031 162.933594 684.71875 157.636719 C 686.570312 153.273438 688.320312 148.441406 689.808594 143.941406 C 690.128906 142.96875 691.296875 139.460938 689.308594 139.335938 C 687.402344 139.210938 685.4375 141.660156 684.402344 142.949219 C 681.050781 147.164062 678.9375 152.320312 676.640625 157.140625 C 674.382812 161.871094 672.152344 167.019531 668.914062 171.183594 C 667.347656 173.191406 667.769531 170.109375 666.65625 169.503906 C 665.78125 169.023438 664.710938 170.0625 664.15625 170.609375 C 657.871094 176.605469 654.519531 186.066406 651.714844 194.042969 C 651.054688 195.910156 650.464844 197.792969 649.875 199.675781 C 628.296875 211.019531 606.871094 222.390625 585.453125 233.757812 C 590.578125 226.960938 593.863281 219.296875 598.609375 211.882812 C 602.609375 205.628906 607.597656 200.148438 612.132812 194.285156 C 616.609375 188.503906 620.503906 182.296875 624.914062 176.460938 C 628.402344 171.847656 632.457031 166.917969 633.96875 161.207031 C 634.378906 159.652344 634.96875 156.574219 633.148438 155.582031 C 629.992188 153.859375 625.820312 160.140625 624.457031 162.042969 C 617.742188 171.457031 612.890625 182.867188 602.972656 189.65625 C 601.507812 190.660156 604.734375 177.792969 599.882812 181.226562 C 596.007812 183.964844 593.988281 189.707031 592.28125 193.875 C 588.363281 203.46875 585.203125 213.476562 582.761719 223.546875 C 581.875 227.230469 580.957031 230.960938 580.445312 234.726562 C 580.421875 234.871094 580.25 235.769531 580.238281 236.53125 C 572.707031 240.535156 565.164062 244.539062 557.628906 248.539062 C 536.667969 259.648438 515.730469 270.882812 494.652344 281.910156 C 501.992188 270.507812 505.015625 258.214844 510.820312 246.09375 C 516.957031 233.347656 524.910156 221.25 531.589844 208.769531 C 537.167969 198.34375 545.5625 189.617188 550.632812 178.941406 C 551.460938 177.203125 555.074219 169.054688 551.6875 167.757812 C 548.4375 166.503906 535.101562 185.46875 533.15625 188.394531 C 526.160156 198.953125 522.535156 212.804688 514.558594 222.515625 C 513.320312 224.015625 512.378906 216.863281 508.855469 219.84375 C 501.128906 226.390625 497.847656 240.945312 494.871094 250.027344 C 492.1875 258.203125 489.871094 266.515625 488.144531 274.941406 C 487.542969 277.929688 486.960938 280.953125 486.769531 284.011719 C 486.734375 284.480469 486.792969 285.207031 486.882812 285.96875 C 475.007812 292.152344 463.089844 298.257812 451.105469 304.242188 C 436.074219 311.746094 421.054688 319.261719 406.066406 326.855469 C 407.066406 324.160156 407.636719 321.191406 408.679688 318.625 C 411.816406 310.890625 416.703125 304.023438 420.964844 296.894531 C 425.710938 288.9375 430.371094 280.910156 434.621094 272.667969 C 438.242188 265.617188 441.605469 258.441406 443.8125 250.8125 C 444.117188 249.746094 446.140625 244.296875 444.707031 243.367188 C 443.117188 242.332031 440.003906 248.949219 438.027344 248.640625 C 437.890625 248.617188 437.835938 248.027344 437.777344 247.152344 C 439.878906 243.21875 442.027344 239.285156 443.878906 235.179688 C 444.527344 233.757812 449.195312 225.105469 447.652344 223.558594 C 447.605469 223.527344 447.550781 223.515625 447.503906 223.515625 C 445.300781 223.796875 443.128906 231.324219 441.378906 232.90625 C 441.21875 233.054688 440.949219 233.246094 440.71875 233.167969 C 439.210938 232.632812 439.878906 227.390625 439.925781 226.378906 C 440.117188 221.84375 443.890625 206.9375 436.015625 206.960938 C 433.121094 206.960938 430.710938 209.132812 429.03125 211.292969 C 420.371094 222.421875 419.828125 240.648438 419.28125 254.109375 C 419.101562 258.851562 418.734375 263.933594 419.578125 268.652344 C 419.632812 268.972656 420.109375 269.277344 419.929688 269.539062 L 420.054688 269.492188 C 416.101562 281.273438 411.792969 292.800781 407.078125 304.320312 C 403.839844 312.257812 400.511719 320.328125 398.386719 328.640625 C 398.320312 328.925781 398 329.9375 397.695312 331.117188 C 369.007812 345.738281 340.511719 360.679688 312.425781 376.300781 C 315.746094 367.308594 316.765625 357.835938 318.902344 348.296875 C 321.605469 336.234375 325.3125 324.296875 328.46875 312.335938 C 330.921875 303.070312 334.003906 293.824219 335.003906 284.253906 C 335.082031 283.445312 335.898438 273.3125 333.148438 275.714844 C 327.902344 280.296875 325.664062 298.101562 323.824219 304.921875 C 322.4375 310.097656 320.730469 321.25 316.246094 324.863281 C 314.925781 325.945312 314.4375 321.375 312.585938 323.476562 C 307.449219 329.402344 307.78125 342.601562 307.03125 349.789062 C 306.03125 359.382812 305.074219 368.992188 303.949219 378.578125 C 303.929688 378.804688 303.859375 379.859375 303.78125 381.144531 C 279.761719 394.664062 256.0625 408.742188 232.839844 423.578125 C 233.5 419.542969 233.78125 415.449219 234.65625 411.378906 C 237.929688 396.027344 241.15625 380.769531 244.734375 365.488281 C 246.042969 359.929688 247.179688 354.175781 247.054688 348.433594 C 247.03125 347.617188 247.167969 343.410156 245.746094 343.261719 C 244.441406 343.136719 243.609375 346.375 243.328125 347.171875 C 241.847656 351.378906 241.15625 356.734375 238.746094 360.519531 C 237.65625 362.238281 236.554688 354.4375 234.03125 357.472656 C 231.554688 360.429688 230.964844 365.59375 230.136719 369.207031 C 227.476562 380.941406 226.648438 393.140625 226.316406 405.148438 C 226.148438 411.058594 226.160156 416.972656 226.339844 422.882812 C 226.398438 424.464844 226.441406 426.058594 226.523438 427.636719 C 223.839844 429.367188 221.171875 431.117188 218.511719 432.867188 C 202.175781 443.632812 186.074219 454.753906 170.386719 466.375 C 170.113281 465.417969 169.773438 464.488281 169.453125 463.632812 C 170.511719 456.210938 172.328125 448.832031 172.578125 441.328125 C 172.816406 434.605469 171.441406 427.957031 172.203125 421.246094 C 174.304688 402.578125 177.988281 384.011719 180.121094 365.261719 C 180.519531 361.75 183.816406 332.789062 176.714844 333.496094 C 172.273438 333.925781 170.542969 343.160156 169.792969 346.332031 C 166.339844 361.019531 166.046875 376.519531 164.703125 391.492188 C 164.511719 393.640625 162.832031 415.117188 161.75 415.847656 C 161.523438 416.003906 160.488281 406.363281 158.421875 407.273438 C 153.421875 409.46875 153.582031 425.035156 153.433594 429.113281 C 153.082031 439.03125 153.992188 449.238281 156.71875 458.800781 C 157.648438 462.066406 158.808594 465.316406 160.332031 468.363281 C 160.851562 469.398438 161.421875 470.421875 162.070312 471.386719 C 162.195312 471.570312 162.433594 471.855469 162.695312 472.128906 C 145.675781 485.03125 129.167969 498.550781 113.382812 512.875 L 113.671875 492.285156 C 116.328125 465.136719 118.179688 437.882812 121.78125 410.652344 C 122.234375 407.21875 126.054688 385.445312 118.792969 385.25 C 110.890625 385.046875 111.195312 433.265625 111.089844 440.722656 C 111.050781 443.113281 109.417969 466.214844 107.132812 467.191406 C 105.570312 467.863281 101.414062 450.582031 99.882812 463.246094 C 99.550781 465.988281 99.621094 468.785156 99.832031 471.535156 C 100.597656 481.417969 102.914062 491.285156 106.21875 500.609375 C 107.40625 503.953125 108.730469 507.25 110.503906 510.320312 C 110.945312 511.09375 111.792969 512.671875 112.457031 513.71875 C 104.574219 520.902344 96.878906 528.292969 89.390625 535.902344 C 81.394531 544.042969 73.621094 552.445312 66.210938 561.128906 C 65.75 555.320312 65.398438 549.535156 65.140625 543.699219 C 64.980469 540.050781 64.792969 536.402344 64.511719 532.75 C 64.351562 530.660156 64.160156 528.554688 63.886719 526.476562 C 63.71875 525.214844 63.519531 523.960938 63.253906 522.734375 C 62.925781 521.222656 62.5 518.597656 60.972656 517.753906 C 58.023438 516.128906 59.175781 530.453125 58.820312 533.070312 C 58.773438 533.445312 58.714844 533.957031 58.445312 534.253906 C 57.535156 535.277344 54.542969 526.714844 52.996094 528.53125 C 51.078125 530.785156 52.804688 536.914062 53.269531 539.355469 C 54.242188 544.472656 57.777344 558.652344 61.359375 566.941406 C 39.574219 593.488281 21.355469 622.6875 10.449219 654.964844 C 3.683594 674.988281 0.00390625 696.066406 0.261719 717.179688 C 0.269531 718.125 0.292969 719.070312 0.316406 720 C 0.316406 720.011719 0.238281 720.980469 0.59375 721.878906 C 1.402344 723.902344 4.140625 724.730469 5.914062 723.628906 C 6.898438 723.015625 6.941406 722.640625 7.464844 721.660156 L 7.644531 720.398438 C 7.402344 712.542969 7.703125 704.675781 8.542969 696.875 C 13.316406 652.554688 35.03125 612.238281 62.40625 577.414062 C 64.214844 575.117188 66.046875 572.832031 67.898438 570.578125 C 77.59375 586.996094 87.816406 603.164062 101.332031 616.832031 C 104.460938 620.003906 114.65625 630.792969 120.167969 627.246094 C 124.859375 624.234375 118.542969 615.273438 116.214844 612.738281 C 115.042969 611.464844 113.707031 610.40625 112.265625 609.441406 C 112.234375 609.417969 110.808594 608.464844 111.007812 608.339844 C 113.25 606.804688 133.121094 620.140625 137.085938 617.503906 C 141.265625 614.714844 129.699219 607.566406 128.414062 606.917969 C 113.402344 599.183594 98.394531 591.953125 83.875 583.222656 L 69.003906 569.238281 C 83.71875 551.445312 99.824219 534.921875 116.871094 519.390625 L 116.644531 529.679688 C 130.246094 543.667969 150.058594 557.800781 169.410156 561.640625 C 174.394531 562.632812 177.007812 559.6875 182.359375 561.074219 C 185.996094 562.007812 205.550781 568.988281 207.242188 562.734375 C 208.582031 557.753906 195.335938 553.011719 192.515625 551.851562 C 173.464844 543.949219 153.796875 537.980469 135.289062 528.761719 C 133.757812 528 121.792969 521.085938 118.042969 518.335938 C 133.472656 504.347656 149.671875 491.171875 166.316406 478.585938 C 167.648438 479.835938 169.023438 481.050781 170.429688 482.222656 C 175.042969 486.066406 180.089844 489.445312 185.382812 492.261719 C 196.609375 498.242188 207.289062 495.945312 218.808594 499.414062 C 228.226562 502.246094 235.621094 509.75 244.292969 514.148438 C 247.667969 515.867188 259.300781 522.03125 262.707031 517.515625 C 266.433594 512.59375 250.949219 505.90625 248.3125 504.894531 C 227.738281 497.003906 205.34375 493.96875 184.746094 485.804688 L 167.453125 477.722656 C 176.621094 470.808594 185.917969 464.078125 195.300781 457.496094 C 207.652344 448.820312 220.183594 440.40625 232.863281 432.21875 C 233.988281 433.175781 234.964844 433.949219 235.101562 434.050781 C 242.257812 439.632812 250.246094 444.214844 258.140625 448.660156 C 271.445312 456.140625 284.953125 463.226562 298.179688 470.867188 C 300.859375 472.410156 308.484375 477.902344 311.914062 476.390625 C 314.800781 475.105469 308.3125 469.851562 309.132812 468.933594 C 309.597656 468.398438 311.960938 469.261719 312.484375 469.375 C 314.347656 469.785156 321.605469 472.398438 322.914062 470.035156 C 324.277344 467.558594 314.6875 463.507812 313.234375 463.078125 C 304.6875 460.507812 295.246094 460.984375 286.964844 457.574219 C 282.808594 455.867188 279.238281 451.992188 275.546875 449.445312 C 264.890625 442.078125 252.925781 437.335938 240.871094 432.753906 L 235.304688 430.640625 C 258.5625 415.722656 282.320312 401.542969 306.417969 387.921875 C 311.746094 393.449219 322.515625 400.621094 324.515625 401.917969 C 346.511719 416.0625 367.609375 431.140625 388.367188 447.066406 C 390.742188 448.886719 407.386719 460.484375 410.113281 458.074219 C 412.953125 455.550781 397.082031 444.667969 397.421875 442.144531 C 397.796875 439.417969 408.667969 446.851562 408.566406 441.03125 C 408.375 431.492188 394.933594 428.863281 388.117188 425.511719 C 383.878906 423.429688 380.003906 420.167969 375.585938 418.519531 C 367.550781 415.515625 359.066406 414.617188 351.351562 410.535156 C 341.488281 405.316406 332.265625 396.734375 324.027344 389.285156 L 311.425781 385.101562 C 336.242188 371.1875 361.40625 357.835938 386.742188 344.820312 C 392.910156 341.648438 399.113281 338.507812 405.316406 335.382812 C 406.363281 336.234375 407.429688 337.054688 408.523438 337.847656 C 413.792969 341.726562 419.257812 345.285156 424.792969 348.777344 C 438.847656 357.621094 451.898438 367.535156 465.25 377.359375 C 466.578125 378.328125 477.019531 385.660156 478.566406 383.976562 C 479.484375 382.976562 476.632812 380.292969 476.113281 379.726562 C 474.769531 378.28125 465.886719 370.675781 466.078125 369.308594 C 466.25 368.082031 470.40625 369.558594 470.953125 369.730469 C 473.453125 370.539062 483.65625 376.210938 485.496094 372.414062 C 489.300781 364.558594 479.257812 360.488281 473.351562 357.054688 C 456.421875 347.207031 436.402344 347.070312 419.464844 337.792969 L 408.566406 333.757812 C 436.859375 319.566406 465.316406 305.742188 493.222656 290.996094 C 493.597656 291.777344 493.984375 292.5625 494.585938 292.984375 C 498.675781 295.792969 503.289062 297.828125 507.777344 299.886719 C 517.136719 304.195312 526.589844 308.4375 535.667969 313.335938 C 538.269531 317.226562 538.078125 323.464844 544.042969 326.808594 C 548.28125 329.175781 553.847656 328.046875 558.9375 328.71875 C 566.039062 334.507812 574.011719 341.023438 582.988281 340.578125 C 599.28125 339.78125 571.160156 323.183594 570.082031 322.25 C 569.671875 321.886719 568.117188 320.589844 569.035156 319.976562 C 574.957031 315.996094 609.144531 336.609375 605.3125 325.546875 C 602.894531 318.554688 591.351562 318.679688 586.023438 315.699219 C 585.214844 315.234375 587.101562 312.621094 586.886719 311.515625 C 586.328125 308.59375 583.613281 306.410156 581.320312 304.820312 C 566.46875 294.574219 547.769531 295.519531 530.65625 293.90625 L 496.152344 289.449219 C 522.808594 275.304688 549.472656 261.070312 576.160156 246.878906 C 580.820312 248.640625 585.273438 250.894531 589.941406 252.644531 C 598.726562 255.941406 606.90625 258.613281 615.222656 263.136719 C 622.367188 267.015625 629.878906 268.253906 637.457031 270.800781 C 644.058594 273.019531 650.429688 277.351562 657.566406 277.554688 C 659.972656 277.636719 661.566406 276.488281 663.769531 276.054688 C 667.757812 275.246094 671.871094 276.566406 675.949219 275.566406 C 677.050781 275.292969 679.222656 274.667969 678.992188 273.121094 C 678.753906 271.609375 676.6875 270.734375 675.472656 270.246094 C 671.472656 268.628906 667.292969 269.128906 663.292969 268.039062 C 663.054688 267.96875 664.65625 266.628906 663.78125 265.800781 C 661.609375 263.730469 657.644531 263.011719 654.875 262.230469 C 647.898438 260.25 640.738281 259.023438 633.628906 257.625 C 631.242188 257.144531 626.820312 257.136719 624.777344 255.621094 C 624.425781 255.371094 626.652344 255.03125 626.820312 254.996094 C 627.765625 254.816406 633.105469 253.460938 631.367188 251.675781 C 628.355469 248.585938 616.277344 248.039062 612.152344 247.515625 C 603.007812 246.332031 593.851562 245.253906 584.714844 244.027344 C 583.863281 243.910156 583.011719 243.796875 582.171875 243.671875 C 607.597656 230.164062 633.035156 216.679688 658.53125 203.34375 C 669.210938 206.164062 678.617188 213.121094 689.207031 216.15625 C 695.992188 218.101562 703.078125 218.488281 709.917969 220.183594 C 712.804688 220.886719 715.667969 221.558594 718.542969 222.117188 L 717.269531 222.171875 C 721.691406 224.457031 726.40625 225.539062 731.324219 226.265625 C 732.425781 226.4375 735.640625 227.039062 736.335938 225.6875 C 736.734375 224.890625 735.496094 224.164062 734.972656 223.855469 C 734.824219 223.765625 734.675781 223.683594 734.527344 223.605469 C 736.425781 223.546875 742.1875 223.21875 741.242188 221.125 C 739.527344 217.296875 720.667969 216.125 716.816406 215.589844 Z M 643.078125 249.699219 C 642.714844 249.574219 642.433594 249.496094 642.363281 249.472656 C 640.410156 248.972656 637.457031 248.628906 635.636719 249.757812 C 633.671875 250.984375 637.070312 252.132812 637.933594 252.246094 C 638.933594 252.394531 639.921875 252.417969 640.910156 252.359375 C 641.082031 252.417969 641.261719 252.460938 641.445312 252.496094 C 642 252.597656 642.558594 252.597656 643.125 252.5625 C 644.113281 252.484375 645.078125 252.222656 646.023438 251.917969 L 647.761719 251.289062 C 648.214844 250.335938 645.964844 248.847656 645.273438 248.824219 C 644.453125 248.800781 643.761719 249.253906 643.078125 249.699219 Z M 102.070312 396.210938 L 102.320312 396.359375 C 102.496094 395.847656 102.472656 395.699219 102.070312 396.210938 Z M 460.464844 200.523438 C 467.351562 200.398438 473.578125 190.046875 472.78125 183.875 C 472.566406 182.171875 471.667969 176.316406 469.476562 175.949219 C 465.066406 175.214844 466.078125 189.519531 464.386719 192.042969 L 465.308594 186.972656 C 460.832031 183.785156 453.242188 200.648438 460.464844 200.523438 Z M 466.113281 205.355469 C 464.523438 205.515625 462.828125 207.050781 461.808594 208.140625 C 459 211.085938 458.238281 214.90625 458.84375 218.820312 C 459.195312 221.195312 463.148438 218.714844 464.101562 218.058594 C 467.078125 216 468.816406 211.78125 468.792969 208.234375 L 466.671875 205.628906 C 466.691406 205.835938 466.316406 205.335938 466.113281 205.355469 Z M 488.699219 161.246094 L 489.222656 159.613281 C 489.074219 159.648438 488.199219 158.261719 487.019531 158.722656 C 483.90625 159.933594 489.484375 164.5 488.699219 161.246094 Z M 342.25 235.691406 C 342.796875 234.578125 343.195312 233.542969 343.25 233.144531 L 343.726562 229.925781 C 344.078125 230.269531 343.296875 228.960938 342.839844 228.777344 C 341.886719 228.371094 340.613281 228.765625 339.875 229.4375 C 339.320312 229.949219 338.570312 233.222656 338.320312 235.78125 L 337.082031 237.261719 C 337.105469 237.523438 336.625 236.691406 336.410156 236.851562 C 334.628906 238.066406 333.070312 241.171875 334.082031 243.296875 C 335.421875 246.117188 340.910156 241.058594 342.25 235.691406 Z M 316.925781 294.746094 C 321.652344 295.828125 321.175781 283.582031 320.574219 281.308594 L 318.878906 282.433594 C 320.230469 282.582031 317.242188 284.660156 316.722656 285.921875 C 316.039062 287.570312 313.800781 294.03125 316.925781 294.746094 Z M 520.785156 204.9375 C 521.523438 201.398438 521.898438 197.867188 522.761719 194.347656 C 523.773438 190.230469 525.796875 184.675781 523.875 180.542969 C 521.511719 175.464844 518.761719 185.601562 518.511719 186.960938 C 517.058594 194.789062 516.910156 204.027344 519.96875 207.289062 Z M 450.34375 181.464844 C 453.980469 180.917969 462.023438 168.34375 462.589844 164.5625 C 463.023438 161.601562 461.195312 157.574219 459.125 162.066406 L 456.261719 167.121094 C 456.796875 167.164062 455.148438 167.183594 454.683594 167.449219 C 453.753906 167.984375 452.808594 168.679688 452.140625 169.523438 C 451.671875 170.097656 451.367188 170.765625 451.117188 171.457031 C 450.34375 173.628906 450.445312 176.035156 450.503906 178.304688 C 450.527344 179.363281 449.296875 181.617188 450.34375 181.464844 Z M 255.152344 329.769531 C 257.324219 330.511719 258.585938 325.109375 258.960938 323.90625 C 260.21875 319.902344 263.503906 310.160156 261.5625 306.121094 C 260.230469 303.394531 258.289062 309.53125 258.1875 310.125 C 257.890625 311.691406 257.835938 313.308594 257.699219 314.898438 C 257.484375 317.402344 256.492188 319.789062 255.753906 322.164062 L 255.515625 320.34375 C 255.414062 321.765625 251.894531 328.65625 255.152344 329.769531 Z M 351.851562 261.859375 C 354.339844 256.71875 352.339844 253.183594 351.203125 248.226562 L 349.273438 250.148438 C 348.203125 248.921875 345.410156 254.378906 345.203125 254.914062 C 343.828125 258.449219 344.476562 264.667969 346.136719 268.125 C 346.75 269.398438 351.554688 262.460938 351.851562 261.859375 Z M 689.570312 127.242188 C 691.171875 127.890625 692.671875 125.808594 694.195312 125.96875 C 694.96875 126.050781 695.25 127.273438 696.023438 127.546875 C 697.96875 128.234375 700.785156 126.648438 702.226562 125.484375 C 705.125 123.152344 706.910156 119.382812 707.191406 115.703125 C 707.296875 114.347656 707.179688 111.40625 705.113281 111.691406 C 701.207031 112.230469 701.011719 117.941406 698.75 120.230469 C 697.945312 121.070312 696.875 120.890625 695.84375 121.164062 C 695.195312 121.34375 694.457031 121.769531 693.855469 122.21875 C 693.921875 122.226562 693.980469 122.230469 693.992188 122.222656 L 693.296875 122.679688 C 693.457031 122.527344 693.648438 122.371094 693.855469 122.21875 C 693.660156 122.195312 693.308594 122.136719 693.117188 122.21875 C 691.832031 122.785156 690.652344 123.917969 689.867188 125.074219 C 689.558594 125.527344 688.683594 126.882812 689.570312 127.242188 Z M 759.839844 132.546875 L 760.523438 131.433594 C 760.046875 131.503906 759.820312 130.703125 759.351562 130.582031 C 758.058594 130.230469 756.648438 130.207031 755.320312 130.40625 C 753.773438 130.640625 748.015625 132.871094 750.46875 135.363281 C 752.898438 137.820312 758.21875 134.53125 759.839844 132.546875 Z M 670.394531 159.15625 C 671.335938 159.671875 672.6875 158.277344 673.246094 157.699219 C 675.039062 155.808594 676.574219 152.808594 676.265625 150.136719 L 675.246094 150.609375 C 672.984375 151.179688 671.246094 154 670.414062 156.230469 C 670.164062 156.886719 669.507812 158.667969 670.394531 159.15625 Z M 738.789062 141.140625 C 739.152344 141 739.515625 140.816406 739.84375 140.609375 C 740.378906 140.277344 740.835938 139.863281 741.242188 139.378906 L 741.105469 138.601562 C 738.914062 137.65625 735.550781 142.351562 738.789062 141.140625 Z M 619.128906 149.726562 L 619.425781 149.621094 C 619.730469 149.625 620.015625 149.640625 620.027344 149.40625 L 619.425781 149.621094 C 619.355469 149.621094 619.277344 149.621094 619.210938 149.625 Z M 608.699219 164.066406 C 607.78125 162.085938 610.652344 157.820312 613.210938 154.761719 C 613.265625 154.566406 613.3125 154.382812 613.335938 154.21875 C 614.175781 149.332031 613.460938 146.84375 618.230469 143.71875 C 619.730469 142.734375 623.09375 140.4375 623.789062 142.148438 C 624.96875 139.820312 626.175781 137.558594 628.480469 135.949219 C 636.171875 130.554688 632.160156 143.53125 630.890625 145.953125 C 628.96875 149.597656 626.46875 153.738281 623.117188 156.246094 C 621.050781 157.792969 620.074219 155.777344 618.527344 157.367188 C 616.449219 159.503906 614.496094 161.855469 611.996094 163.511719 C 611.347656 163.941406 609.269531 165.308594 608.699219 164.066406 Z M 567.070312 153.59375 L 569.867188 149.722656 C 569.742188 149.703125 569.558594 149.675781 569.355469 149.636719 C 571.070312 147.574219 572.570312 144.492188 572.058594 141.070312 L 571.148438 146.582031 C 569.957031 147.878906 567.683594 147.910156 566.640625 149.328125 C 566.003906 150.183594 565.628906 150.835938 565.445312 151.3125 C 564.242188 152.582031 563.3125 154.203125 563.457031 155.84375 C 563.71875 158.777344 566.730469 154.214844 567.070312 153.59375 Z M 640.261719 120.535156 C 642.875 119.351562 645.863281 116.632812 646.191406 113.628906 C 646.488281 110.914062 644.058594 107.410156 641.023438 108.191406 C 639.195312 108.660156 638.570312 110.058594 637.320312 111.214844 L 636.082031 112.59375 C 635.125 111.050781 631.808594 116.808594 631.640625 117.363281 C 630.570312 120.695312 638.101562 121.5 640.261719 120.535156 Z M 543.199219 165.226562 C 543.132812 165.460938 543.066406 165.640625 543.007812 165.734375 L 543.394531 165.296875 C 546.824219 166.453125 550.734375 160.527344 551.539062 157.367188 L 551.257812 156.457031 C 551.609375 155.320312 551.539062 154.332031 550.652344 153.898438 C 550.632812 153.0625 544.882812 153.171875 544.144531 153.566406 C 540.828125 155.351562 539.054688 159.609375 540.996094 163.015625 C 541.679688 164.207031 542.429688 164.902344 543.199219 165.226562 Z M 569.96875 149.585938 L 569.867188 149.722656 C 570.082031 149.75 570.160156 149.726562 569.96875 149.585938 Z M 114.507812 364.78125 L 114.066406 362.964844 C 114.03125 362.441406 112.515625 362.28125 112.21875 362.441406 C 109.203125 364.078125 112.765625 369.113281 114.507812 364.78125 Z M 28.738281 432.136719 C 29.011719 437.105469 32.171875 465.597656 36.777344 464.507812 C 41.703125 463.335938 37.796875 450.25 39.582031 447.121094 C 40.222656 445.996094 47.125 454.84375 48.402344 451.398438 C 50.164062 446.632812 39.023438 427.257812 32.921875 427.589844 L 28.5625 419.878906 C 28.40625 418.492188 28.53125 422.6875 28.53125 424.085938 C 28.527344 426.769531 28.59375 429.453125 28.738281 432.136719 Z M 137.515625 642.933594 C 138.175781 645.039062 141.164062 645.355469 143.003906 645.390625 L 137.503906 638.816406 C 137.472656 639.820312 137.234375 642.011719 137.515625 642.933594 Z M 37.550781 513.179688 C 37.949219 514.886719 43.136719 523.777344 44.664062 521.265625 C 46.546875 518.160156 39.601562 503.460938 37.988281 500.253906 C 37.523438 499.320312 35.445312 494.46875 33.8125 495.160156 C 30.589844 496.535156 37.667969 508.597656 38.640625 511.648438 L 39.085938 512.25 C 39.351562 512.429688 39.546875 512.660156 39.550781 512.875 L 39.085938 512.25 C 38.386719 511.773438 37.195312 511.667969 37.550781 513.179688 Z M 156.242188 622.582031 L 158.230469 624.652344 C 158.367188 624.492188 158.34375 625.0625 158.433594 625.253906 C 159.183594 626.789062 163.628906 630.960938 164.910156 628.140625 C 166.582031 624.433594 158.34375 622.742188 156.242188 622.582031 Z M 176.863281 651.597656 C 176.910156 651.597656 176.898438 651.585938 176.863281 651.585938 Z M 137.304688 638.589844 L 137.507812 638.816406 C 137.519531 638.316406 137.484375 638.136719 137.304688 638.589844 Z M 145.390625 635.089844 L 141.769531 635.375 C 141.289062 635.03125 142.484375 636.339844 142.894531 636.773438 C 143.859375 637.828125 144.902344 638.828125 145.984375 639.761719 C 148.234375 641.695312 155.945312 648.300781 158.777344 644.082031 C 164.265625 635.894531 149.4375 634.746094 145.390625 635.089844 Z M 45.667969 498.527344 C 45.976562 501.324219 48.046875 510.113281 52.722656 507.144531 C 63.039062 500.59375 40.136719 470.386719 44.296875 489.667969 L 46.042969 492.863281 C 46.347656 492.304688 45.574219 494.070312 45.53125 494.707031 C 45.445312 495.980469 45.53125 497.265625 45.667969 498.527344 Z M 102.960938 419.242188 C 108.402344 419.8125 105.136719 400.847656 105.171875 398.140625 L 102.324219 396.367188 C 101.898438 397.597656 100.320312 400.949219 100.113281 402.472656 C 99.730469 405.363281 98.167969 418.753906 102.960938 419.242188 Z M 170.125 330.96875 C 173.375 330.796875 172.886719 327.058594 172.839844 323.761719 C 174.308594 323.964844 175.476562 321.394531 174.738281 319.78125 L 174.511719 316.710938 C 174.410156 316.8125 173.851562 316.757812 173.660156 316.902344 C 173.195312 317.246094 172.773438 317.675781 172.410156 318.132812 C 171.46875 319.269531 170.601562 321.203125 171.410156 322.632812 C 167.945312 323.511719 166.582031 331.152344 170.125 330.96875 Z M 188.917969 347.636719 C 192.417969 346.273438 190.226562 337.109375 189.691406 334.617188 C 189.464844 333.527344 189.203125 332.402344 188.746094 331.367188 C 188.589844 331.003906 187.746094 330.46875 187.464844 330.296875 L 187.246094 333.617188 C 186.863281 335.765625 185.863281 348.832031 188.917969 347.636719 Z M 155.675781 385.941406 C 159.753906 386.714844 159.230469 379.152344 158.503906 374.332031 C 159.671875 373.980469 160.289062 371.617188 160.183594 370.375 C 160.105469 369.320312 159.84375 368.296875 159.433594 367.328125 L 158.378906 365.328125 C 156.4375 365.953125 155.503906 369.035156 155.925781 371.445312 C 155.402344 372.242188 154.992188 373.082031 154.742188 373.605469 C 153.640625 375.914062 151.300781 385.125 155.675781 385.941406 Z M 60.019531 475.445312 C 63.824219 474.320312 60.011719 459.628906 57.726562 457.207031 L 55.132812 460.742188 C 54.992188 459.730469 54.671875 464.394531 54.691406 464.929688 C 54.78125 467.464844 55.507812 476.765625 60.019531 475.445312 Z M 238.703125 338.996094 C 238.941406 337.902344 239.042969 336.777344 239.078125 335.664062 C 239.132812 334.039062 239.03125 332.433594 238.625 330.867188 L 237.417969 330.605469 C 230.816406 331.914062 235.863281 352.457031 238.703125 338.996094 Z M 187.460938 330.296875 L 187.460938 330.285156 C 187.328125 330.207031 187.347656 330.230469 187.460938 330.296875 Z M 176.148438 651.699219 C 176.214844 651.792969 176.214844 651.746094 176.214844 651.609375 C 176.148438 651.632812 176.125 651.65625 176.148438 651.699219 Z M 248.917969 306 L 251.257812 303.566406 C 251.109375 305.464844 251.382812 316.757812 247.257812 315.484375 C 243.917969 314.449219 248.917969 306 248.917969 306 "/>
</g>
</g>
</svg>
