<?xml version="1.0" encoding="UTF-8"?>
<svg xmlns="http://www.w3.org/2000/svg" xmlns:xlink="http://www.w3.org/1999/xlink" width="224.87999pt" height="225pt" viewBox="0 0 224.87999 225" version="1.2">
<defs>
<clipPath id="clip1">
  <path d="M 0 54.765625 L 224.761719 54.765625 L 224.761719 116.980469 L 0 116.980469 Z M 0 54.765625 "/>
</clipPath>
</defs>
<g id="surface1">
<g clip-path="url(#clip1)" clip-rule="nonzero">
<path style=" stroke:none;fill-rule:nonzero;fill:rgb(49.409485%,55.688477%,39.608765%);fill-opacity:1;" d="M 105.179688 100.898438 L 118.886719 100.898438 L 118.886719 113.414062 L 105.179688 113.414062 Z M 64.988281 89.082031 L 75.675781 89.082031 L 75.675781 100.898438 L 64.988281 100.898438 Z M 24.742188 113.414062 L 45.359375 113.414062 L 45.359375 100.898438 L 35.542969 100.898438 Z M 60.054688 113.414062 L 79.683594 113.414062 L 79.683594 106.484375 L 57.265625 106.484375 Z M 48.089844 113.414062 L 53.546875 112.132812 L 55.929688 94.960938 L 49.597656 93.5625 Z M 35.078125 96.648438 L 45.359375 96.648438 L 45.359375 89.082031 L 34.148438 89.082031 Z M 48.089844 84.367188 L 55.929688 84.367188 L 55.929688 91.117188 L 48.089844 91.117188 Z M 58.777344 99.269531 L 62.492188 98.394531 L 60.925781 82.210938 L 58.71875 82.210938 L 58.71875 99.269531 Z M 82.53125 113.414062 L 89.5 113.414062 L 89.5 96.648438 L 85.375 96.648438 Z M 82.53125 103.460938 L 83.867188 90.710938 L 78 90.710938 L 78 102.527344 Z M 94.726562 103.460938 L 94.726562 115.390625 L 103.4375 115.390625 L 102.566406 103.460938 Z M 92.808594 105.03125 L 92.808594 92.863281 L 90.429688 92.863281 Z M 106.75 96.648438 L 106.75 87.742188 L 93.679688 87.742188 L 94.785156 97.054688 Z M 117.839844 98.917969 L 117.839844 90.710938 L 108.898438 89.082031 L 108.898438 98.917969 Z M 86.015625 90.710938 L 91.589844 90.710938 L 92.808594 83.492188 L 86.074219 83.492188 L 86.074219 90.710938 Z M 83.867188 76.742188 L 73.585938 75.867188 L 73.585938 85.707031 L 83.867188 87.101562 Z M 64.988281 85.9375 L 70.332031 85.9375 L 68.472656 78.71875 L 64.988281 78.71875 Z M 93.855469 75.75 L 104.308594 75.75 L 104.308594 82.503906 L 93.855469 82.503906 Z M 49.597656 81.515625 L 49.597656 70.394531 L 45.359375 70.394531 L 43.5 84.367188 Z M 27.585938 102.292969 L 32.8125 99.210938 L 31.070312 89.023438 L 27.585938 89.023438 Z M 19.515625 106.484375 L 24.742188 107.183594 L 24.742188 97.929688 L 19.515625 97.929688 Z M 17.132812 108.230469 L 17.132812 113.414062 L 22.128906 113.414062 L 24.742188 109.453125 Z M 51.980469 67.660156 L 62.667969 67.660156 L 62.667969 79.476562 L 51.980469 79.476562 Z M 121.847656 91.175781 L 132.535156 91.175781 L 132.535156 102.992188 L 121.847656 102.992188 Z M 41.585938 77.4375 L 28.515625 77.4375 L 29.621094 86.753906 L 41.585938 86.289062 Z M 76.835938 64.574219 L 63.769531 64.574219 L 64.875 73.886719 L 76.835938 73.421875 Z M 24.160156 82.738281 L 14.867188 83.84375 L 15.332031 95.890625 L 24.160156 95.890625 Z M 127.074219 114.578125 L 139.097656 114.113281 L 139.097656 105.261719 L 126.03125 105.261719 Z M 168.601562 100.898438 L 182.308594 100.898438 L 182.308594 113.414062 L 168.601562 113.414062 Z M 201.183594 68.242188 L 201.183594 80.175781 L 209.894531 80.175781 L 209.023438 68.242188 Z M 153.851562 109.921875 L 165.8125 109.453125 L 165.8125 100.605469 L 152.746094 100.605469 Z M 203.042969 102.527344 L 203.042969 94.320312 L 194.097656 92.691406 L 194.097656 102.527344 Z M 205.25 92.632812 L 215.703125 92.632812 L 215.703125 99.382812 L 205.25 99.382812 Z M 168.136719 56.832031 L 178.824219 56.832031 L 178.824219 68.648438 L 168.136719 68.648438 Z M 165.8125 68.417969 L 165.8125 59.570312 L 152.746094 59.570312 L 153.851562 68.882812 Z M 104.832031 59.046875 L 115.519531 59.046875 L 115.519531 70.863281 L 104.832031 70.863281 Z M 171.5625 74.179688 L 161.75 74.179688 L 150.945312 86.695312 L 171.5625 86.695312 Z M 25.730469 80.933594 L 25.730469 74.003906 L 3.253906 74.003906 L 6.097656 80.933594 Z M 143.511719 94.261719 L 142.003906 114.113281 L 147.460938 112.832031 L 149.84375 95.660156 Z M 102.507812 64.980469 L 91.300781 64.980469 L 92.230469 72.492188 L 102.507812 72.492188 Z M 155.359375 87.335938 L 163.199219 87.335938 L 163.199219 94.085938 L 155.359375 94.085938 Z M 123.765625 70.917969 L 121.558594 70.917969 L 121.558594 87.976562 L 125.273438 87.101562 Z M 208.617188 55.960938 L 205.132812 55.960938 L 205.132812 63.179688 L 210.476562 63.179688 Z M 133.40625 86.054688 L 133.40625 74.9375 L 129.167969 74.9375 L 127.308594 88.90625 Z M 135.382812 85.648438 L 135.382812 98.859375 L 140.609375 95.832031 L 138.867188 85.648438 Z M 203.796875 55.902344 L 198.570312 55.902344 L 198.570312 64.398438 L 203.796875 65.097656 Z M 191.484375 67.777344 L 191.484375 72.957031 L 196.480469 72.957031 L 199.09375 69 Z M 108.027344 72.78125 L 118.710938 72.78125 L 118.710938 84.597656 L 108.027344 84.597656 Z M 50.0625 65.507812 L 50.0625 56.660156 L 36.9375 56.660156 L 38.042969 65.972656 Z M 128.875 57.472656 L 116.855469 57.9375 L 116.855469 66.785156 L 129.921875 66.785156 Z M 89.964844 60.792969 L 80.671875 61.898438 L 81.136719 73.886719 L 89.964844 73.886719 Z M 5.75 103.460938 L 5.75 115.390625 L 14.460938 115.390625 L 13.589844 103.460938 Z M 28.921875 68.300781 L 39.378906 68.300781 L 39.378906 75.050781 L 28.921875 75.050781 Z M 211.8125 56.660156 L 222.441406 56.660156 L 222.441406 68.476562 L 211.753906 68.476562 L 211.753906 56.660156 Z M 13.066406 89.605469 L 0 89.605469 L 1.101562 98.917969 L 13.066406 98.453125 Z M 83.867188 57.296875 L 53.898438 57.472656 L 53.898438 63.703125 L 85.316406 59.046875 Z M 103.4375 56.660156 L 88.453125 56.660156 L 102.507812 62.128906 Z M 24.742188 66.785156 L 34.09375 66.785156 L 35.019531 58.289062 L 24.742188 59.046875 Z M 10.800781 55.492188 L 10.164062 59.394531 L 32.117188 56.660156 Z M 20.910156 72.78125 L 20.910156 63.703125 L 12.429688 63.703125 L 13.066406 71.734375 Z M 22.242188 59.394531 L 10.976562 60.792969 L 10.976562 62.539062 L 23.40625 62.128906 Z M 26.832031 68.707031 L 23.40625 68.707031 L 22.242188 72.492188 L 26.832031 72.492188 Z M 8.1875 57.296875 L 3.253906 54.855469 L 3.253906 70.628906 L 10.105469 70.628906 Z M 142.003906 68.242188 L 127.191406 68.300781 L 127.308594 72.492188 L 142.003906 74.9375 Z M 139.039062 65.972656 L 139.039062 56.660156 L 131.839844 56.660156 L 132.535156 66.785156 Z M 149.84375 56.660156 L 140.609375 57.296875 L 140.609375 66.03125 L 150.945312 67.367188 Z M 154.429688 70.394531 L 147.054688 70.394531 L 145.253906 78.71875 L 154.429688 79.476562 Z M 135.382812 83.492188 L 140.609375 83.492188 L 140.609375 77.496094 L 135.382812 77.382812 Z M 147.695312 81.515625 L 143.105469 80.988281 L 142.003906 92.28125 L 148.855469 92.28125 Z M 188.289062 70.105469 L 175.339844 70.105469 L 173.480469 80.523438 L 188.289062 80.523438 Z M 221.164062 71.152344 L 212.21875 70.164062 L 214.425781 81.570312 L 222.035156 81.570312 Z M 213.324219 83.550781 L 176.847656 84.425781 L 176.035156 90.59375 L 214.484375 90.59375 Z M 217.214844 83.785156 L 220.816406 103.34375 L 224.878906 85.007812 Z M 185.097656 109.222656 L 189.683594 109.921875 L 190.847656 93.214844 L 187.417969 92.632812 Z M 156.871094 95.777344 L 183.0625 95.777344 L 183.0625 98.453125 L 156.871094 98.453125 Z M 10.976562 82.910156 L 3.253906 82.910156 L 2.03125 85.878906 L 10.917969 86.695312 L 10.917969 82.910156 Z M 195.957031 58.230469 L 180.855469 56.601562 L 180.855469 65.332031 L 195.957031 65.332031 Z M 148.796875 116.964844 L 165.058594 116.964844 L 165.058594 113.414062 L 151.816406 112.191406 Z M 190.789062 81.570312 L 198.511719 80.582031 L 197.640625 75.867188 L 190.789062 75.75 Z M 194.097656 109.921875 L 205.132812 109.921875 L 205.132812 104.15625 L 194.097656 105.03125 Z M 207.804688 108.289062 L 217.214844 108.289062 L 218.085938 100.898438 L 207.746094 102.296875 L 207.746094 108.289062 Z M 207.804688 108.289062 "/>
</g>
</g>
</svg>
