<?xml version="1.0" encoding="UTF-8"?>
<svg xmlns="http://www.w3.org/2000/svg" xmlns:xlink="http://www.w3.org/1999/xlink" width="224.87999pt" height="225pt" viewBox="0 0 224.87999 225" version="1.2">
<defs>
<clipPath id="clip1">
  <path d="M 0 0.0585938 L 224.761719 0.0585938 L 224.761719 57.5625 L 0 57.5625 Z M 0 0.0585938 "/>
</clipPath>
<clipPath id="clip2">
  <path d="M 0 50.351562 L 224.761719 50.351562 L 224.761719 112.496094 L 0 112.496094 Z M 0 50.351562 "/>
</clipPath>
<clipPath id="clip3">
  <path d="M 0 112.5 L 224.761719 112.5 L 224.761719 174.71875 L 0 174.71875 Z M 0 112.5 "/>
</clipPath>
<clipPath id="clip4">
  <path d="M 0 167.507812 L 224.761719 167.507812 L 224.761719 224.9375 L 0 224.9375 Z M 0 167.507812 "/>
</clipPath>
</defs>
<g id="surface1">
<g clip-path="url(#clip1)" clip-rule="nonzero">
<path style=" stroke:none;fill-rule:nonzero;fill:rgb(49.409485%,55.688477%,39.608765%);fill-opacity:1;" d="M 105.179688 41.476562 L 118.886719 41.476562 L 118.886719 53.992188 L 105.179688 53.992188 Z M 64.988281 29.660156 L 75.675781 29.660156 L 75.675781 41.476562 L 64.988281 41.476562 Z M 24.742188 53.992188 L 45.359375 53.992188 L 45.359375 41.476562 L 35.542969 41.476562 Z M 60.054688 53.992188 L 79.683594 53.992188 L 79.683594 47.066406 L 57.265625 47.066406 Z M 48.089844 53.992188 L 53.546875 52.710938 L 55.929688 35.539062 L 49.597656 34.144531 Z M 35.078125 37.226562 L 45.359375 37.226562 L 45.359375 29.660156 L 34.148438 29.660156 Z M 48.089844 24.945312 L 55.929688 24.945312 L 55.929688 31.699219 L 48.089844 31.699219 Z M 58.777344 39.847656 L 62.492188 38.972656 L 60.925781 22.792969 L 58.71875 22.792969 L 58.71875 39.847656 Z M 82.53125 53.992188 L 89.5 53.992188 L 89.5 37.226562 L 85.375 37.226562 Z M 82.53125 44.039062 L 83.867188 31.289062 L 78 31.289062 L 78 43.105469 Z M 94.726562 44.039062 L 94.726562 55.972656 L 103.4375 55.972656 L 102.566406 44.039062 Z M 92.808594 45.609375 L 92.808594 33.445312 L 90.429688 33.445312 Z M 106.75 37.226562 L 106.75 28.320312 L 93.679688 28.320312 L 94.785156 37.636719 Z M 117.839844 39.5 L 117.839844 31.289062 L 108.898438 29.660156 L 108.898438 39.5 Z M 86.015625 31.289062 L 91.589844 31.289062 L 92.808594 24.074219 L 86.074219 24.074219 L 86.074219 31.289062 Z M 83.867188 17.320312 L 73.585938 16.445312 L 73.585938 26.285156 L 83.867188 27.679688 Z M 64.988281 26.515625 L 70.332031 26.515625 L 68.472656 19.300781 L 64.988281 19.300781 Z M 93.855469 16.332031 L 104.308594 16.332031 L 104.308594 23.082031 L 93.855469 23.082031 Z M 49.597656 22.09375 L 49.597656 10.976562 L 45.359375 10.976562 L 43.5 24.945312 Z M 27.585938 42.875 L 32.8125 39.789062 L 31.070312 29.601562 L 27.585938 29.601562 Z M 19.515625 47.066406 L 24.742188 47.765625 L 24.742188 38.507812 L 19.515625 38.507812 Z M 17.132812 48.8125 L 17.132812 53.992188 L 22.128906 53.992188 L 24.742188 50.035156 Z M 51.980469 8.238281 L 62.667969 8.238281 L 62.667969 20.054688 L 51.980469 20.054688 Z M 121.847656 31.757812 L 132.535156 31.757812 L 132.535156 43.574219 L 121.847656 43.574219 Z M 41.585938 18.019531 L 28.515625 18.019531 L 29.621094 27.332031 L 41.585938 26.867188 Z M 76.835938 5.152344 L 63.769531 5.152344 L 64.875 14.46875 L 76.835938 14.003906 Z M 24.160156 23.316406 L 14.867188 24.421875 L 15.332031 36.472656 L 24.160156 36.472656 Z M 127.074219 55.15625 L 139.097656 54.691406 L 139.097656 45.84375 L 126.03125 45.84375 Z M 168.601562 41.476562 L 182.308594 41.476562 L 182.308594 53.992188 L 168.601562 53.992188 Z M 201.183594 8.820312 L 201.183594 20.753906 L 209.894531 20.753906 L 209.023438 8.820312 Z M 153.851562 50.5 L 165.8125 50.035156 L 165.8125 41.1875 L 152.746094 41.1875 Z M 203.042969 43.105469 L 203.042969 34.898438 L 194.097656 33.269531 L 194.097656 43.105469 Z M 205.25 33.210938 L 215.703125 33.210938 L 215.703125 39.964844 L 205.25 39.964844 Z M 168.136719 -2.585938 L 178.824219 -2.585938 L 178.824219 9.230469 L 168.136719 9.230469 Z M 165.8125 8.996094 L 165.8125 0.148438 L 152.746094 0.148438 L 153.851562 9.460938 Z M 104.832031 -0.375 L 115.519531 -0.375 L 115.519531 11.441406 L 104.832031 11.441406 Z M 171.5625 14.757812 L 161.75 14.757812 L 150.945312 27.273438 L 171.5625 27.273438 Z M 25.730469 21.511719 L 25.730469 14.585938 L 3.253906 14.585938 L 6.097656 21.511719 Z M 143.511719 34.839844 L 142.003906 54.691406 L 147.460938 53.410156 L 149.84375 36.238281 Z M 102.507812 5.5625 L 91.300781 5.5625 L 92.230469 13.070312 L 102.507812 13.070312 Z M 155.359375 27.914062 L 163.199219 27.914062 L 163.199219 34.667969 L 155.359375 34.667969 Z M 123.765625 11.5 L 121.558594 11.5 L 121.558594 28.554688 L 125.273438 27.679688 Z M 208.617188 -3.460938 L 205.132812 -3.460938 L 205.132812 3.757812 L 210.476562 3.757812 Z M 133.40625 26.632812 L 133.40625 15.515625 L 129.167969 15.515625 L 127.308594 29.484375 Z M 135.382812 26.226562 L 135.382812 39.441406 L 140.609375 36.414062 L 138.867188 26.226562 Z M 203.796875 -3.519531 L 198.570312 -3.519531 L 198.570312 4.980469 L 203.796875 5.679688 Z M 191.484375 8.355469 L 191.484375 13.535156 L 196.480469 13.535156 L 199.09375 9.578125 Z M 108.027344 13.363281 L 118.710938 13.363281 L 118.710938 25.179688 L 108.027344 25.179688 Z M 50.0625 6.085938 L 50.0625 -2.761719 L 36.9375 -2.761719 L 38.042969 6.550781 Z M 128.875 -1.949219 L 116.855469 -1.480469 L 116.855469 7.367188 L 129.921875 7.367188 Z M 89.964844 1.371094 L 80.671875 2.476562 L 81.136719 14.46875 L 89.964844 14.46875 Z M 5.75 44.039062 L 5.75 55.972656 L 14.460938 55.972656 L 13.589844 44.039062 Z M 28.921875 8.878906 L 39.378906 8.878906 L 39.378906 15.632812 L 28.921875 15.632812 Z M 211.8125 -2.761719 L 222.441406 -2.761719 L 222.441406 9.054688 L 211.753906 9.054688 L 211.753906 -2.761719 Z M 13.066406 30.183594 L 0 30.183594 L 1.101562 39.5 L 13.066406 39.03125 Z M 83.867188 -2.121094 L 53.898438 -1.949219 L 53.898438 4.28125 L 85.316406 -0.375 Z M 103.4375 -2.761719 L 88.453125 -2.761719 L 102.507812 2.710938 Z M 24.742188 7.367188 L 34.09375 7.367188 L 35.019531 -1.132812 L 24.742188 -0.375 Z M 10.800781 -3.925781 L 10.164062 -0.0273438 L 32.117188 -2.761719 Z M 20.910156 13.363281 L 20.910156 4.28125 L 12.429688 4.28125 L 13.066406 12.3125 Z M 22.242188 -0.0273438 L 10.976562 1.371094 L 10.976562 3.117188 L 23.40625 2.710938 Z M 26.832031 9.289062 L 23.40625 9.289062 L 22.242188 13.070312 L 26.832031 13.070312 Z M 8.1875 -2.121094 L 3.253906 -4.566406 L 3.253906 11.207031 L 10.105469 11.207031 Z M 142.003906 8.820312 L 127.191406 8.878906 L 127.308594 13.070312 L 142.003906 15.515625 Z M 139.039062 6.550781 L 139.039062 -2.761719 L 131.839844 -2.761719 L 132.535156 7.367188 Z M 149.84375 -2.761719 L 140.609375 -2.121094 L 140.609375 6.609375 L 150.945312 7.949219 Z M 154.429688 10.976562 L 147.054688 10.976562 L 145.253906 19.300781 L 154.429688 20.054688 Z M 135.382812 24.074219 L 140.609375 24.074219 L 140.609375 18.078125 L 135.382812 17.960938 Z M 147.695312 22.09375 L 143.105469 21.570312 L 142.003906 32.863281 L 148.855469 32.863281 Z M 188.289062 10.683594 L 175.339844 10.683594 L 173.480469 21.105469 L 188.289062 21.105469 Z M 221.164062 11.730469 L 212.21875 10.742188 L 214.425781 22.152344 L 222.035156 22.152344 Z M 213.324219 24.128906 L 176.847656 25.003906 L 176.035156 31.175781 L 214.484375 31.175781 Z M 217.214844 24.363281 L 220.816406 43.921875 L 224.878906 25.585938 Z M 185.097656 49.800781 L 189.683594 50.5 L 190.847656 33.792969 L 187.417969 33.210938 Z M 156.871094 36.355469 L 183.0625 36.355469 L 183.0625 39.03125 L 156.871094 39.03125 Z M 10.976562 23.492188 L 3.253906 23.492188 L 2.03125 26.460938 L 10.917969 27.273438 L 10.917969 23.492188 Z M 195.957031 -1.191406 L 180.855469 -2.820312 L 180.855469 5.910156 L 195.957031 5.910156 Z M 148.796875 57.542969 L 165.058594 57.542969 L 165.058594 53.992188 L 151.816406 52.769531 Z M 190.789062 22.152344 L 198.511719 21.160156 L 197.640625 16.445312 L 190.789062 16.332031 Z M 194.097656 50.5 L 205.132812 50.5 L 205.132812 44.738281 L 194.097656 45.609375 Z M 207.804688 48.871094 L 217.214844 48.871094 L 218.085938 41.476562 L 207.746094 42.875 L 207.746094 48.871094 Z M 207.804688 48.871094 "/>
</g>
<g clip-path="url(#clip2)" clip-rule="nonzero">
<path style=" stroke:none;fill-rule:nonzero;fill:rgb(49.409485%,55.688477%,39.608765%);fill-opacity:1;" d="M 105.179688 66.367188 L 118.886719 66.367188 L 118.886719 53.851562 L 105.179688 53.851562 Z M 64.988281 78.183594 L 75.675781 78.183594 L 75.675781 66.367188 L 64.988281 66.367188 Z M 24.742188 53.851562 L 45.359375 53.851562 L 45.359375 66.367188 L 35.542969 66.367188 Z M 60.054688 53.851562 L 79.683594 53.851562 L 79.683594 60.777344 L 57.265625 60.777344 Z M 48.089844 53.851562 L 53.546875 55.128906 L 55.929688 72.300781 L 49.597656 73.699219 Z M 35.078125 70.613281 L 45.359375 70.613281 L 45.359375 78.183594 L 34.148438 78.183594 Z M 48.089844 82.898438 L 55.929688 82.898438 L 55.929688 76.144531 L 48.089844 76.144531 Z M 58.777344 67.996094 L 62.492188 68.867188 L 60.925781 85.050781 L 58.71875 85.050781 L 58.71875 67.996094 Z M 82.53125 53.851562 L 89.5 53.851562 L 89.5 70.613281 L 85.375 70.613281 Z M 82.53125 63.804688 L 83.867188 76.550781 L 78 76.550781 L 78 64.734375 Z M 94.726562 63.804688 L 94.726562 51.871094 L 103.4375 51.871094 L 102.566406 63.804688 Z M 92.808594 62.230469 L 92.808594 74.398438 L 90.429688 74.398438 Z M 106.75 70.613281 L 106.75 79.519531 L 93.679688 79.519531 L 94.785156 70.207031 Z M 117.839844 68.34375 L 117.839844 76.550781 L 108.898438 78.183594 L 108.898438 68.34375 Z M 86.015625 76.550781 L 91.589844 76.550781 L 92.808594 83.769531 L 86.074219 83.769531 L 86.074219 76.550781 Z M 83.867188 90.523438 L 73.585938 91.394531 L 73.585938 81.558594 L 83.867188 80.160156 Z M 64.988281 81.324219 L 70.332031 81.324219 L 68.472656 88.542969 L 64.988281 88.542969 Z M 93.855469 91.511719 L 104.308594 91.511719 L 104.308594 84.757812 L 93.855469 84.757812 Z M 49.597656 85.75 L 49.597656 96.867188 L 45.359375 96.867188 L 43.5 82.898438 Z M 27.585938 64.96875 L 32.8125 68.054688 L 31.070312 78.238281 L 27.585938 78.238281 Z M 19.515625 60.777344 L 24.742188 60.078125 L 24.742188 69.332031 L 19.515625 69.332031 Z M 17.132812 59.03125 L 17.132812 53.851562 L 22.128906 53.851562 L 24.742188 57.808594 Z M 51.980469 99.601562 L 62.667969 99.601562 L 62.667969 87.785156 L 51.980469 87.785156 Z M 121.847656 76.085938 L 132.535156 76.085938 L 132.535156 64.269531 L 121.847656 64.269531 Z M 41.585938 89.824219 L 28.515625 89.824219 L 29.621094 80.511719 L 41.585938 80.976562 Z M 76.835938 102.6875 L 63.769531 102.6875 L 64.875 93.375 L 76.835938 93.839844 Z M 24.160156 84.527344 L 14.867188 83.421875 L 15.332031 71.371094 L 24.160156 71.371094 Z M 127.074219 52.6875 L 139.097656 53.152344 L 139.097656 62 L 126.03125 62 Z M 168.601562 66.367188 L 182.308594 66.367188 L 182.308594 53.851562 L 168.601562 53.851562 Z M 201.183594 99.019531 L 201.183594 87.089844 L 209.894531 87.089844 L 209.023438 99.019531 Z M 153.851562 57.34375 L 165.8125 57.808594 L 165.8125 66.65625 L 152.746094 66.65625 Z M 203.042969 64.734375 L 203.042969 72.941406 L 194.097656 74.574219 L 194.097656 64.734375 Z M 205.25 74.632812 L 215.703125 74.632812 L 215.703125 67.878906 L 205.25 67.878906 Z M 168.136719 110.429688 L 178.824219 110.429688 L 178.824219 98.613281 L 168.136719 98.613281 Z M 165.8125 98.847656 L 165.8125 107.695312 L 152.746094 107.695312 L 153.851562 98.378906 Z M 104.832031 108.21875 L 115.519531 108.21875 L 115.519531 96.402344 L 104.832031 96.402344 Z M 171.5625 93.082031 L 161.75 93.082031 L 150.945312 80.570312 L 171.5625 80.570312 Z M 25.730469 86.332031 L 25.730469 93.257812 L 3.253906 93.257812 L 6.097656 86.332031 Z M 143.511719 73 L 142.003906 53.152344 L 147.460938 54.433594 L 149.84375 71.605469 Z M 102.507812 102.28125 L 91.300781 102.28125 L 92.230469 94.773438 L 102.507812 94.773438 Z M 155.359375 79.929688 L 163.199219 79.929688 L 163.199219 73.175781 L 155.359375 73.175781 Z M 123.765625 96.34375 L 121.558594 96.34375 L 121.558594 79.289062 L 125.273438 80.160156 Z M 208.617188 111.304688 L 205.132812 111.304688 L 205.132812 104.085938 L 210.476562 104.085938 Z M 133.40625 81.207031 L 133.40625 92.328125 L 129.167969 92.328125 L 127.308594 78.355469 Z M 135.382812 81.617188 L 135.382812 68.402344 L 140.609375 71.429688 L 138.867188 81.617188 Z M 203.796875 111.363281 L 198.570312 111.363281 L 198.570312 102.863281 L 203.796875 102.164062 Z M 191.484375 99.488281 L 191.484375 94.304688 L 196.480469 94.304688 L 199.09375 98.265625 Z M 108.027344 94.480469 L 118.710938 94.480469 L 118.710938 82.664062 L 108.027344 82.664062 Z M 50.0625 101.757812 L 50.0625 110.605469 L 36.9375 110.605469 L 38.042969 101.292969 Z M 128.875 109.789062 L 116.855469 109.324219 L 116.855469 100.476562 L 129.921875 100.476562 Z M 89.964844 106.472656 L 80.671875 105.367188 L 81.136719 93.375 L 89.964844 93.375 Z M 5.75 63.804688 L 5.75 51.871094 L 14.460938 51.871094 L 13.589844 63.804688 Z M 28.921875 98.960938 L 39.378906 98.960938 L 39.378906 92.210938 L 28.921875 92.210938 Z M 211.8125 110.605469 L 222.441406 110.605469 L 222.441406 98.789062 L 211.753906 98.789062 L 211.753906 110.605469 Z M 13.066406 77.65625 L 0 77.65625 L 1.101562 68.34375 L 13.066406 68.808594 Z M 83.867188 109.964844 L 53.898438 109.789062 L 53.898438 103.5625 L 85.316406 108.21875 Z M 103.4375 110.605469 L 88.453125 110.605469 L 102.507812 105.132812 Z M 24.742188 100.476562 L 34.09375 100.476562 L 35.019531 108.976562 L 24.742188 108.21875 Z M 10.800781 111.769531 L 10.164062 107.867188 L 32.117188 110.605469 Z M 20.910156 94.480469 L 20.910156 103.5625 L 12.429688 103.5625 L 13.066406 95.527344 Z M 22.242188 107.867188 L 10.976562 106.472656 L 10.976562 104.726562 L 23.40625 105.132812 Z M 26.832031 98.554688 L 23.40625 98.554688 L 22.242188 94.773438 L 26.832031 94.773438 Z M 8.1875 109.964844 L 3.253906 112.410156 L 3.253906 96.632812 L 10.105469 96.632812 Z M 142.003906 99.019531 L 127.191406 98.960938 L 127.308594 94.773438 L 142.003906 92.328125 Z M 139.039062 101.292969 L 139.039062 110.605469 L 131.839844 110.605469 L 132.535156 100.476562 Z M 149.84375 110.605469 L 140.609375 109.964844 L 140.609375 101.234375 L 150.945312 99.894531 Z M 154.429688 96.867188 L 147.054688 96.867188 L 145.253906 88.542969 L 154.429688 87.785156 Z M 135.382812 83.769531 L 140.609375 83.769531 L 140.609375 89.765625 L 135.382812 89.882812 Z M 147.695312 85.75 L 143.105469 86.273438 L 142.003906 74.980469 L 148.855469 74.980469 Z M 188.289062 97.160156 L 175.339844 97.160156 L 173.480469 86.738281 L 188.289062 86.738281 Z M 221.164062 96.109375 L 212.21875 97.101562 L 214.425781 85.691406 L 222.035156 85.691406 Z M 213.324219 83.710938 L 176.847656 82.839844 L 176.035156 76.667969 L 214.484375 76.667969 Z M 217.214844 83.480469 L 220.816406 63.921875 L 224.878906 82.257812 Z M 185.097656 58.042969 L 189.683594 57.34375 L 190.847656 74.050781 L 187.417969 74.632812 Z M 156.871094 71.488281 L 183.0625 71.488281 L 183.0625 68.808594 L 156.871094 68.808594 Z M 10.976562 84.351562 L 3.253906 84.351562 L 2.03125 81.382812 L 10.917969 80.570312 L 10.917969 84.351562 Z M 195.957031 109.03125 L 180.855469 110.664062 L 180.855469 101.929688 L 195.957031 101.929688 Z M 148.796875 50.300781 L 165.058594 50.300781 L 165.058594 53.851562 L 151.816406 55.074219 Z M 190.789062 85.691406 L 198.511719 86.679688 L 197.640625 91.394531 L 190.789062 91.511719 Z M 194.097656 57.34375 L 205.132812 57.34375 L 205.132812 63.105469 L 194.097656 62.230469 Z M 207.804688 58.972656 L 217.214844 58.972656 L 218.085938 66.367188 L 207.746094 64.96875 L 207.746094 58.972656 Z M 207.804688 58.972656 "/>
</g>
<g clip-path="url(#clip3)" clip-rule="nonzero">
<path style=" stroke:none;fill-rule:nonzero;fill:rgb(49.409485%,55.688477%,39.608765%);fill-opacity:1;" d="M 105.179688 158.632812 L 118.886719 158.632812 L 118.886719 171.148438 L 105.179688 171.148438 Z M 64.988281 146.816406 L 75.675781 146.816406 L 75.675781 158.632812 L 64.988281 158.632812 Z M 24.742188 171.148438 L 45.359375 171.148438 L 45.359375 158.632812 L 35.542969 158.632812 Z M 60.054688 171.148438 L 79.683594 171.148438 L 79.683594 164.222656 L 57.265625 164.222656 Z M 48.089844 171.148438 L 53.546875 169.867188 L 55.929688 152.695312 L 49.597656 151.296875 Z M 35.078125 154.382812 L 45.359375 154.382812 L 45.359375 146.816406 L 34.148438 146.816406 Z M 48.089844 142.101562 L 55.929688 142.101562 L 55.929688 148.851562 L 48.089844 148.851562 Z M 58.777344 157.003906 L 62.492188 156.128906 L 60.925781 139.945312 L 58.71875 139.945312 L 58.71875 157.003906 Z M 82.53125 171.148438 L 89.5 171.148438 L 89.5 154.382812 L 85.375 154.382812 Z M 82.53125 161.195312 L 83.867188 148.445312 L 78 148.445312 L 78 160.261719 Z M 94.726562 161.195312 L 94.726562 173.125 L 103.4375 173.125 L 102.566406 161.195312 Z M 92.808594 162.765625 L 92.808594 150.601562 L 90.429688 150.601562 Z M 106.75 154.382812 L 106.75 145.476562 L 93.679688 145.476562 L 94.785156 154.789062 Z M 117.839844 156.652344 L 117.839844 148.445312 L 108.898438 146.816406 L 108.898438 156.652344 Z M 86.015625 148.445312 L 91.589844 148.445312 L 92.808594 141.226562 L 86.074219 141.226562 L 86.074219 148.445312 Z M 83.867188 134.476562 L 73.585938 133.601562 L 73.585938 143.441406 L 83.867188 144.835938 Z M 64.988281 143.671875 L 70.332031 143.671875 L 68.472656 136.453125 L 64.988281 136.453125 Z M 93.855469 133.484375 L 104.308594 133.484375 L 104.308594 140.238281 L 93.855469 140.238281 Z M 49.597656 139.25 L 49.597656 128.128906 L 45.359375 128.128906 L 43.5 142.101562 Z M 27.585938 160.03125 L 32.8125 156.945312 L 31.070312 146.757812 L 27.585938 146.757812 Z M 19.515625 164.222656 L 24.742188 164.917969 L 24.742188 155.664062 L 19.515625 155.664062 Z M 17.132812 165.96875 L 17.132812 171.148438 L 22.128906 171.148438 L 24.742188 167.191406 Z M 51.980469 125.394531 L 62.667969 125.394531 L 62.667969 137.210938 L 51.980469 137.210938 Z M 121.847656 148.910156 L 132.535156 148.910156 L 132.535156 160.726562 L 121.847656 160.726562 Z M 41.585938 135.175781 L 28.515625 135.175781 L 29.621094 144.488281 L 41.585938 144.023438 Z M 76.835938 122.308594 L 63.769531 122.308594 L 64.875 131.625 L 76.835938 131.15625 Z M 24.160156 140.472656 L 14.867188 141.578125 L 15.332031 153.625 L 24.160156 153.625 Z M 127.074219 172.3125 L 139.097656 171.847656 L 139.097656 163 L 126.03125 163 Z M 168.601562 158.632812 L 182.308594 158.632812 L 182.308594 171.148438 L 168.601562 171.148438 Z M 201.183594 125.976562 L 201.183594 137.910156 L 209.894531 137.910156 L 209.023438 125.976562 Z M 153.851562 167.65625 L 165.8125 167.191406 L 165.8125 158.339844 L 152.746094 158.339844 Z M 203.042969 160.261719 L 203.042969 152.054688 L 194.097656 150.425781 L 194.097656 160.261719 Z M 205.25 150.367188 L 215.703125 150.367188 L 215.703125 157.121094 L 205.25 157.121094 Z M 168.136719 114.566406 L 178.824219 114.566406 L 178.824219 126.382812 L 168.136719 126.382812 Z M 165.8125 126.152344 L 165.8125 117.304688 L 152.746094 117.304688 L 153.851562 126.617188 Z M 104.832031 116.78125 L 115.519531 116.78125 L 115.519531 128.597656 L 104.832031 128.597656 Z M 171.5625 131.914062 L 161.75 131.914062 L 150.945312 144.429688 L 171.5625 144.429688 Z M 25.730469 138.667969 L 25.730469 131.738281 L 3.253906 131.738281 L 6.097656 138.667969 Z M 143.511719 151.996094 L 142.003906 171.847656 L 147.460938 170.566406 L 149.84375 153.394531 Z M 102.507812 122.71875 L 91.300781 122.71875 L 92.230469 130.226562 L 102.507812 130.226562 Z M 155.359375 145.070312 L 163.199219 145.070312 L 163.199219 151.820312 L 155.359375 151.820312 Z M 123.765625 128.65625 L 121.558594 128.65625 L 121.558594 145.710938 L 125.273438 144.835938 Z M 208.617188 113.695312 L 205.132812 113.695312 L 205.132812 120.914062 L 210.476562 120.914062 Z M 133.40625 143.789062 L 133.40625 132.671875 L 129.167969 132.671875 L 127.308594 146.640625 Z M 135.382812 143.382812 L 135.382812 156.59375 L 140.609375 153.570312 L 138.867188 143.382812 Z M 203.796875 113.636719 L 198.570312 113.636719 L 198.570312 122.136719 L 203.796875 122.832031 Z M 191.484375 125.511719 L 191.484375 130.691406 L 196.480469 130.691406 L 199.09375 126.734375 Z M 108.027344 130.515625 L 118.710938 130.515625 L 118.710938 142.332031 L 108.027344 142.332031 Z M 50.0625 123.242188 L 50.0625 114.394531 L 36.9375 114.394531 L 38.042969 123.707031 Z M 128.875 115.207031 L 116.855469 115.671875 L 116.855469 124.523438 L 129.921875 124.523438 Z M 89.964844 118.527344 L 80.671875 119.632812 L 81.136719 131.625 L 89.964844 131.625 Z M 5.75 161.195312 L 5.75 173.125 L 14.460938 173.125 L 13.589844 161.195312 Z M 28.921875 126.035156 L 39.378906 126.035156 L 39.378906 132.789062 L 28.921875 132.789062 Z M 211.8125 114.394531 L 222.441406 114.394531 L 222.441406 126.210938 L 211.753906 126.210938 L 211.753906 114.394531 Z M 13.066406 147.339844 L 0 147.339844 L 1.101562 156.652344 L 13.066406 156.1875 Z M 83.867188 115.035156 L 53.898438 115.207031 L 53.898438 121.4375 L 85.316406 116.78125 Z M 103.4375 114.394531 L 88.453125 114.394531 L 102.507812 119.863281 Z M 24.742188 124.523438 L 34.09375 124.523438 L 35.019531 116.023438 L 24.742188 116.78125 Z M 10.800781 113.230469 L 10.164062 117.128906 L 32.117188 114.394531 Z M 20.910156 130.515625 L 20.910156 121.4375 L 12.429688 121.4375 L 13.066406 129.46875 Z M 22.242188 117.128906 L 10.976562 118.527344 L 10.976562 120.273438 L 23.40625 119.863281 Z M 26.832031 126.441406 L 23.40625 126.441406 L 22.242188 130.226562 L 26.832031 130.226562 Z M 8.1875 115.035156 L 3.253906 112.589844 L 3.253906 128.363281 L 10.105469 128.363281 Z M 142.003906 125.976562 L 127.191406 126.035156 L 127.308594 130.226562 L 142.003906 132.671875 Z M 139.039062 123.707031 L 139.039062 114.394531 L 131.839844 114.394531 L 132.535156 124.523438 Z M 149.84375 114.394531 L 140.609375 115.035156 L 140.609375 123.765625 L 150.945312 125.105469 Z M 154.429688 128.128906 L 147.054688 128.128906 L 145.253906 136.453125 L 154.429688 137.210938 Z M 135.382812 141.226562 L 140.609375 141.226562 L 140.609375 135.230469 L 135.382812 135.117188 Z M 147.695312 139.25 L 143.105469 138.726562 L 142.003906 150.015625 L 148.855469 150.015625 Z M 188.289062 127.839844 L 175.339844 127.839844 L 173.480469 138.257812 L 188.289062 138.257812 Z M 221.164062 128.886719 L 212.21875 127.898438 L 214.425781 139.308594 L 222.035156 139.308594 Z M 213.324219 141.285156 L 176.847656 142.160156 L 176.035156 148.328125 L 214.484375 148.328125 Z M 217.214844 141.519531 L 220.816406 161.078125 L 224.878906 142.742188 Z M 185.097656 166.957031 L 189.683594 167.65625 L 190.847656 150.949219 L 187.417969 150.367188 Z M 156.871094 153.511719 L 183.0625 153.511719 L 183.0625 156.1875 L 156.871094 156.1875 Z M 10.976562 140.644531 L 3.253906 140.644531 L 2.03125 143.613281 L 10.917969 144.429688 L 10.917969 140.644531 Z M 195.957031 115.964844 L 180.855469 114.335938 L 180.855469 123.066406 L 195.957031 123.066406 Z M 148.796875 174.699219 L 165.058594 174.699219 L 165.058594 171.148438 L 151.816406 169.925781 Z M 190.789062 139.308594 L 198.511719 138.316406 L 197.640625 133.601562 L 190.789062 133.484375 Z M 194.097656 167.65625 L 205.132812 167.65625 L 205.132812 161.890625 L 194.097656 162.765625 Z M 207.804688 166.023438 L 217.214844 166.023438 L 218.085938 158.632812 L 207.746094 160.03125 L 207.746094 166.023438 Z M 207.804688 166.023438 "/>
</g>
<g clip-path="url(#clip4)" clip-rule="nonzero">
<path style=" stroke:none;fill-rule:nonzero;fill:rgb(49.409485%,55.688477%,39.608765%);fill-opacity:1;" d="M 105.179688 183.519531 L 118.886719 183.519531 L 118.886719 171.003906 L 105.179688 171.003906 Z M 64.988281 195.335938 L 75.675781 195.335938 L 75.675781 183.519531 L 64.988281 183.519531 Z M 24.742188 171.003906 L 45.359375 171.003906 L 45.359375 183.519531 L 35.542969 183.519531 Z M 60.054688 171.003906 L 79.683594 171.003906 L 79.683594 177.933594 L 57.265625 177.933594 Z M 48.089844 171.003906 L 53.546875 172.285156 L 55.929688 189.457031 L 49.597656 190.855469 Z M 35.078125 187.769531 L 45.359375 187.769531 L 45.359375 195.335938 L 34.148438 195.335938 Z M 48.089844 200.050781 L 55.929688 200.050781 L 55.929688 193.300781 L 48.089844 193.300781 Z M 58.777344 185.152344 L 62.492188 186.023438 L 60.925781 202.207031 L 58.71875 202.207031 L 58.71875 185.152344 Z M 82.53125 171.003906 L 89.5 171.003906 L 89.5 187.769531 L 85.375 187.769531 Z M 82.53125 180.960938 L 83.867188 193.707031 L 78 193.707031 L 78 181.890625 Z M 94.726562 180.960938 L 94.726562 169.027344 L 103.4375 169.027344 L 102.566406 180.960938 Z M 92.808594 179.386719 L 92.808594 191.554688 L 90.429688 191.554688 Z M 106.75 187.769531 L 106.75 196.675781 L 93.679688 196.675781 L 94.785156 187.363281 Z M 117.839844 185.5 L 117.839844 193.707031 L 108.898438 195.335938 L 108.898438 185.5 Z M 86.015625 193.707031 L 91.589844 193.707031 L 92.808594 200.925781 L 86.074219 200.925781 L 86.074219 193.707031 Z M 83.867188 207.675781 L 73.585938 208.550781 L 73.585938 198.714844 L 83.867188 197.316406 Z M 64.988281 198.480469 L 70.332031 198.480469 L 68.472656 205.699219 L 64.988281 205.699219 Z M 93.855469 208.667969 L 104.308594 208.667969 L 104.308594 201.914062 L 93.855469 201.914062 Z M 49.597656 202.90625 L 49.597656 214.023438 L 45.359375 214.023438 L 43.5 200.050781 Z M 27.585938 182.125 L 32.8125 185.207031 L 31.070312 195.394531 L 27.585938 195.394531 Z M 19.515625 177.933594 L 24.742188 177.234375 L 24.742188 186.488281 L 19.515625 186.488281 Z M 17.132812 176.1875 L 17.132812 171.003906 L 22.128906 171.003906 L 24.742188 174.964844 Z M 51.980469 216.757812 L 62.667969 216.757812 L 62.667969 204.941406 L 51.980469 204.941406 Z M 121.847656 193.242188 L 132.535156 193.242188 L 132.535156 181.425781 L 121.847656 181.425781 Z M 41.585938 206.980469 L 28.515625 206.980469 L 29.621094 197.664062 L 41.585938 198.132812 Z M 76.835938 219.84375 L 63.769531 219.84375 L 64.875 210.53125 L 76.835938 210.996094 Z M 24.160156 201.683594 L 14.867188 200.574219 L 15.332031 188.527344 L 24.160156 188.527344 Z M 127.074219 169.839844 L 139.097656 170.308594 L 139.097656 179.15625 L 126.03125 179.15625 Z M 168.601562 183.519531 L 182.308594 183.519531 L 182.308594 171.003906 L 168.601562 171.003906 Z M 201.183594 216.175781 L 201.183594 204.242188 L 209.894531 204.242188 L 209.023438 216.175781 Z M 153.851562 174.5 L 165.8125 174.964844 L 165.8125 183.8125 L 152.746094 183.8125 Z M 203.042969 181.890625 L 203.042969 190.097656 L 194.097656 191.726562 L 194.097656 181.890625 Z M 205.25 191.785156 L 215.703125 191.785156 L 215.703125 185.035156 L 205.25 185.035156 Z M 168.136719 227.585938 L 178.824219 227.585938 L 178.824219 215.769531 L 168.136719 215.769531 Z M 165.8125 216 L 165.8125 224.851562 L 152.746094 224.851562 L 153.851562 215.535156 Z M 104.832031 225.375 L 115.519531 225.375 L 115.519531 213.558594 L 104.832031 213.558594 Z M 171.5625 210.238281 L 161.75 210.238281 L 150.945312 197.722656 L 171.5625 197.722656 Z M 25.730469 203.488281 L 25.730469 210.414062 L 3.253906 210.414062 L 6.097656 203.488281 Z M 143.511719 190.15625 L 142.003906 170.308594 L 147.460938 171.585938 L 149.84375 188.757812 Z M 102.507812 219.4375 L 91.300781 219.4375 L 92.230469 211.925781 L 102.507812 211.925781 Z M 155.359375 197.082031 L 163.199219 197.082031 L 163.199219 190.332031 L 155.359375 190.332031 Z M 123.765625 213.5 L 121.558594 213.5 L 121.558594 196.441406 L 125.273438 197.316406 Z M 208.617188 228.457031 L 205.132812 228.457031 L 205.132812 221.242188 L 210.476562 221.242188 Z M 133.40625 198.363281 L 133.40625 209.480469 L 129.167969 209.480469 L 127.308594 195.511719 Z M 135.382812 198.773438 L 135.382812 185.558594 L 140.609375 188.585938 L 138.867188 198.773438 Z M 203.796875 228.515625 L 198.570312 228.515625 L 198.570312 220.019531 L 203.796875 219.320312 Z M 191.484375 216.640625 L 191.484375 211.460938 L 196.480469 211.460938 L 199.09375 215.417969 Z M 108.027344 211.636719 L 118.710938 211.636719 L 118.710938 199.820312 L 108.027344 199.820312 Z M 50.0625 218.914062 L 50.0625 227.761719 L 36.9375 227.761719 L 38.042969 218.445312 Z M 128.875 226.945312 L 116.855469 226.480469 L 116.855469 217.632812 L 129.921875 217.632812 Z M 89.964844 223.628906 L 80.671875 222.519531 L 81.136719 210.53125 L 89.964844 210.53125 Z M 5.75 180.960938 L 5.75 169.027344 L 14.460938 169.027344 L 13.589844 180.960938 Z M 28.921875 216.117188 L 39.378906 216.117188 L 39.378906 209.367188 L 28.921875 209.367188 Z M 211.8125 227.761719 L 222.441406 227.761719 L 222.441406 215.945312 L 211.753906 215.945312 L 211.753906 227.761719 Z M 13.066406 194.8125 L 0 194.8125 L 1.101562 185.5 L 13.066406 185.964844 Z M 83.867188 227.121094 L 53.898438 226.945312 L 53.898438 220.714844 L 85.316406 225.375 Z M 103.4375 227.761719 L 88.453125 227.761719 L 102.507812 222.289062 Z M 24.742188 217.632812 L 34.09375 217.632812 L 35.019531 226.128906 L 24.742188 225.375 Z M 10.800781 228.925781 L 10.164062 225.023438 L 32.117188 227.761719 Z M 20.910156 211.636719 L 20.910156 220.714844 L 12.429688 220.714844 L 13.066406 212.683594 Z M 22.242188 225.023438 L 10.976562 223.628906 L 10.976562 221.882812 L 23.40625 222.289062 Z M 26.832031 215.710938 L 23.40625 215.710938 L 22.242188 211.925781 L 26.832031 211.925781 Z M 8.1875 227.121094 L 3.253906 229.566406 L 3.253906 213.789062 L 10.105469 213.789062 Z M 142.003906 216.175781 L 127.191406 216.117188 L 127.308594 211.925781 L 142.003906 209.480469 Z M 139.039062 218.445312 L 139.039062 227.761719 L 131.839844 227.761719 L 132.535156 217.632812 Z M 149.84375 227.761719 L 140.609375 227.121094 L 140.609375 218.386719 L 150.945312 217.050781 Z M 154.429688 214.023438 L 147.054688 214.023438 L 145.253906 205.699219 L 154.429688 204.941406 Z M 135.382812 200.925781 L 140.609375 200.925781 L 140.609375 206.921875 L 135.382812 207.039062 Z M 147.695312 202.90625 L 143.105469 203.429688 L 142.003906 192.136719 L 148.855469 192.136719 Z M 188.289062 214.3125 L 175.339844 214.3125 L 173.480469 203.894531 L 188.289062 203.894531 Z M 221.164062 213.265625 L 212.21875 214.253906 L 214.425781 202.847656 L 222.035156 202.847656 Z M 213.324219 200.867188 L 176.847656 199.992188 L 176.035156 193.824219 L 214.484375 193.824219 Z M 217.214844 200.632812 L 220.816406 181.074219 L 224.878906 199.410156 Z M 185.097656 175.195312 L 189.683594 174.5 L 190.847656 191.203125 L 187.417969 191.785156 Z M 156.871094 188.644531 L 183.0625 188.644531 L 183.0625 185.964844 L 156.871094 185.964844 Z M 10.976562 201.507812 L 3.253906 201.507812 L 2.03125 198.539062 L 10.917969 197.722656 L 10.917969 201.507812 Z M 195.957031 226.1875 L 180.855469 227.820312 L 180.855469 219.085938 L 195.957031 219.085938 Z M 148.796875 167.453125 L 165.058594 167.453125 L 165.058594 171.003906 L 151.816406 172.226562 Z M 190.789062 202.847656 L 198.511719 203.835938 L 197.640625 208.550781 L 190.789062 208.667969 Z M 194.097656 174.5 L 205.132812 174.5 L 205.132812 180.261719 L 194.097656 179.386719 Z M 207.804688 176.128906 L 217.214844 176.128906 L 218.085938 183.519531 L 207.746094 182.125 L 207.746094 176.128906 Z M 207.804688 176.128906 "/>
</g>
</g>
</svg>
