<?xml version="1.0" encoding="UTF-8"?>
<svg xmlns="http://www.w3.org/2000/svg" xmlns:xlink="http://www.w3.org/1999/xlink" width="224.87999pt" height="225pt" viewBox="0 0 224.87999 225" version="1.2">
<defs>
<clipPath id="clip1">
  <path d="M 2.371094 4.433594 L 222.753906 4.433594 L 222.753906 220 L 2.371094 220 Z M 2.371094 4.433594 "/>
</clipPath>
</defs>
<g id="surface1">
<g clip-path="url(#clip1)" clip-rule="nonzero">
<path style=" stroke:none;fill-rule:nonzero;fill:rgb(49.409485%,55.688477%,39.608765%);fill-opacity:1;" d="M 145.59375 106.527344 C 181.492188 94.242188 223 80.84375 223 80.84375 L 212.808594 59.808594 C 212.808594 59.808594 204.117188 63.53125 180.742188 72.375 C 165.503906 78.050781 152.136719 83.074219 136.992188 89.496094 C 147.742188 53.667969 161.953125 9.648438 161.953125 9.648438 L 138.113281 4.527344 C 138.113281 4.527344 136.246094 13.371094 130.074219 36.355469 C 125.304688 54.503906 121.097656 69.953125 117.078125 90.054688 C 85.574219 71.347656 26.585938 32.820312 26.585938 32.820312 L 16.957031 46.59375 C 16.957031 46.59375 20.507812 49.757812 38.644531 59.25 C 51.917969 66.230469 80.804688 84.472656 107.917969 102.804688 C 77.910156 116.578125 2.371094 146.359375 2.371094 146.359375 L 9.664062 161.53125 C 9.664062 161.53125 14.335938 160.414062 32.285156 151.292969 C 46.121094 144.21875 79.964844 130.351562 111.84375 118.535156 C 104.925781 153.0625 89.21875 216.253906 89.21875 216.253906 L 106.421875 219.976562 C 106.421875 219.976562 108.292969 215.695312 110.910156 196.617188 C 112.964844 182.003906 120.726562 148.316406 129.140625 117.324219 L 135.589844 121.882812 C 167.46875 144.777344 206.640625 174 206.640625 174 L 219.914062 154.921875 C 219.914062 154.921875 211.78125 149.898438 191.027344 136.03125 C 175.695312 125.605469 162.421875 116.578125 145.59375 106.527344 Z M 145.59375 106.527344 "/>
</g>
</g>
</svg>
