<?xml version="1.0" encoding="UTF-8"?>
<svg xmlns="http://www.w3.org/2000/svg" xmlns:xlink="http://www.w3.org/1999/xlink" width="224.87999pt" height="225pt" viewBox="0 0 224.87999 225" version="1.2">
<defs>
<clipPath id="clip1">
  <path d="M 12 41.378906 L 96 41.378906 L 96 131 L 12 131 Z M 12 41.378906 "/>
</clipPath>
</defs>
<g id="surface1">
<g clip-path="url(#clip1)" clip-rule="nonzero">
<path style=" stroke:none;fill-rule:nonzero;fill:rgb(94.509888%,59.609985%,12.548828%);fill-opacity:1;" d="M 57.375 74.953125 C 57.375 74.953125 47.679688 50.4375 45.664062 46.425781 C 43.644531 42.414062 41.074219 41.378906 38.898438 42.054688 C 36.71875 42.730469 38.699219 45.117188 41.035156 51.472656 C 43.367188 57.828125 48.710938 72.609375 49.382812 74.953125 L 50.726562 79.640625 C 50.726562 79.640625 33.515625 59.5 30.902344 59.179688 C 28.292969 58.863281 23.980469 56.480469 22.632812 58.824219 C 21.289062 61.167969 26.117188 69.230469 30.902344 71.894531 C 35.691406 74.554688 46.375 83.296875 46.375 83.296875 C 46.375 83.296875 35.136719 84.289062 26.90625 86.316406 C 18.679688 88.34375 11.871094 90.6875 12.585938 94.382812 C 13.296875 98.078125 22.121094 94.582031 26.90625 93.152344 C 31.695312 91.71875 47.402344 89.734375 47.402344 89.734375 C 47.402344 89.734375 34.1875 98.753906 30.945312 102.089844 C 27.699219 105.425781 21.367188 113.175781 24.691406 117.863281 C 28.015625 122.550781 51.757812 94.699219 51.757812 94.699219 C 51.757812 94.699219 46.730469 104.753906 46.730469 109.480469 C 46.730469 114.207031 43.722656 118.855469 44.039062 122.589844 C 44.355469 126.328125 46.730469 129.304688 49.066406 127.636719 C 51.398438 125.96875 59.074219 97.441406 59.074219 97.441406 C 59.074219 97.441406 58.757812 112.898438 59.074219 119.253906 C 59.394531 125.609375 63.074219 131.332031 65.445312 130.65625 C 67.820312 129.980469 65.445312 119.929688 65.445312 115.558594 C 65.445312 111.1875 64.457031 94.738281 64.457031 94.738281 C 64.457031 94.738281 76.484375 109.042969 79.175781 112.816406 C 81.867188 116.59375 84.519531 119.570312 87.207031 117.902344 C 89.898438 116.234375 85.546875 109.164062 83.210938 106.144531 C 80.878906 103.125 68.175781 89.734375 68.175781 89.734375 C 68.175781 89.734375 84.203125 92.554688 89.898438 93.152344 C 95.597656 93.746094 96.308594 89.019531 93.460938 88.34375 C 90.609375 87.667969 66.871094 84.648438 66.871094 84.648438 C 66.871094 84.648438 86.257812 73.921875 90.609375 70.542969 C 94.964844 67.167969 89.621094 62.476562 86.257812 64.503906 C 82.894531 66.53125 64.535156 80.59375 64.535156 80.59375 C 64.535156 80.59375 70.433594 59.101562 70.867188 56.082031 C 71.855469 49.367188 68.175781 46.703125 65.84375 51.394531 C 64.496094 54.015625 57.375 74.953125 57.375 74.953125 Z M 57.375 74.953125 "/>
</g>
<path style=" stroke:none;fill-rule:nonzero;fill:rgb(100%,100%,100%);fill-opacity:1;" d="M 47.601562 82.027344 C 47.601562 82.027344 45.308594 86.632812 46.652344 88.9375 C 47.996094 91.242188 49.460938 95.574219 53.257812 96.289062 C 57.058594 97.003906 63.429688 94.976562 65.40625 92.953125 C 67.386719 90.925781 69.5625 84.925781 65.367188 80 C 61.171875 75.074219 55.160156 74.398438 47.601562 82.027344 Z M 47.601562 82.027344 "/>
</g>
</svg>
